<svg width="512" height="512" viewBox="0 0 64 64" xmlns="http://www.w3.org/2000/svg">
  <path stroke-width="2" stroke="#000000" fill="#c0ab91" d="m61,35.56l0,4.88a1.992,1.992 0 0 1 -1.51,1.94l-4.75,1.18a1.516,1.516 0 0 0 -1.04,0.93c-0.01,0.01 -0.01,0.01 -0.01,0.02a1.569,1.569 0 0 0 0.08,1.4l2.52,4.19a2,2 0 0 1 -0.3,2.44l-3.45,3.45a2,2 0 0 1 -2.44,0.3l-4.19,-2.52a1.569,1.569 0 0 0 -1.4,-0.08c-0.01,0 -0.01,0 -0.02,0.01a1.516,1.516 0 0 0 -0.93,1.04l-1.18,4.75a1.992,1.992 0 0 1 -1.94,1.51l-4.88,0a1.992,1.992 0 0 1 -1.94,-1.51l-1.18,-4.75a1.516,1.516 0 0 0 -0.93,-1.04c-0.01,-0.01 -0.01,-0.01 -0.02,-0.01a1.569,1.569 0 0 0 -1.4,0.08l-4.19,2.52a2,2 0 0 1 -2.44,-0.3l-3.45,-3.45a2,2 0 0 1 -0.3,-2.44l1.81,-3.01l0.71,-1.18a1.569,1.569 0 0 0 0.08,-1.4c0,-0.01 0,-0.01 -0.01,-0.02a1.516,1.516 0 0 0 -1.04,-0.93l-0.66,-0.16l-3.69,-0.92l-0.4,-0.1a1.992,1.992 0 0 1 -1.51,-1.94l0,-4.88a1.992,1.992 0 0 1 1.51,-1.94l1.27,-0.31l3.48,-0.87a1.516,1.516 0 0 0 1.04,-0.93c0.01,-0.01 0.01,-0.01 0.01,-0.02a1.569,1.569 0 0 0 -0.08,-1.4l-2.52,-4.19a2,2 0 0 1 0.3,-2.44l3.45,-3.45a2,2 0 0 1 2.44,-0.3l4.19,2.52a1.569,1.569 0 0 0 1.4,0.08c0.01,0 0.01,0 0.02,-0.01a1.516,1.516 0 0 0 0.93,-1.04l0.87,-3.48a10.978,10.978 0 0 1 3.69,8.22c0,0.35 -0.02,0.7 -0.05,1.05a10.986,10.986 0 0 0 -9.9,9.9c-0.03,0.35 -0.05,0.7 -0.05,1.05a11,11 0 1 0 19.22,-7.31l1.27,-0.31a1.992,1.992 0 0 0 1.51,-1.94l0,-4.88a1.992,1.992 0 0 0 -1.51,-1.94l-0.4,-0.1l3.01,-1.81a2,2 0 0 1 2.44,0.3l3.45,3.45a2,2 0 0 1 0.3,2.44l-2.52,4.19a1.569,1.569 0 0 0 -0.08,1.4c0,0.01 0,0.01 0.01,0.02a1.516,1.516 0 0 0 1.04,0.93l4.75,1.18a1.992,1.992 0 0 1 1.51,1.94z"/>
  <path stroke="#000000" stroke-width="2" fill="#ffde55" d="m49,23.56l0,4.88a1.992,1.992 0 0 1 -1.51,1.94l-1.27,0.31l-3.48,0.87a1.516,1.516 0 0 0 -1.04,0.93c-0.01,0.01 -0.01,0.01 -0.01,0.02a1.569,1.569 0 0 0 0.08,1.4l2.52,4.19a2,2 0 0 1 -0.3,2.44l-3.45,3.45a2,2 0 0 1 -2.44,0.3l-4.19,-2.52a1.569,1.569 0 0 0 -1.4,-0.08c-0.01,0 -0.01,0 -0.02,0.01a1.516,1.516 0 0 0 -0.93,1.04l-0.87,3.48a10.978,10.978 0 0 1 -3.69,-8.22c0,-0.35 0.02,-0.7 0.05,-1.05a10.986,10.986 0 0 0 9.9,-9.9c0.03,-0.35 0.05,-0.7 0.05,-1.05a11,11 0 1 0 -19.22,7.31l-1.27,0.31a1.992,1.992 0 0 0 -1.51,1.94l0,4.88a1.992,1.992 0 0 0 1.51,1.94l0.4,0.1l-3.01,1.81a2,2 0 0 1 -2.44,-0.3l-3.45,-3.45a2,2 0 0 1 -0.3,-2.44l2.52,-4.19a1.569,1.569 0 0 0 0.08,-1.4c0,-0.01 0,-0.01 -0.01,-0.02a1.516,1.516 0 0 0 -1.04,-0.93l-4.75,-1.18a1.992,1.992 0 0 1 -1.51,-1.94l0,-4.88a1.992,1.992 0 0 1 1.51,-1.94l4.75,-1.18a1.516,1.516 0 0 0 1.04,-0.93c0.01,-0.01 0.01,-0.01 0.01,-0.02a1.569,1.569 0 0 0 -0.08,-1.4l-2.52,-4.19a2,2 0 0 1 0.3,-2.44l3.45,-3.45a2,2 0 0 1 2.44,-0.3l4.19,2.52a1.569,1.569 0 0 0 1.4,0.08c0.01,0 0.01,0 0.02,-0.01a1.516,1.516 0 0 0 0.93,-1.04l1.18,-4.75a1.992,1.992 0 0 1 1.94,-1.51l4.88,0a1.992,1.992 0 0 1 1.94,1.51l1.18,4.75a1.516,1.516 0 0 0 0.93,1.04c0.01,0.01 0.01,0.01 0.02,0.01a1.569,1.569 0 0 0 1.4,-0.08l4.19,-2.52a2,2 0 0 1 2.44,0.3l3.45,3.45a2,2 0 0 1 0.3,2.44l-1.81,3.01l-0.71,1.18a1.569,1.569 0 0 0 -0.08,1.4c0,0.01 0,0.01 0.01,0.02a1.516,1.516 0 0 0 1.04,0.93l0.66,0.16l3.69,0.92l0.4,0.1a1.992,1.992 0 0 1 1.51,1.94z"/>
</svg>