<svg xmlns="http://www.w3.org/2000/svg" fill="none" viewBox="0 0 444 769">
  <path fill="#d47784" fill-opacity=".3" d="M131.2 604.79a15.25 15.25 0 0 1-4.5 2.98c6.48 4 12.9 8.1 19.14 12.48 4.2 2.95 7.76 6.86 12.24 10.92-1.44.05-1.8.15-2.08.06-12.02-3.55-21.02 2.62-25.82 9.66-4.94 7.24-6.54 15.75-6.88 24.5a448.1 448.1 0 0 1-1.21 19.32c-.26 3-.95 5.99-1.56 9.66l5.95-2.72c6.95-3.2 13.93-6.35 20.85-9.61a44.26 44.26 0 0 0 7.23-3.96 34.7 34.7 0 0 0 5.5-5.35c4.16-4.74 8.5-9.48 9.03-16.17.35-4.46.24-8.94.32-13.22 4.35 1.96 27.8 34.5 27.5 38.82-.57-.06-1.2-.02-1.71-.2-9.38-3.3-23.06 2.1-28.04 11.33-4.13 7.64-7.32 15.5-7.3 24.38 0 4.08.12 8.17-.16 12.24-.3 4.53-.86 9.06-1.6 13.54-.47 2.78-1.48 5.47-2.36 8.65 8.2-3.4 15.27-8.05 23.5-9.84h-.02c.74-.4 1.47-1.87 1.86-1.78 2.23.5 3.48-.5 4.5-2.23.13-.2.64-.13.95-.26 2.2-.92 4.96-1.34 6.52-2.92 4.6-4.68 8.8-9.76 13.05-14.78 3.16-3.74 4.2-8.35 4.7-13.05.3-2.66.29-5.36.44-8.47 1.14 1.02 1.84 1.49 2.35 2.1 3.16 3.82 8.67 6.93 3.8 13.17-.63.82-.42 2.3-.66 3.46-2.51 12.4 2.17 22.3 11.32 30.13 4.37 3.73 10.02 5.93 14.53 9.53 4.8 3.82 10.62 3.63 15.94 5.13 5.7 1.6 11.82 1.65 17.74 2.48 2.14.3 4.25.92 6.37 1.42l8.49 2.03c-2.2-5.73-6.86-9.77-7.6-14.76-.84-2.47-1.41-4.1-1.96-5.75-1.5-4.48-3-8.97-4.44-13.47-.66-2.06-.84-4.35-1.87-6.2-2.33-4.15-5.14-8.05-7.6-12.15-7.9-13.25-29.03-22.3-43.08-11.4-.55.42-2.12.44-2.52 0-2.57-2.74-4.95-5.67-7.35-8.5.33-.34.4-.5.48-.48.46.07.94.13 1.39.27 7.43 2.15 14.8 2.19 21.77-1.48 6.66-3.5 13-7.48 17.08-14.15 2.5-4.1 5-8.2 7.52-12.3 1.9-3.1 3.85-6.15 5.72-9.26 1.82-3 3.57-6.05 5.86-9.92-3.46.73-5.91 1.66-8.36 1.67-5.12.02-10.24-.52-15.37-.7-7.87-.3-15.68-.76-23.58.77-11.78 2.3-20.34 7.97-23.71 19.94-.78 2.75-.9 5.7-1.51 9.7l-20.8-30.53c2.52.37 3.9.73 5.28.75 10.9.06 20.3-3.46 27.93-11.55 4.32-4.57 9.12-8.68 13.66-13.05 1.85-1.77 3.58-3.67 5.63-5.8-4.98-1.03-9.22-1.78-13.4-2.83-4.02-1-8.2-1.82-11.87-3.6-5.86-2.83-12.06-3.2-18.25-3.43-11.37-.43-22.6 7.73-23.52 19.63-.07.94-.65 1.85-1.16 3.2-10.52-10.96-22.15-19.85-34.3-28.05zm171.9 64.99-.76 2.29c1.12.47 2.25 1.38 3.35 1.35 17.1-.41 32 6.45 46.74 13.9.84.43 1.77 1.6 1.84 2.5.26 3.57-.05 7.2.34 10.75.4 3.72.3 8.08 2.24 10.92 7.8 11.44 17.13 21.17 31.63 24.16 8.67 1.79 16.59-.07 24.82-2.75 10.02-3.26 18.76-10.28 30.45-9.96-.6-1.15-.87-1.98-1.38-2.6-5.56-6.67-11.52-13.04-16.64-20.02a54.97 54.97 0 0 0-25.62-19.26c-14.81-5.58-28.95-4.02-42.46 4.32-1.3.79-3.93.68-5.3-.12-9.26-5.35-19.16-9.08-29.4-11.78-6.5-1.72-13.22-2.5-19.84-3.7zm36.23 14.68c-1.01.2-1.98.35-2.91.65-1.07.33-2.27.58-3.17 1.23-10.9 7.97-15.68 18.66-14.9 32.19.36 6.12 3.25 11.13 5.5 16.45 3.4 8.08 7.59 15.7 14.9 21 2.29 1.65 4.76 3.39 7.39 3.99.77.17 2.35-3.48 3.65-5.33 7.78-11.17 7.46-23.16 2.4-34.96-3.42-8-8.55-15.27-12.6-23.04-2-3.81-2.82-8.01-.26-12.18z"/>
  <path fill="#f8f5f5" d="M155.63 17.2a31.8 31.8 0 0 0-3.97-.85c-5.87-.9-11.86-.2-17.7.58-17.53 2.38-34.54 7.84-51.92 11.04-3.17.6-5.45 2.2-5.01 5.73.25 2 1.28 3.94 2.24 5.68.3.6 1.74 3.38 2.8 5.22a105 105 0 0 1-.93-.13c-2-.48-4-1.11-6-1.7-3.83-1.11-7.9-2.5-11.92-2.5-.77-.01-1.61.32-2 1.02C53.78 54.57 45.8 69.4 44.27 84.86c-5.73.17-11.05 2.98-15.37 6.67-5.46 4.66-8.25 10.64-10.86 17.2-6.11 15.4-9.53 31.72-12.7 47.95C3.75 165 2.02 173.32 1 181.72c-.96 8.06-1.7 16.9.16 24.89 1.77 7.7 6.37 14.56 7.47 22.44.73 5.19-1.07 10.37-.94 15.6.34 12.8 10.36 20.86 20.44 27.2.56 12.42 3.34 23.9 11.38 33.8 10.57 12.97 28.93 12.62 41.38 22.7.22.17.43.28.66.35 3.52 9.47 8.4 18.45 15.3 25.72a48.29 48.29 0 0 0 18.56 12.37c3.3 1.17 6.8 1.94 10.33 2.18 2.17.14 4.34-.12 6.53-.05 2.96.13 4.67 1.4 6.5 3.54 5.4 6.28 10.82 10.72 19.09 12.65 8.36 1.94 16.9 1.18 25.28.03 8.75-1.2 17.44-2.36 26.2-3.2 6.38-.61 14.44-.04 19.8-3.9a47.09 47.09 0 0 0 6.46-5.64c.36.38 1.14.88 1.44 1.12 1.57 1.3 3.13 3 4.94 4.03 2.67 1.46 6.03-.2 8.7-.95 15.14-4.24 29.93-12.34 38.5-25.96 5.07-8.03 8.09-16.5 14.73-23.57 5.7-6.06 11.03-11.77 13.74-19.84.27-.82.5-1.63.74-2.48 15.56-4.7 28.1-17.17 40.44-27.17 10.48-8.51 19.28-18.6 14.16-32.9-3.1-8.63-8.38-16.06-10.87-25-2.48-8.9-3.47-18.11-5-27.21a65.46 65.46 0 0 0-3.12-11.7c4.84-3.33 8.88-7.6 9.87-13.62.92-5.57-.76-11.2-2.08-16.56-1.5-6.02-2.76-12.31-.92-18.42 1.53-5.04 4.57-9.73 6.98-14.4 2.36-4.61 5.28-9.43 6.73-14.42 1.97-6.81-.21-14.46-3.75-20.35-9.48-15.77-27.7-20.8-42.04-30.75-7.52-5.23-14.03-11.73-21.67-16.82-6.71-4.5-13.95-8.3-21.5-11.27-11.82-4.66-24.68-7.5-37.43-7.47-4.4 0-8.88.3-13.14 1.36a23.7 23.7 0 0 0-4.16 1.36c-.5.24-1 .47-1.46.75-.24.14-.46.25-.66.33-.27-.13-.77-.3-1.14-.5-1.18-.62-2.25-1.46-3.34-2.26-2.97-2.16-5.85-4.44-8.84-6.54C207.16 5.39 197.64.34 187.3.02c-13.13-.43-23.7 7.44-31.68 17.18zM82.96 49.36c2.06.2 4.44-.23 4.8-2.66.47-3.2-3.4-7.2-4.76-9.8-.46-.88-2.08-3.4-1.44-4.28.44-.61 4.29-.75 5.05-.88 4.26-.8 8.44-1.77 12.66-2.75 9.09-2.13 18.1-4.46 27.27-6.26 10.57-2.12 21.99-3.93 32.27.25 5.39 2.2 10.37 5.32 15.85 7.34 4.4 1.6 9 2.62 13.62 3.39 18.53 3.09 41.2.88 55.43 15.53 10.7 11 14.65 27.1 23.45 39.37a26.89 26.89 0 0 1-6.2-3.97c-8.37-7.3-14.4-17.9-26.05-20.26-3.9-.8-7.9-.64-11.84-.94-4.28-.32-8.3-1.6-12.48-2.51-6.28-1.38-13.1-1.65-18.35 2.22-1.04-1.52-2.1-3-3.23-4.31-9.13-10.66-25.12-9.5-37.7-7.78-16.21 2.18-32.8 5.5-45.45 16.69-6.15 5.42-11.22 12.02-16.23 18.46-4.6 5.9-9.16 12.22-11.27 19.52-3.25 11.33.35 22.4 6.97 31.5a32.91 32.91 0 0 0-18.38 9.55c-4.2-5.56-6.33-11.82-8.05-18.93-1.1-4.5-2.22-8.95-3.9-13.26-1.98-5.22-4.45-10.24-5.62-15.76-4.01-19.04 5.97-37.85 14.98-54 6.37.5 12.24 3.93 18.6 4.53zm244 108.07a103.7 103.7 0 0 0-2.3 25.2c.27 8.4 2.4 16.4 3.17 24.7.83 9.03-4.45 15.77-9.74 22.48a401.65 401.65 0 0 1-20.73 24.32c-2.27 2.48-5.15 6.77-7.98 7.94a16.4 16.4 0 0 1-3.54.86c-.97-3.8-3.15-7.5-2.18-11.44 1-3.97 2.94-7.7 3.96-11.7 2.2-8.8 3.48-17.86 5.09-26.76 1.69-9.34 3.36-18.66 5.06-28 1.48-8.33 3.53-17.3.76-25.58a20.16 20.16 0 0 0-4.38-7.47c2.16-7.93 4.76-15.76 6.56-23.78 1.45-6.52 2.88-13.73.76-20.23-1.7-5.13-5.41-8.9-10.2-11.25-5.02-2.46-10.45-3.57-15.72-5.05-3.77-3.6-6.76-7.93-9.38-12.56 14.98-2 29.46 3.8 41.24 12.76 12.6 9.56 25.9 24.14 24.8 41-.55 8.36-3.51 16.36-5.24 24.56zM76.25 261.93v-.82a2.08 2.08 0 0 0-.73-1.7c-2.17-7.87-3.66-15.98-5.82-23.81-3.33-12.1-7.76-23.9-10.2-36.27-2.43-12.3-2.88-25.6 2.2-37.34 4.74-10.95 14.74-19.6 26.79-20.75a55.97 55.97 0 0 0 3.74 3.89c-8.1 1.5-14.35 7.97-17.57 15.64-4.54 10.85-1.85 23.09.35 34.19 2.5 12.7 3.38 25.56 9.15 37.34 5.5 11.27 13.39 21.16 18.65 32.57 2.53 5.46 4.65 11.17 8.52 15.89 3.6 4.37 8.43 7.63 13.44 10.18a147.54 147.54 0 0 0 35 12.24c5.93 1.3 12 1.97 18.02.88 6.64-1.2 12.76-4.2 19.07-6.53 9.98-3.66 20.56-4.13 30.94-5.83-2.42 4.3-5.18 8.2-9.3 11.45-8.16 6.42-18.37 9.86-28.03 13.2-10.55 3.68-21.76 7.2-33.08 5.98-10.57-1.16-19.5-7.2-28.1-13-4.14-2.78-8.3-5.6-12.73-8-4.46-2.4-9.2-4.11-13.86-6.03-11.03-4.56-18.33-12.87-23.05-23.75a81.45 81.45 0 0 1-3.4-9.62zm-22.93-77.4c.34 13.08 4.02 25.66 7.85 38.08 3.4 11.02 5.87 22.24 8.84 33.35-3.57-1.21-7.02-2.66-9.98-5-4.72-3.78-7.34-9.62-11.7-13.8-4.12-3.96-8.7-7.4-11.92-12.16-3.24-4.8-5.32-10.3-6.66-15.9-5.21-21.74-1.08-44.57 7.2-65a160.19 160.19 0 0 1 14.2-26.87 150.9 150.9 0 0 1 3.76 13.2c1.85 7.4 4.39 14 9 19.76-7.36 9.44-10.9 22.43-10.6 34.33zM213.1 66.13c6.4 1.6 12.65 1.45 19.13 2.33 11.54 1.56 17.4 12.1 25.42 19.2 7.49 6.63 16.4 8.08 25.68 10.83 4.63 1.38 9.44 3.3 12.25 7.48 4.05 6.02 2.33 14.24.86 20.85-1.66 7.39-4 14.6-6.04 21.9-7.21-4.94-17.35-5.94-26.22-5.85a42.9 42.9 0 0 1-1.03-1.91c-2.6-5.36-3.7-11.14-5.36-16.82-2.27-7.76-5.94-15.97-13.52-19.8-8-4.02-17.51-1.2-26.06-2.02l-1.44-.17c-6.14-2.42-11.21-6.8-15.83-11.6 0 0 0-.02.03-.03.34-7.67-2.38-16.27-6.46-23.54 5.3-4.21 12.52-2.36 18.59-.84zm-42.48 234c-11.26-.26-22.96-4.5-33.35-8.6-10.74-4.2-20.98-9.15-26.42-19.87-2.46-4.87-4.37-9.98-7-14.8-2.64-4.82-5.63-9.45-8.53-14.11-6.15-9.9-10.96-19.66-12.93-31.24-1.06-6.27-1.97-12.58-3.2-18.81-1.24-6.24-2.51-12.53-2.43-18.9.14-9.77 5.3-21.8 15.42-24.15-.66 4.85-.8 9.77-.82 14.63-.02 8.73.43 17.58-1.07 26.25-1.52 8.75-4.97 17.47-3.02 26.46 1.78 8.16 7.68 14.12 16.16 14.75a35.7 35.7 0 0 0 8.57-.58c5.15 7.8 9.4 16.25 15.7 23.22 3.14 3.47 6.86 6.54 11.24 8.3 5.5 2.23 11.72 2.22 17.55 2.36a80.5 80.5 0 0 1 20.13 2.86c6.14 1.7 12.2 3.67 18.47 4.78a48.56 48.56 0 0 0 31.62-4.98 49.75 49.75 0 0 0 23.27-26.25c.24-.7.17-1.3-.1-1.74 3.08-.95 6-2.32 8.66-4.2 1.65 9.13 3.25 18.86 1.12 28.03-2.46 10.58-10.38 17.43-20.4 20.9-10.94 3.74-22.66 3.63-33.9 6-11.71 2.44-22.5 9.97-34.74 9.7zM92.77 145.07c.15-.46.36-.9.54-1.33-.12.45-.24.87-.33 1.32-.06-.02-.12 0-.2 0zm112.4-44.73c-15.4-2.67-31.9-5.22-42.5 8.53-.36.45-.45.9-.42 1.32a74.88 74.88 0 0 0-5.91-2.05c-16.21-4.63-34.7 1.95-47.6 12.09a49.2 49.2 0 0 0-5.58 5.2c-5.85-8.95.15-20.67 4.96-29.01 6.03-10.44 14.52-19.7 25.43-25.13 10.94-5.46 24.1-7.08 35.7-2.75 9.44 3.5 16.23 11.59 22.8 18.83 4.08 4.52 8.32 9.16 13.12 12.97zm-96.88 26.22c11.58-11.04 30.84-18.68 46.69-14.15 13.25 3.8 24.67 12.38 37.59 17.02a37 37 0 0 0-6.9 3.55c-10.34-7.28-23.78-4.94-35.27-1.87-6.98 1.86-14.22 3.8-20.16 8.1-6.3 4.6-10.3 11.57-14.18 18.18a267.7 267.7 0 0 0-11.25 20.86c-3.02 6.34-5.8 13.84-4.06 20.95 1.7 7 7.44 10.2 12.9 14.05 4.8 3.38 8.79 7.65 12.75 11.98-5.12-.23-10.17.83-15.28 1.6-8 1.23-16 .13-18.91-8.62-2.81-8.45.6-17.23 2.2-25.55 1.48-7.53 1.5-15.2 1.45-22.82-.12-15.73.27-31.66 12.43-43.28zm92.18 5.13c.74.14 1.34-.05 1.84-.4a66.54 66.54 0 0 1 15.87-.86c3.22.19 6.54.45 9.57 1.59 3.6 1.36 6.12 4.29 8.36 7.28 9.13 12.37 16.96 27.3 20.87 42.22a47.32 47.32 0 0 1 .34 22.22c-1.37 6.22-3.97 12.22-6.02 18.26-1 2.96-1.98 5.2-4.93 6.5-2.92 1.34-6.22 1.88-9.36 2.47-3.58.65-7.34 1.2-10.84 2.38 1.52-3.41 2.79-6.98 4.93-10.05 5.28-7.6 13.77-12.91 16.95-21.88a26.78 26.78 0 0 0-5.06-26.36c-3.16-3.58-7.44-6.16-11.56-8.7-.22-.6-.5-1.13-.8-1.68.45-.62.92-1.24 1.2-1.7a24.15 24.15 0 0 0 2.44-5.72c.93-3.47.4-7.14-2.23-9.71-2.6-2.5-6.25-3.07-9.61-3.78-5.02-1.04-10.12-2.16-14.96-3.92a40.51 40.51 0 0 1-7.5-3.63c-1.63-1-3.13-2.3-4.9-3a43.47 43.47 0 0 1 5.4-1.53c-.03-.03-.03 0 0 0zM245.4 240.8c-7.63 19.13-28.48 30.93-48.81 27.59-11.55-1.9-22.38-6.9-34.17-7.63-10.87-.7-21.44.56-29.8-7.67-6.6-6.54-10.87-14.95-15.83-22.76 4.23-.74 8.45-1.3 12.68-.34.49.1.93.04 1.32-.1 9.94 10.3 24.48 20.45 39.02 13.2.1-.06.16-.13.24-.18 14.7 9.2 33.86 17.29 47.98 2.89 1.6-1.63 3-3.46 4.26-5.4 7.55 1.18 15.65 1.77 23.1.4zm-63.54-104.95a28.68 28.68 0 0 0-6.25 7.62c-.1.14-.2.23-.3.37-.36.69-.7 1.43-.95 2.2-.14.33-.3.67-.44 1.03l-.06.02c-9.23 2.46-15.92 9.05-21.55 16.47-5.56 7.28-12.16 15.68-13.07 25.13-.45 4.65.44 9.3 1.42 13.83 1.16 5.34 2.37 10.76 4.5 15.82 4 9.49 11.84 15.94 20.15 21.58l.28.18c-11.62 4.15-23.43-4.68-31.14-12.77-4.35-4.6-8.4-9.45-13.14-13.67-4.27-3.8-10.16-6.31-13.8-10.71-4.88-5.84-2.4-14.14.27-20.4 2.8-6.6 6.46-12.95 10.03-19.16 3.34-5.83 6.62-12.1 11.23-17.04 4.82-5.17 11.19-7.65 17.85-9.56 10.93-3.23 24.46-7.18 34.97-.94zm.54 14.27c5.77-3.33 12.98-4.87 19.48-2.92a11.96 11.96 0 0 1 7.48 5.88 15.79 15.79 0 0 0 2.17 2.98 26.13 26.13 0 0 0-5.64 2.7 34.87 34.87 0 0 0-8.74-4.52c-2.48-.87-5.2-1.46-7.8-1.08-2.9.4-5.52 2.42-7.51 4.5-2.44 2.57-4.28 5.6-6.03 8.67-1.74 3.07-3.41 6.2-4.48 9.59-1.93 6.16-.63 11.86 2.24 17.47a24.5 24.5 0 0 0 3.64 5.37c-.44 3.86-1.22 8.27 1.62 11.38 2.96 3.23 7.64 5.49 11.58 7.35 8.46 3.96 21.46 8.25 27.6-1.57 1.79-2.87 2.68-6.33 4.15-9.43.33.97.65 1.9.93 2.89 1.05 3.74.42 6.72-1.62 10-3.2 5.18-8.2 9.23-14.36 10.05-12.65 1.65-25.6-8.18-34.5-16.02-4.8-4.24-9.67-8.95-12.66-14.71-3.12-6.07-2.86-12.6-.57-18.9 4.07-11.21 12.54-23.68 23.02-29.68zm16.68 48.96c.7.25 1.26.18 1.8 0-.3.59-.57 1.17-.76 1.67-.53 1.2-1.4 2.84-2.52 3.6-1.46 1.02-3.32-.8-4.4-1.8-2.82-2.62-4.84-6.03-7.02-9.16-2.44-3.53-4.4-7.07-4.44-11.46-.03-2.95.23-6.22 1.88-8.75 2.3-3.58 6.68-3.4 10.49-3.31.86.02 1.75.04 2.6.04-1.96 7.54-2.72 15.74-1.04 23.28.4 2.02 1.16 5.07 3.4 5.89zm1.82-4.12c.08.2.12.1 0 0zm-.94-2.94c-1.55-7.42-.61-15.44 1.53-22.72 1.57-.52 3.52-1.4 4.75-.91 1 .4 1.26 1.7 1.46 2.65.4 1.74.72 3.44 1.39 5.1 1.3 3.3 4.06 7.48 2.88 11.16-1.62 5.06-7.26 4.94-11.22 6.84-.05 0-.08.04-.14.06-.21-.72-.5-1.42-.65-2.18zm-1.47-27.23c-.03 0-.02.03-.02.03-.15.16-.27.34-.38.54-2.46.2-4.97-.1-7.42-.03-4.51.18-8.78 1.75-11.13 5.84-1.9 3.3-2.4 7.26-2.28 11 .15 5.3 2.34 9.5 5.32 13.78l1.33 1.94c-3.92-.5-6.55-6.7-7.76-9.74-1.22-3.06-1.74-6.03-1.02-9.3.83-3.64 2.64-6.96 4.45-10.17 2.87-5.05 6.84-12.38 13.68-10.97 2.97.6 6.1 1.94 8.84 3.76a51.4 51.4 0 0 0-3.61 3.32zm-11.72 37.24a25.66 25.66 0 0 0 4.55 4.8c3.8 3 7.82 3.1 10.85-.94 1.6-2.15 2.33-4.45 3.14-6.88l.32 1.73c.78 4 2.9 7.98 7.53 7.95 1.25 0 2.46-.32 3.6-.84-.08.2-.2.4-.26.6-1.45 3.59-3.06 7.88-7.25 8.82-4.22.94-9.02-.64-12.94-2.1a55.26 55.26 0 0 1-12.6-6.68c-1.22-.86-2.21-1.62-2.48-3.12a12.41 12.41 0 0 1 0-3.57c1.54.67 3.25.94 5.13.44.2-.04.3-.13.4-.21zm28.7 1.4c-6.35 3.67-4-4.17-6.42-7.34.16-.07.34-.1.53-.21 3.87-1.88 7.05-5.65 7.12-10.1.03-3.36-1.38-6.35-2.68-9.37 2 2.62 4.23 5 6.24 7.62 2.52 3.33 3.2 7.06 1.8 11-1.15 3.27-3.58 6.67-6.6 8.4zm10.94-17.5c-2.06-5.54-7.2-9.4-10.35-14.33-1.9-2.98-3.03-7.77-5.71-10.4 3.74-1.88 7.8-2.48 11.67.06a14.3 14.3 0 0 1 5.2 6.38c1.14 2.84 1.43 6.1 1.8 9.1a79 79 0 0 1 .75 9.62c0 2.66-.04 5.72-2 7.7-.31.35-.67.67-1.06.97a15 15 0 0 0-.3-9.1zm-.54-27.36a13.94 13.94 0 0 0-8.02-3.33c-.15-.12-.24-.23-.4-.31-3.2-1.57-3.86-4.11-5.87-6.76-2.05-2.67-5.15-4.28-8.32-5.25-6.37-1.94-13.3-1.07-19.37 1.47-1.74.7-3.41 1.6-5 2.58.02-.07.07-.14.08-.2.2-.44.48-.87.73-1.3.1.02.24-.01.64-.25a60.76 60.76 0 0 0 6.76-4.46c1.02-.8 1.9-1.8 3-2.52 1.96-1.34 3.2-.8 5.15.26 5.32 2.87 9.97 5.56 15.9 7.2 4.95 1.37 10.39 1.8 15.2 3.6 5.65 2.1 3.89 7.19 1.6 11.3a21.7 21.7 0 0 0-2.1-2.03zm-10.14 83.12c-9.47 10.48-23.88 8.4-35.24 2.34a140.97 140.97 0 0 1-15.34-9.74c-5.2-3.7-10.3-7.87-13.66-13.4-3.66-6.04-5.12-13.17-6.57-20-1.61-7.56-1.9-14.37 1.96-21.32 3.16-5.7 7.1-11.26 11.28-16.25 3.77-4.55 8.2-8.57 13.65-10.8-6.93 6.6-12.28 15.4-15.8 23.6-2.86 6.73-4 14.12-1.53 21.16 2.57 7.3 8.24 13.17 13.87 18.27 10.07 9.14 24.12 19.68 38.54 18.35 7.6-.7 13.92-5.35 18.02-11.65 1.99-3.08 3.5-6.34 3.24-10.08-.22-3.58-1.8-6.93-2.8-10.35 1.56-1.44 3.4-2.54 4.95-3.94 2.3-2.1 3.27-4.32 3.7-7.38.48-3.3.17-6.7-.1-10-.2-2.48-.44-5.03-.83-7.54 4.27 2.83 8.17 5.86 10.4 11.18a22.42 22.42 0 0 1-.07 17c-2.3 5.47-7.17 9.56-11.1 13.8-3.16 3.44-6.03 6.96-7.8 11.3-2.3 5.46-4.76 11-8.77 15.45zm13.99-4.9c9.1-2.4 20.6-.97 24.83-10.62 1.35-3.07 2-6.36 3.22-9.5 1.46-3.83 2.94-7.54 3.84-11.55a52.83 52.83 0 0 0 .22-22.74c-1.83-8.25-5.43-16.41-9.12-23.98a141.14 141.14 0 0 0-13.27-22.12c-4.55-6.2-9.96-9.2-17.57-10.05a72.7 72.7 0 0 0-19.38.43c-.68.1-1.32.25-2 .4-12.36-2.84-23.03-10.2-34.56-15.36.18-.14.37-.27.5-.45 10.97-14.2 31.8-7.5 46.39-5.2 4.05.65 8.13 1.05 12.26.92 4.06-.12 8.18-.71 12.23-.2 9.36 1.24 13.75 10.06 16.14 18.25 2.53 8.67 4.62 16.74 9.47 24.48 4.68 7.44 10.5 14.7 12.23 23.54 1.78 9-3.03 15.69-6.53 23.47a32.3 32.3 0 0 0-2.66 9.65c-.51 4.54-.14 9.22-1.37 13.67-4.44 15.8-20.65 18.08-34.87 16.96zM192.7 73.86a47.05 47.05 0 0 1 3.5 11.48l-3.54-3.96c-7.45-8.16-15.4-15.75-26.46-18.47-26.1-6.42-50.53 10.5-62.7 32.62-5.58 10.16-11.1 23.27-3.3 33.48a41.15 41.15 0 0 0-5.6 10.4c-.18.48-.3.93-.47 1.4-8.38-8.38-14.64-20.03-12.02-32.02 1.5-6.86 5.56-12.78 9.73-18.3 4.18-5.5 8.47-11.03 13.32-16 10.93-11.2 24.93-15.63 40.03-18.06 11.5-1.86 28.36-5.34 38.2 3.1 4.3 3.7 7.13 9.22 9.3 14.34zm38.58 221.08c.76-1.42 1.48-2.9 2.2-4.33 1.08-.23 2.2-.47 3.29-.77 11.47-3.13 21.9-9.71 26.1-21.34 3.96-11.03 2-23.3-.05-34.53a1.92 1.92 0 0 0-.88-1.37 31.23 31.23 0 0 0 3.03-3.46 24.97 24.97 0 0 0 4.42-10.2c.98-5.15.34-10.5 1.58-15.6 2-8.32 8.24-14.9 9.03-23.62.87-9.5-4.02-18.24-9.02-25.92-1.4-2.13-2.83-4.3-4.21-6.47 10.86.1 23.54 2.12 27.45 13.37 2.75 7.89.4 16.86-1.05 24.8a8163.3 8163.3 0 0 1-4.55 25.15c-1.5 8.4-2.81 16.86-4.66 25.2a72.18 72.18 0 0 1-3.41 11.16c-1.16 2.94-2 5.7-1.46 8.9.52 3.2 2.16 6.1 2.67 9.3.63 3.9 0 7.98-1.67 11.55-3.2 6.92-9.8 10.43-16.96 12.02-7.75 1.72-15.8 1.7-23.54 3.5-2.86.62-5.57 1.64-8.31 2.66zM60.08 313.6c-4.25-1.63-8.61-3.4-12.32-6.17-4.6-3.4-7.81-8.41-10.48-13.4-3.5-6.47-4.27-14.45-4.7-21.7-.17-3.22-1.2-3.73-4.08-5.6-3.97-2.57-7.86-5.42-11.02-9-4.25-4.8-5.71-10.28-5.22-16.58.28-3.8 1.2-7.47.93-11.3-.35-4.71-2.12-9.18-3.88-13.53-2.18-5.4-4.2-10.6-4.56-16.48-.33-5.73-.03-11.5.62-17.2 1.38-11.82 3.9-23.51 6.35-35.16 2.56-12.25 5.58-24.45 10.1-36.15 2.18-5.67 4.38-11.16 8.88-15.43 3.6-3.41 8.28-6.32 13.32-6.6-.04 3.07.15 6.18.73 9.29.86 4.66 2.6 9.05 4.4 13.42-12.38 18.42-21.67 39.3-25.01 61.32a97.21 97.21 0 0 0 .8 34.83 56.54 56.54 0 0 0 6 16.5c3.04 5.3 7.2 9.27 11.68 13.3a50.1 50.1 0 0 1 7.1 7.59c2.08 2.8 3.9 5.72 6.52 8.06 4.29 3.83 9.75 5.79 15.13 7.52.13.43.22.87.35 1.3a216.7 216.7 0 0 0 4.27 46.5 150.9 150.9 0 0 0 3.18 12.8c-5.88-3.57-12.65-5.67-19.08-8.13zm244.83 5.87c-5.67 6.1-10.7 11.75-14.47 19.26-3.64 7.27-7.38 13.95-13.55 19.4-5.94 5.27-13.08 9.1-20.48 11.85-3.5 1.3-7.1 2.03-10.64 3.17-1.54.48-1.4.55-2.65-.4-1.06-.81-2.02-1.73-3.03-2.58-2.74-2.34-4.81-4.15-7.57-1.1a41.3 41.3 0 0 1-5.76 5.12c-2.76 2.04-5.86 1.98-9.2 2.34-7.06.8-14.1 1.38-21.16 2.2-15.77 1.89-36.84 8.05-50.02-4.4-2.38-2.22-4.02-5.13-6.53-7.27-3.15-2.7-6.53-2.67-10.5-2.6a37.12 37.12 0 0 1-21.02-6.3C92.88 348 85.17 329.1 81.23 311.73A210.38 210.38 0 0 1 76.37 275c3.12 6.77 7.28 12.98 13.12 17.8 4.4 3.62 9.48 5.8 14.72 7.88a93.89 93.89 0 0 1 15.9 7.9c9.16 5.83 17.82 12.83 28.25 16.28 11.32 3.74 23.27 1.97 34.45-1.35 11.73-3.5 24.35-7.52 34.68-14.22a43.96 43.96 0 0 0 9.6-8.3c4.54-1.34 8.84-3.35 13.43-4.43 7.75-1.84 15.8-1.8 23.54-3.5 6.7-1.5 13.08-4.43 17.34-9.97a24.79 24.79 0 0 0 5.02-15.84c1.3-.28 2.63-.54 3.9-.85 3.14-.74 5.02-3.62 7.17-5.92a428.09 428.09 0 0 0 19.48-22.22c4.22-5.16 9.28-10.66 12.43-16.84 2.77 4.34 3.7 10.03 3.7 15.04-.05 7.65-1.31 17.33-5.64 23.8-3.48 5.2-7.63 9.56-8.96 15.84-1.54 7.23-1.95 14.6-3.2 21.89-1.44 8.3-4.7 15.28-10.4 21.46zm51.32-105.08a86.08 86.08 0 0 0 8.3 22.63c3.72 7.1 7.8 15.04 4.19 23.03-2.63 5.86-8 10.14-12.85 14.06-5.03 4.1-10.1 8.16-15.14 12.24-6.2 5.02-12.68 9.8-20.06 12.76-.27-.25-.58-.4-.93-.47.97-5.65 1.4-11.42 2.33-17.1.74-4.61 1.7-8.33 4.37-12.18 2.28-3.27 4.98-6.33 6.76-9.93 1.87-3.76 2.53-8.42 3.32-12.54.86-4.6 1.35-9.24.94-13.94-.5-5.91-2.22-11.9-6.03-16.37.05-.2.13-.37.18-.56 2.4-8.71-1.12-17.8-2-26.5-1-9.8-.52-19.83 1.38-29.5.24-1.27.54-2.53.82-3.78 10.08 8.44 17.82 20.9 20.37 33.72 1.59 8.17 2.36 16.37 4.05 24.43zM187.1 4.43c8.66.26 16.68 4.26 23.74 8.96 5.1 3.38 9.8 8.16 15.36 10.84 1.9.92 3.32.92 5.07 0a24.11 24.11 0 0 1 8.06-2.52c25.05-3.9 52.42 7 71.84 22.07 6.98 5.42 13.38 11.39 21.07 15.88 7.28 4.26 15 7.74 21.98 12.5 6.96 4.76 13.4 11.46 15.7 19.75 1.86 6.53.13 11.36-2.7 17.1-5.05 10.39-12.61 20.43-11.64 32.5.52 6.32 2.8 12.3 3.76 18.54 1.1 7.09-1.53 12.36-7.12 16.42A66.01 66.01 0 0 0 333 151.5c1.6-6.1 3.28-12.16 3.7-18.46 1.15-17.22-10.9-31.71-23.33-42.2-13.44-11.3-30.41-18.58-48.18-16.2-.47.08-.8.28-1.05.5-4.56-8.9-8.36-18.48-14.44-25.98-12.8-15.8-33.06-16.7-51.76-18.74-11-1.18-20.87-3.56-30.8-8.55a99.04 99.04 0 0 0-6.96-3.2C167 10.72 176.05 4.14 187.1 4.45z" opacity=".5"/>
</svg>
