<svg xmlns="http://www.w3.org/2000/svg" fill="none" viewBox="0 0 614 808">
  <path fill="#fff" fill-opacity=".3" d="M186.28 1.3c-9.53-.27-19.05 3.12-28.63 3.91-6.71.55-13.43-.1-20.13.6a83.38 83.38 0 0 0-17.45 3.65c-8.88 2.88-17.48 7.28-24.7 13.25a40.88 40.88 0 0 0-6.8 6.9 17.4 17.4 0 0 0-1.72 2.72c-.18.36-.35.73-.48 1.1-.07.2-.15.36-.22.5-.22.05-.57.19-.88.25-.96.2-1.95.22-2.94.28-2.7.16-5.39.21-8.06.42-7.4.58-15.16 2.17-21.16 6.8-7.65 5.9-9.95 15.29-9.93 24.53-.9.4-1.78.86-2.64 1.38-3.75 2.24-6.81 5.42-9.76 8.6-8.82 9.53-15.9 20.57-24.26 30.5-1.51 1.81-2.06 3.78-.16 5.58 1.07 1.01 2.56 1.63 3.92 2.17.46.2 2.57 1.1 4.04 1.65l-.6.36c-1.36.66-2.79 1.24-4.18 1.84-2.7 1.16-5.64 2.27-7.93 4.15-.44.35-.76.93-.66 1.52 1.99 10.99 4.4 23.12 10.74 32.59-3.16 2.77-4.86 6.84-5.6 10.95-.9 5.2.3 9.89 1.89 14.82 3.73 11.58 9.42 22.42 15.2 33.1 2.98 5.46 5.88 10.98 9.23 16.21 3.22 5.02 6.93 10.37 11.71 14.03 4.6 3.54 10.41 5.27 14.72 9.22 2.83 2.6 4.23 6.38 6.74 9.28 6.18 7.1 15.62 6.98 24.29 5.86 6.12 6.78 13.05 12 22.23 13.84 12.04 2.41 22.28-6.37 34.05-6.47.2 0 .37-.04.53-.1 6.42 3.71 13.38 6.52 20.68 7.42 5.46.68 11.11.2 16.29-1.66a28.56 28.56 0 0 0 6.87-3.6c1.3-.93 2.4-2.09 3.68-3.07 1.73-1.3 3.3-1.38 5.33-1.03 6 1.04 11.14 1.02 16.72-1.75 5.64-2.8 10.13-7.22 14.34-11.79 4.4-4.76 8.78-9.48 13.36-14.04 3.31-3.33 8.15-6.77 9.39-11.46a34.6 34.6 0 0 0 1.02-6.22c.38.05 1.06-.03 1.34-.03 1.5.01 3.18.25 4.67-.02 2.2-.42 3.34-2.93 4.5-4.6 6.6-9.48 11.19-20.97 9.69-32.7-.89-6.9-3.13-13.12-2.67-20.22.4-6.1.75-11.82-1.49-17.65-.22-.6-.48-1.16-.73-1.76 6.62-9.92 7.9-22.85 10.22-34.28 1.96-9.71 2.23-19.54-7.34-25.24-5.79-3.45-12.25-5.2-17.83-9.09-5.56-3.88-10.43-8.64-15.54-13.09a48.16 48.16 0 0 0-7.23-5.16c1.18-4.15 1.48-8.46-.78-12.33-2.08-3.59-5.65-5.99-8.9-8.4-3.67-2.73-7.32-5.7-9.13-10.02-1.49-3.57-1.95-7.65-2.78-11.42-.81-3.7-1.4-7.8-2.91-11.3-2.07-4.78-6.88-8.1-11.63-9.78a30.76 30.76 0 0 0-9.54-1.7zm-.22 3.16c4.75.16 9.53 1.28 13.42 3.99 4.1 2.84 5.37 6.38 6.46 10.95 1.98 8.25 2.38 17.47 8.57 23.85 3.25 3.34 7.33 5.66 10.79 8.75 3.94 3.5 4.9 7.72 3.63 12.63a48.46 48.46 0 0 0-22.54-5.17c-1.94-4.2-3.82-8.42-6.52-12.19-7.4-10.29-20.98-12.88-32.93-13-12.9-.13-25.9 3.67-34.85 13.32-.24.27-.33.53-.36.78-6.75-2.92-13.37-6.58-20.33-7.98-14.62-2.97-26.52 5.98-38.07 13.55-6.79 4.47-13.48 7.73-21.44 9.54-1.84.42-3.65.89-5.43 1.44.13-7.7 2.18-15.65 8.6-20.64 5.02-3.9 11.43-5.38 17.63-6.02 4.46-.46 9.36.05 13.76-1.03 1.51-.37 2.3-1.03 2.87-2.37a17.7 17.7 0 0 1 3.39-5.19c12.37-13.9 32.96-20.51 51-21.05 6.49-.19 12.9.2 19.36-.84 6.1-.99 12.1-2.62 18.3-3.18 1.53-.14 3.1-.2 4.7-.14zM168.5 37.6c10.62.21 22.4 2.88 28.74 11.68 3.59 5 5.65 10.92 8.5 16.37A76.12 76.12 0 0 0 216.2 81c4.07 4.63 9.02 8.16 13.32 12.5 4.7 4.74 4.85 11.02 4.99 17.3.17 7.8.06 15.63-.39 23.45-.13 2.47.25 6.24-.81 8.22-.4.75-1.02 1.46-1.6 2.14-2.33-1.69-5.3-2.77-6.58-5.46-1.3-2.72-1.93-5.73-3.22-8.48-2.85-6-6.37-11.74-9.62-17.53l-10.21-18.23c-3.05-5.4-6.07-11.44-11.51-14.84a14.82 14.82 0 0 0-5.97-2.2c-2.48-5.49-4.66-11.14-7.4-16.53-2.21-4.37-4.77-9.12-9-11.81-3.36-2.12-7.23-2.52-11.04-1.61-3.99.95-7.58 2.86-11.26 4.48a39.5 39.5 0 0 1-11.18-2.73c7.55-8.13 18.46-11.6 29.32-12.04a73.8 73.8 0 0 1 4.46-.04zm-63.21 5.49c.9 0 1.82.05 2.75.15 11.2 1.24 20.97 8.52 31.68 11.35-1.73.43-3.5.71-5.37.65-8.16-.23-16.52-3.42-24.22.69-2.58 1.36-4.77 3.32-7.15 5-2.57 1.81-5.44 2.98-8.24 4.4-4.2 2.15-8.18 5.18-9.36 9.83a33.5 33.5 0 0 0-3.84-.94c-10.15-1.77-18.67 6.35-24.99 13.2-8.17 8.81-16.01 18.44-17.96 30.68-.95 5.95-.74 12.05-.57 18.04.15 5.5.52 11.2 2.73 16.32 3.46 7.94 10.66 12.53 18.66 14.6a24.16 24.16 0 0 0-5.95 13.99c-4.98-1.2-9.1-3.75-13.4-6.97a78.1 78.1 0 0 0-8.4-5.7c-3.56-2.02-7.3-3.71-10.54-6.3-11.17-8.9-14.3-24.23-16.74-37.59 3.84-2.68 8.77-3.48 12.66-6.11 1.25-.85 2.4-2.2 1.47-3.75-1.22-2.02-5.29-2.5-7.28-3.33-.67-.28-2.76-.95-2.8-1.74-.04-.56 2.08-2.43 2.45-2.87 2.03-2.44 3.95-4.94 5.88-7.47 4.16-5.45 8.18-10.98 12.53-16.28 5-6.13 10.62-12.49 18.4-14.92 4.07-1.28 8.36-1.84 12.4-3.25a55.7 55.7 0 0 0 9.3-4.44c11.2-6.47 22.27-17.28 35.9-17.24zm55.97 7.66c.89.02 1.78.15 2.67.41 5.1 1.52 7.97 6.98 10.22 11.41 2.51 4.96 4.56 10.15 6.8 15.23-6.39.57-12.6 4.74-17.58 8.93-.49-.19-.98-.38-1.47-.6-3.98-1.83-7.3-4.58-10.9-7.03-4.9-3.33-10.82-6.27-16.9-4.9-6.4 1.45-10.48 7.5-15.7 11.03-.3.19-.62.38-.9.57-4.62 1.5-9.53 1.4-14.38.83 0 0-.02-.01 0-.03-3.4-4.51-8.95-8.11-14.66-10.32 1.04-4.87 6-7.19 10.14-9.16 4.37-2.08 7.84-5.1 11.92-7.62 7.27-4.51 15.51-1.27 23.37-.99 7.34.26 13.07-3.09 19.6-5.86 2.45-1.04 5.1-1.95 7.77-1.9zm46.67 11.97c9.65.08 19.85 3.52 27.28 9.6 4.72 3.88 8.99 8.16 13.71 11.94a63.17 63.17 0 0 0 15.27 8.94c5.42 2.3 11.44 4.89 13.13 11.1 1.24 4.55.2 9.47-.71 13.97l-2.87 14c-1.17 5.74-2.6 11.47-5.4 16.6a1.4 1.4 0 0 0-.75.16c-2.09-3.65-4.54-7.12-6.66-10.77-1.74-2.96-2.93-5.52-3.22-8.95-.23-2.92-.14-5.9-.8-8.77-.7-3.01-2.5-5.96-3.98-8.66a37.73 37.73 0 0 0-5.98-8.34c-3.04-3.12-6.8-5.7-11.06-6.46l-.16-.4c-2.7-6.06-8.95-9.56-13.5-14.08a73.95 73.95 0 0 1-13-17.35c-.46-.83-.87-1.69-1.3-2.53zm-69.82 14.45c3.82.28 7.62 2.25 10.85 4.45 5.48 3.74 10.43 7.33 16.8 9.45 6.12 2.03 12.8 3.42 17.92 7.62 5.2 4.27 5.6 10.3 7.26 16.35a23.73 23.73 0 0 0 3 6.71c1.83 2.8 4.23 5.29 5.61 8.38 4.87 11.03-3.26 19.89-11.84 25.9 4.03-5.61 11.23-10.18 9.11-17.62-.67-2.37-1.83-4.54-2.6-6.88-.97-2.85-1.87-5.65-3.23-8.34-2.56-5-6.06-9.51-10.5-12.98-4.88-3.82-10.73-6.76-16.36-9.33a103.6 103.6 0 0 0-17.85-6.34c-5.46-1.38-9.94-.55-14.64 2.52a53.33 53.33 0 0 0-10.79 9.3c-.33.37-.62.75-.94 1.15-8.33 4.17-17.8 4.98-26.75 7.44.04-.16.08-.32.08-.5-.43-13.15 14.52-19.09 23.85-24.6a47.3 47.3 0 0 0 7.37-5.2c2.24-1.97 4.3-4.22 6.84-5.82a11.04 11.04 0 0 1 6.8-1.66zm-59.44.06c4.17.09 8.35 1.9 11.97 3.78 2.54 1.3 5.17 2.9 7.35 4.87l-3.86-.59c-8.03-1.14-16.07-1.73-23.61 1.9-17.78 8.54-23.73 29.54-20.29 47.76 1.59 8.36 4.58 18.36 13.77 20.5.16 2.88.7 5.76 1.69 8.52.12.34.26.65.38 1-8.66-.83-17.65-4.51-21.76-12.52-2.36-4.6-2.83-9.84-3.04-14.92-.2-5.06-.35-10.2.08-15.28.96-11.45 6.81-20.5 14.24-28.93 5.64-6.43 13.57-16.27 23.08-16.09zM183.03 81a12 12 0 0 1 5.68 1.8c5.24 3.18 8.1 9.36 10.99 14.54l9.16 16.37c3.07 5.46 6.29 10.86 9.13 16.45a52.97 52.97 0 0 1 3.28 7.91c.72 2.21 1.54 4.18 3.33 5.73 1.8 1.58 4.07 2.45 5.86 4.03a14.66 14.66 0 0 1 4.44 7.32c1.42 5.41-.67 10.48-3.99 14.73-3.59 4.59-8.15 8.33-11.7 12.97a44.15 44.15 0 0 0-3.47 5.39c-.23-1.16-.5-2.33-.77-3.48.5-.64 1.02-1.3 1.5-1.97 5.03-7.13 7.88-15.74 4.82-24.28-2.9-8.1-9.75-14.14-16.15-19.54a1.4 1.4 0 0 0-1.14-.36c.1-1.1.16-2.22.1-3.38a18.33 18.33 0 0 0-2.25-7.83c-1.86-3.39-4.72-6.12-6.4-9.59-2.74-5.65-2.28-12.28-5.9-17.6-3.95-5.78-10.8-8.45-17.22-10.47a281.8 281.8 0 0 1-5.42-1.7c4.66-3.75 10.4-7.38 16.12-7.04zM82.94 87.6c4.56-.1 9.21.7 13.65 1.34 4.42.66 8.99 1.3 13.49 1.23-9.97 5.67-20.52 11.94-20.1 24.68 0 .42.16.72.38.94a55.13 55.13 0 0 0-4.3 1.6c-11.35 4.95-18.74 17.3-21.33 29.08a35.4 35.4 0 0 0-.72 5.56c-7.5-2.34-9.58-11.78-10.75-18.76-1.45-8.73-.97-17.95 2.68-26.12 3.64-8.2 10.35-15.26 18.94-18.23a26 26 0 0 1 8.06-1.32zm58.79 9.5c1.37.09 2.74.37 4.07.7 10.95 2.74 22.36 7.55 31.54 14.17a34.73 34.73 0 0 1 10.57 12.42c2.13 4.17 3.46 8.78 5.11 13.16.82 2.15 1.3 3.87.25 5.99-1.03 2.12-2.65 3.96-4.15 5.76-1.73 2.05-3.6 4.11-5.03 6.42-.74-2.65-1.69-5.26-1.9-8-.56-6.77 1.77-13.75-.62-20.31a19.66 19.66 0 0 0-15.17-12.57c-3.47-.56-7.1-.02-10.61.47-.4-.23-.82-.41-1.24-.58-.04-.56-.06-1.13-.12-1.52a17.73 17.73 0 0 0-1.29-4.38c-1.1-2.4-3.1-4.24-5.8-4.47-2.63-.2-4.97 1.19-7.2 2.36a79.76 79.76 0 0 1-10.31 4.76 29.63 29.63 0 0 1-5.95 1.45c-1.38.2-2.85.15-4.17.59.7-1.18 1.47-2.3 2.34-3.4.49-.26.74-.65.86-1.08a48.85 48.85 0 0 1 8.6-7.9c1.9-1.4 3.9-2.8 6.15-3.57 1.33-.45 2.7-.56 4.07-.47zm95.27 3.65c3.6 1.17 6.78 3.96 9.12 6.8 3.54 4.35 7.35 10.42 7.92 16.11.46 4.58.14 8.98 2.32 13.16 2.5 4.82 5.7 9.18 8.4 13.9a29.8 29.8 0 0 1 4.15 17.01c-.36 6.1-.57 11.66.8 17.67 1.33 5.82 2.33 11.35 1.38 17.32-.9 5.76-3.15 11.26-6.07 16.27-1.37 2.38-3.07 4.47-4.55 6.77-.64 1-.54.97-1.68 1-.98.05-1.96-.03-2.93-.04-2.64-.04-4.66-.1-4.8 2.91a31.2 31.2 0 0 1-.86 5.6c-.62 2.44-2.4 3.85-4.13 5.62-3.62 3.75-7.34 7.37-10.95 11.13-8.06 8.43-17.12 21.76-30.4 20.87-2.38-.15-4.67-1.04-7.1-1.08-3.04-.06-4.94 1.54-7.15 3.42a27.14 27.14 0 0 1-14.86 6.26c-13.49 1.47-26.69-5.64-37.03-13.65a154.43 154.43 0 0 1-19.9-18.53c4.93 2.38 10.19 3.95 15.74 3.95 4.18 0 8.09-1.13 12.02-2.4a68.85 68.85 0 0 1 12.7-2.96c7.9-.97 16.09-1.04 23.6-3.96 8.16-3.17 14.1-9.75 18.9-16.85 5-7.46 10.27-15.64 13-24.26a32.23 32.23 0 0 0 1.57-9.18c1.94-2.88 3.44-6.02 5.53-8.78 3.53-4.66 8.11-8.39 11.7-12.98 3.1-3.97 5.34-8.62 5.17-13.74a18.2 18.2 0 0 0-4.56-11.32c.61-.77 1.24-1.54 1.82-2.3 1.43-1.9 1.15-4.4 1.3-6.71.46-7.22.68-14.46.65-21.68-.02-4.9.28-10.38-.82-15.35zm-90.6 6.94c3.06-.21 4.19 3 4.74 5.97a16 16 0 0 0-2.14-.18c-2.45 0-4.45.7-6.1 1.86-.14 0-.23-.02-.37.02-2.53.6-4.1-.53-6.48-1.1-2.4-.55-4.91-.02-7.16.92-4.52 1.87-8.04 5.6-10.29 9.87a24.92 24.92 0 0 0-1.63 3.8l-.04-.15c-.1-.35-.14-.72-.2-1.07.06-.04.13-.13.25-.45a44.45 44.45 0 0 0 1.74-5.68c.2-.93.25-1.9.53-2.83.48-1.68 1.45-1.95 3.04-2.26 4.35-.86 8.24-1.5 12.37-3.35 3.44-1.53 6.72-3.83 10.29-5.06.52-.18 1-.28 1.44-.3zm-29.88 4.85a27.13 27.13 0 0 0-2.25 5.23c-9.26.7-15.78 8.3-20.85 15.4-3.1 4.32-6.29 8.8-7.63 14.02-1.42 5.55-.45 11.36.44 16.92a198 198 0 0 0 3.37 17.07c1.25 5 3.19 10.54 7.48 13.76 4.25 3.18 8.98 2.3 13.88 1.93 4.3-.32 8.55.23 12.82.83-3.01 2.26-5.38 5.23-7.91 8.05-3.97 4.43-9.01 7.54-14.74 3.95-5.55-3.48-7.71-10.04-10.69-15.5-2.68-4.96-6.25-9.31-9.83-13.61-7.42-8.86-14.64-18.06-13.18-30.32 1.41-11.67 8.75-24.99 19.85-29.82 9.28-4.04 19.76-4.51 29.24-7.91zm33.08 4.23c1.53.08 3.1.5 4.41 1.22 1.97 1.08 3.66 2.8 5.27 4.32 1.72 1.6 3.4 3.3 4.91 5.1 1.24 1.5 2.65 3.25 2.47 5.29-.02.34-.07.7-.15 1.05a10.93 10.93 0 0 0-4.42-5.02c-3.75-2.18-8.47-1.96-12.56-3.28-2.46-.8-5.34-3-8.09-3.23 1.24-2.81 3.26-5.05 6.65-5.42.49-.05 1-.06 1.5-.03zm-16.01.67c1.13-.02 2.26.2 3.5.65.9.33 1.75.57 2.62.67a19.23 19.23 0 0 0-1.94 4.16c-2.43.15-4.9.74-7.06 1.52a12.3 12.3 0 0 0-4.93 3.04c-1.45 1.59-2 3.95-2.15 6.05-.18 2.6.2 5.18.64 7.73.44 2.55.96 5.1 1.94 7.52 1.78 4.4 5.18 7.02 9.42 8.85 1.37.6 2.97 1.12 4.58 1.35 1.54 2.39 3.16 5.25 6.22 5.69 3.2.45 6.9-.46 10-1.25 6.64-1.7 16-5.34 14.9-13.77-.33-2.46-1.44-4.84-2.05-7.28.64.4 1.26.77 1.87 1.2 2.35 1.62 3.38 3.6 3.76 6.42.6 4.43-.33 9.05-3.44 12.4-6.4 6.84-18.32 7.32-27.03 7.04-4.7-.16-9.66-.56-14.05-2.43-4.6-1.98-7.5-5.8-9.14-10.44-2.93-8.25-3.96-19.27-.82-27.56 1.71-4.59 5.08-8.82 9.67-10.75a9.5 9.5 0 0 1 3.49-.8zm29 .63c2.78-.1 5.52.21 8.32 1.7a16.4 16.4 0 0 1 7.9 9.65c1.26 4.17.4 8.76.16 13-.19 3.43-.17 6.76.87 10.06 1.24 4.15 2.43 8.44 2.24 12.83-.47 10.37-9.61 15.91-18.87 17.79a103.6 103.6 0 0 1-13.24 1.65c-4.67.33-9.5.34-14-1.22-4.9-1.71-9.05-5.07-13.06-8.26-4.45-3.53-7.8-7.25-8.85-13-.87-4.7-1.23-9.7-1.2-14.47.02-4.34.65-8.69 2.7-12.48-.84 6.97.23 14.46 2.07 20.73 1.52 5.16 4.32 9.88 9.01 12.7 4.86 2.94 10.82 3.63 16.39 3.89 9.97.47 22.85-.12 30.4-7.61 3.98-3.95 5.39-9.53 4.77-15.01-.32-2.68-.98-5.24-2.87-7.23-1.8-1.92-4.26-3.08-6.42-4.56.2-1.53.73-3.02.96-4.54a8.24 8.24 0 0 0-1.34-5.9c-1.28-2.1-3.03-3.88-4.72-5.63a76.94 76.94 0 0 0-4-3.88 41 41 0 0 1 2.78-.2zm-49.13 3.1c-.4 2.37-.43 4.8.01 7.23.02.13 0 .22.01.35.12.56.28 1.13.49 1.69l.23.8-.03.03c-4.08 5.7-4.8 12.56-4.51 19.4.25 6.72.43 14.56 4.33 20.33 1.92 2.85 4.6 5.08 7.26 7.18 3.15 2.48 6.37 4.98 9.94 6.85 6.7 3.52 14.15 3.5 21.5 2.83l.24-.03c-4.65 7.77-15.46 8.29-23.61 7.3-4.6-.56-9.17-1.43-13.83-1.6-4.2-.17-8.7 1.16-12.82.37-5.49-1.03-7.96-6.89-9.37-11.68-1.5-5.05-2.39-10.35-3.27-15.54-.82-4.86-1.9-9.94-1.6-14.9.33-5.18 2.77-9.56 5.66-13.75 4.68-6.93 10.5-15.49 19.37-16.86zm23.44 5.05a37.42 37.42 0 0 0-.5 3.6c-.01.16 0 .31.04.48-1.3 1.26-2.86 2.26-4.22 3.45-2.47 2.21-4.15 5.1-3.58 8.5.47 2.77 2.04 5.24 3.85 7.3 2.56 2.94 5.76 4.3 9.44 5.32l1.67.48c-2.45 1.55-6.85-.74-8.95-1.9a11.27 11.27 0 0 1-4.92-4.79c-1.23-2.44-1.75-5.17-2.22-7.83-.74-4.2-1.92-10.21 2.62-12.6a19 19 0 0 1 6.77-2zm6.13 1.96c.56.1 1.09.53 1.5.85 1.05.8 2.02 1.62 3.17 2.25 2.27 1.26 5.8 2.34 6.84 4.97 1.45 3.62-1.8 6.2-3.16 9.11-.03.04-.02.07-.05.1-.46-.3-.94-.57-1.39-.93-4.34-3.47-7.56-8.46-9.74-13.58.64-1.03 1.33-2.44 2.27-2.74.18-.06.37-.06.56-.03zm7.6.94c2.35.55 4.73.86 7.09 1.4a8.2 8.2 0 0 1 6.16 5.4c.87 2.39 1.08 5.45.18 7.83-1.88 5.05-4.2-.5-7.06-1.16.06-.11.14-.22.2-.37 1.31-2.86 1.35-6.49-.68-9.04-1.56-1.92-3.75-2.96-5.9-4.06zm-12.85 4.4c2.4 5.2 5.8 10.2 10.28 13.69 1.17.95 3.02 2.32 4.68 1.74a2 2 0 0 0 1.03-.84c.1.47.22.92.34 1.3.27.93.53 2.26.25 3.21-.35 1.26-2.25 1.1-3.32 1.03-2.83-.16-5.57-1.15-8.26-1.9-3.04-.86-5.8-1.95-7.87-4.42-1.4-1.66-2.77-3.64-3.02-5.84-.37-3.1 2.2-5.04 4.4-6.77zm65.66 8.3c5.2 4.4 10.65 9.17 13.72 15.36 3.55 7.15 2.26 14.72-1.8 21.37-4.45 7.23-11.14 12.64-16.39 19.24-5.5 6.84-8.1 16.15-15.16 21.71-6.5 5.1-15.11 8.17-22.9 10.7-8.05 2.64-16.16 4.61-24.26 1.08-3.67-1.61-7.14-3.62-10.87-5.11-3.75-1.5-7.6-2.73-11.43-4.01-8.1-2.74-15.39-6.03-21.9-11.67-3.54-3.06-7-6.2-10.61-9.16-3.61-2.96-7.27-5.93-10.2-9.57-4.49-5.6-7.17-14.83-2.54-20.88a81.6 81.6 0 0 0 6.36 8.66c4.07 4.97 8.46 9.77 11.65 15.38 3.23 5.67 5.35 12.22 10.65 16.4 4.82 3.79 10.95 4.4 16.04.8a26.2 26.2 0 0 0 4.59-4.33c6.56 2.02 12.91 4.83 19.74 5.83 3.4.5 6.94.5 10.24-.55 4.15-1.3 7.68-4.21 11.04-6.86 4-3.15 8.1-5.7 12.75-7.78 4.26-1.9 8.63-3.62 12.7-5.91a35.65 35.65 0 0 0 15.58-17.59 36.53 36.53 0 0 0 .92-25.74c-.18-.5-.5-.8-.87-.94a22.13 22.13 0 0 0 2.95-6.43zm-36.58 3.83.13.47c.85 2.7 1.95 5.88.01 8.38-1.94 2.5-5.4 3.85-8.31 4.85a40.57 40.57 0 0 1-10.25 2.1c-1.1.08-2.01.11-2.87-.61a9.1 9.1 0 0 1-1.67-2.02 5.6 5.6 0 0 0 3.11-2.15c.1-.12.12-.21.14-.3 1.57.37 3.18.63 4.83.6 3.55-.09 5.87-1.9 5.7-5.61-.1-1.97-.76-3.61-1.44-5.37l1 .83c2.3 1.91 5.36 3.17 7.97 1a6.32 6.32 0 0 0 1.65-2.17zm31.6 5.3c4.62 14.4-1.69 30.83-14.76 38.43-7.43 4.32-15.9 6.54-22.92 11.63-6.48 4.69-11.88 10.33-20.46 9.57-6.8-.61-13.14-3.39-19.6-5.5 2.06-2.39 4.19-4.67 7.03-6.11.32-.17.54-.41.7-.68 10.43 1.2 23.41.16 28.27-10.74.03-.08.03-.14.05-.21 12.63-1.65 27.25-6.02 28.53-20.77.14-1.67.08-3.36-.1-5.04 4.82-2.87 9.69-6.31 13.27-10.57zM13.64 159.2a34.52 34.52 0 0 0 4.75 4.91c2.67 2.24 5.7 3.91 8.77 5.54 1.58 16.23 6.07 32.4 14.46 46.43a71.36 71.36 0 0 0 16.71 19.36 41.99 41.99 0 0 0 11.1 6.55c4.2 1.57 8.42 1.89 12.84 2.08 2.57.1 5.08.35 7.57.98 2.48.6 4.88 1.41 7.45 1.51 4.22.18 8.23-1.27 12.09-2.8.27.19.53.4.8.58a159.07 159.07 0 0 0 24.13 24.34c2.47 2 5.09 3.96 7.78 5.77-5 .72-9.81 2.7-14.6 4.3-3.18 1.07-6.47 2.1-9.87 2.27-4.19.21-8.35-1.12-12.19-2.7-5-2.04-9.18-6.2-12.8-10.1-1.6-1.74-2.42-1.55-4.93-1.27-3.45.4-6.98.6-10.45.05-4.64-.73-8.03-3.15-10.7-6.95-1.6-2.28-2.8-4.8-4.74-6.83-2.4-2.51-5.49-4.22-8.52-5.86-3.75-2.03-7.33-4.05-10.28-7.2a73.86 73.86 0 0 1-7.68-10.05c-4.74-7.33-8.77-15.13-12.82-22.87-4.28-8.14-8.26-16.46-11.17-25.2-1.4-4.23-2.72-8.36-2.17-12.9.45-3.6 1.74-7.44 4.47-9.94zm53.33 7.8c.14.31.27.61.43.9a.27.27 0 0 0-.1.11c-.14-.33-.23-.67-.33-1zm-3.9.84c1.3.22 2.62.36 3.94.45-3.88 4.64-4.4 11.23-2.65 17.07 2.5 8.27 9.73 13.95 16.16 19.2 7.36 6.03 13.86 12.9 22.63 16.89 8.37 3.81 17.46 5.73 25.77 9.74 3.98 1.91 7.85 4.15 12.25 5.02 4.08.8 8.34.39 12.37-.51 8.8-1.96 17.53-5.29 25.54-9.4 3.97-2.04 7.72-4.5 10.62-7.92 3.2-3.78 5.26-8.35 7.75-12.6 3.95-6.74 9.72-11.95 14.8-17.76.65 3.57.9 7.07.09 10.83-1.63 7.45-5.8 14.16-9.7 20.57-4.28 7.01-8.97 14.24-15.96 18.83-6.53 4.28-14.41 5.04-21.98 5.77-3.66.35-7.33.7-10.96 1.4-3.64.73-7.13 1.97-10.67 3.06-8.38 2.57-16.4 1.27-24.15-2.7a59.85 59.85 0 0 1-6.42-3.85l-.38-.47a1.53 1.53 0 0 0-1.21-.62c-4.9-3.44-9.53-7.34-14.42-10.77-7.54-5.3-15.56-9.92-22.7-15.78-7.13-5.84-13.6-13.16-16.2-22.18-2.43-8.42-.8-17.99 5.48-24.27zm-32.36 3.83c2.87 1.74 5.57 3.73 8.29 5.73 4.51 3.33 9.03 5.89 14.32 7 .25 8.77 4.31 17.78 10.04 24.38 6.3 7.26 14.27 12.66 22.24 17.91 7.07 4.66 13.7 9.86 20.58 14.77-2.59.98-5.22 1.77-8 1.82-4.43.07-8.64-2.02-13.06-2.35-4.19-.32-8.38-.13-12.44-1.32a35.47 35.47 0 0 1-11.2-5.9c-13.1-9.88-21.42-24.74-26.26-40.19a117.64 117.64 0 0 1-4.51-21.85zm391.26 1.41c-14.05 4.37-29.52 9.46-40.87 19.28-4.14-3.69-9.74-5.26-15.23-5.55-6.93-.36-12.87 1.98-19.06 4.84-14.55 6.73-27.8 15.9-40.82 25.19-6.67 4.76-13.42 9.44-19.73 14.66-6.04 5.01-12.43 10.72-16.45 17.56-3.9 6.59-5.22 14.45-9.7 20.72-2.94 4.12-7.65 6.56-11.04 10.3-8.3 9.22-6.62 21.54-3.77 32.69-7.87 9.1-13.58 19-14.52 31.28-1.22 16.14 11.9 28.11 13.92 43.48.04.26.11.47.23.68-3.83 8.98-6.39 18.53-6.4 28.22a46.7 46.7 0 0 0 4.8 21.03 37.64 37.64 0 0 0 5.8 8.4c1.42 1.55 3.12 2.81 4.6 4.32 2 2.05 2.35 4.09 2.21 6.8-.4 8 .46 14.73 4.97 21.58 4.57 6.92 11.06 12.08 17.71 16.85a631.6 631.6 0 0 1 20.5 15.2c4.89 3.81 10.16 9.58 16.49 10.44a45.54 45.54 0 0 0 8.3.34c-.01.5.2 1.38.25 1.75.23 1.96.19 4.2.78 6.1.9 2.81 4.36 3.9 6.74 5.14 13.44 7.1 29.2 11.27 44.29 7.42 8.9-2.26 16.65-6.2 26.01-6.73 8.04-.46 15.57-.92 22.84-4.78.74-.39 1.44-.81 2.17-1.24 14.04 7.06 31.15 6.67 46.45 7.86 13.02 1 25.91-.22 31.83-13.64 3.57-8.12 4.82-16.85 9.01-24.77 4.18-7.9 9.62-15.02 14.62-22.42a63.28 63.28 0 0 0 5.59-10.28c5.61.87 11.3.57 15.99-3 4.36-3.29 6.92-8.35 9.56-12.99 2.97-5.22 6.26-10.48 11.62-13.54 4.43-2.51 9.69-3.78 14.48-5.46 4.72-1.66 9.98-3.1 14.32-5.62 5.91-3.47 9.47-10.29 10.9-16.77 3.87-17.37-5.57-33.02-9-49.55-1.8-8.68-2.04-17.57-4.01-26.22a109.73 109.73 0 0 0-7.58-22.22c-5.18-11.14-12.32-21.68-21.28-30.15a53.88 53.88 0 0 0-10.12-7.8c-1.23-.7-2.5-1.34-3.83-1.8-.5-.18-1-.35-1.52-.46a5.69 5.69 0 0 1-.68-.2c-.1-.27-.34-.72-.48-1.1-.4-1.23-.6-2.53-.82-3.82-.65-3.5-1.15-7-1.85-10.47-1.95-9.58-5.27-19.46-12.3-26.56-8.92-9.05-21.57-10.55-33.66-9.04-.67-1.12-1.4-2.2-2.22-3.24-3.52-4.53-8.18-8.03-12.8-11.37-13.87-10-29.44-17.49-43.76-26.82-2.62-1.69-5.28-2.09-7.33.69-1.15 1.56-1.72 3.61-2.21 5.47-.18.64-1.03 3.53-1.5 5.54l-.58-.72c-1.08-1.67-2.06-3.44-3.07-5.17-1.95-3.35-3.88-7.01-6.7-9.7-.53-.52-1.34-.85-2.09-.63zm-.14 4.58c4.13 4.6 5.97 10.9 10.03 15.56 1.31 1.5 3.27 2.8 5.13 1.33 2.45-1.93 2.42-7.32 3.2-10.05.25-.92.8-3.77 1.82-3.95.72-.14 3.51 2.33 4.14 2.74 3.52 2.27 7.1 4.38 10.7 6.5 7.8 4.56 15.67 8.93 23.3 13.76 8.82 5.55 18.04 11.88 22.47 21.65 2.32 5.13 3.73 10.64 6.23 15.7a73.42 73.42 0 0 0 7.3 11.45c10.94 14.5 28.3 28.03 28.54 47.78.18 14.83-7.77 28.77-9.75 43.23a26 26 0 0 1-1.72-6.91c-1-10.7 1.83-22.15-4.78-31.56-2.2-3.16-5.11-5.7-7.68-8.54-2.79-3.07-4.77-6.64-7.08-10.06-3.49-5.16-8.09-9.87-14.35-10.67.28-1.75.53-3.49.6-5.16.7-13.56-11.29-23.39-21.25-30.55-12.83-9.27-26.69-17.97-43-18.55-7.93-.29-15.87.97-23.67 2.14-7.17 1.09-14.56 2.48-20.9 6.2-9.82 5.78-14.66 15.94-16.08 26.72-6-4.07-12.6-5.75-19.24-5.53.75-6.7 3.43-12.5 6.94-18.63 2.23-3.89 4.4-7.76 6.1-11.9 2.08-4.98 3.7-10.14 6.55-14.79 9.85-16.03 29.38-22.58 46.45-27.91zm-57.6 13.42c4.79 0 10 1.07 13.72 4.24a45.1 45.1 0 0 0-5.66 7c-2.5 3.84-4.2 8.08-5.84 12.35-20.95 4.67-41.37 13.14-58.36 26.36a94 94 0 0 0-22.63 24.95 55.37 55.37 0 0 0-6.78 15.57c-1.39 5.73-1.11 11.3-.66 17.1.28 3.39.36 6.7-.06 10.06-.4 3.34-1.07 6.61-.79 9.99.45 5.54 2.98 10.55 5.6 15.34-.2.39-.42.76-.62 1.14a209.55 209.55 0 0 0-27.95 35.46 146.17 146.17 0 0 0-6.3 11.1c-1.74-6.42-5.09-12.4-7.96-18.4-1.9-3.99-3.78-8.13-4.55-12.54-.95-5.44.12-11.1 1.57-16.37 1.87-6.86 6.62-12.99 11.15-18.34 2.02-2.38 1.64-3.43.87-6.66-1.08-4.44-1.91-9.03-1.74-13.65.2-6.18 2.83-11 7.37-15.1 2.72-2.47 5.83-4.43 8.17-7.3 2.9-3.54 4.63-7.85 6.29-12.08 2.06-5.23 4.11-10.23 7.77-14.59a97.35 97.35 0 0 1 11.89-11.65c8.82-7.37 18.38-13.9 27.85-20.44 9.95-6.89 20.2-13.43 31.14-18.64 5.31-2.51 10.5-4.9 16.5-4.9zm.14 28.57c-1.8 4.04-3.97 7.89-6.15 11.76-3.63 6.44-6.25 12.75-6.84 19.85-11.44 1.73-22.56 8.48-30.28 17.03-8.47 9.41-14.26 20.68-19.84 31.94-4.95 10-10.69 19.5-16 29.28-1.7-3.22-3.16-6.54-3.66-10.15-.81-5.8 1.25-11.63.97-17.47-.26-5.52-1.17-10.97-.27-16.46.92-5.52 3.12-10.77 5.91-15.59 10.82-18.72 28.91-31.97 48.33-40.78a154.97 154.97 0 0 1 27.83-9.41zm149.7 3.18c7.64.3 15.08 2.51 20.74 8.2 5.91 5.95 8.87 14.09 10.7 22.08 1.33 5.77 1.44 12.25 3.56 17.82.72 1.93 1.71 2.86 3.56 3.37 2.7.73 5 2 7.33 3.6 20.15 13.95 32.1 39.8 35.7 63.3 1.29 8.45 1.8 16.9 4.2 25.17 2.27 7.82 5.37 15.4 7.1 23.4 1.71 7.97 1.77 16.94-2.12 24.3-3.06 5.81-7.48 8.05-13.28 10.2-10.47 3.92-22.45 5.93-29.8 15.04-3.85 4.79-6.23 10.5-9.71 15.5-3.94 5.72-9.3 7.66-15.92 6.79a63.83 63.83 0 0 0 3.13-30.3c5.18-3.2 10.4-6.35 14.89-10.48 12.26-11.32 13.47-29.5 11.72-45.13-1.9-16.89-8.97-33.28-23.02-43.43a1.83 1.83 0 0 0-1.07-.35c2.72-9.28 6.45-18.53 7.17-27.84 1.53-19.6-12.08-33.72-23.83-47.6-6.93-8.15-12.27-16.38-15.92-26.5a95.54 95.54 0 0 0-2.75-6.86c2.52-.27 5.09-.38 7.63-.28zm-83.37 2.8c15.12-.58 27.9 5.61 40.1 13.96 9.31 6.36 23.46 15.14 24.74 27.6.56 5.46-1.14 11.22-3.01 16.26a45.51 45.51 0 0 1-5.19 10.38c.04-1.73.1-3.45.15-5.14.2-10.68-.32-21.28-6.26-30.56-14.03-21.87-42.43-26.28-65.7-18.86-10.67 3.42-23.27 8.94-24.59 21.3a39.81 39.81 0 0 0-10.87 3.57c-.43.2-.81.45-1.24.66-.3-11.46 3.06-23.8 12.87-30.46 5.62-3.82 12.41-5.27 19.01-6.36 6.59-1.07 13.28-2.1 19.99-2.36zm4.74 14.46a52.9 52.9 0 0 1 17.31 2.19c11.3 3.44 21.62 11.08 26.87 21.83 4.29 8.74 3.67 18.93 3.47 28.4-.16 5.87-.27 11.94.56 17.81-9.02-12.11-18.91-24.9-35.5-22.3-.55.07-.9.32-1.17.64a72.44 72.44 0 0 0-2.78-5.37c-8.29-14.04-25.62-21.72-41.43-23.2a46.62 46.62 0 0 0-7.38-.06c1.85-10.18 13.86-14.4 22.8-17.06a69.18 69.18 0 0 1 17.25-2.88zm-80.91 15.12c7.14-.3 14.29 1.63 20.05 6.14-.08 1.74-.05 3.47.04 5.22-6.7-4.33-15.38-3.97-22.74-.73-10.4 4.58-16.67 14.96-22.51 24.2-6.7 10.6-14.64 20.19-18.44 32.3-3.64 11.56-4.69 23.74-8.6 35.25-1.86 5.51-4.17 10.93-4.6 16.81-.38 5.48.84 10.97 2.66 16.1a142.47 142.47 0 0 0 16.4 31.88c3.29 4.86 7.1 9.37 12.05 12.6 5.45 3.59 11.75 5.55 17.72 8.12 9.44 4.07 17.17 10.79 25.59 16.5-4.57 1.41-9.1 2.31-14.15 1.85-10-.93-19.45-5.32-28.45-9.4-9.85-4.45-20.05-9.42-27.17-17.83-6.65-7.84-8.9-18.02-11.07-27.8-1.05-4.72-2.09-9.47-3.6-14.1-1.53-4.64-3.71-9-5.7-13.45-4.7-10.55-4.3-21.24-.36-32.01a78.8 78.8 0 0 1 4.01-9l.55-.58c.52-.53.67-1.11.62-1.69 3.71-6.96 8.07-13.63 11.77-20.57 5.72-10.7 10.47-21.93 16.98-32.22 6.48-10.24 15.02-19.88 26.4-24.73a35.9 35.9 0 0 1 12.55-2.86zm43.71 9.01c15.47-.03 34.06 7.43 42.17 21.16 6.76 11.49 9.06 25.1 15.03 36.96a35.7 35.7 0 0 0-7.2-2.1c-2.4-12-13.4-19.3-23.5-24.79-6.13-3.35-12.5-6.8-19.53-7.73-7.48-.96-14.92 1.24-22.04 3.3a259.2 259.2 0 0 0-21.78 7.14c-6.34 2.44-13.27 5.86-16.79 12-3.47 6.06-1.57 12.1-.3 18.45 1.12 5.56 1.07 11.2.97 16.88-3.44-3.57-7.69-6.18-11.8-9.04-6.42-4.47-11.3-10.57-7.51-18.64 3.65-7.8 11.88-11.7 18.55-16.45 6.04-4.3 11.16-9.67 16.2-15.05 10.4-11.11 21.27-22.03 37.53-22.09zm-21.94 2.08c-.39.24-.75.46-1.11.71a.56.56 0 0 0-.16-.13c.4-.22.85-.4 1.27-.58zm-11.66 1.36c2.41.14 4.76.78 6.92 2.05a107.51 107.51 0 0 0-10.3 9.71c-5.84 6.11-11.4 12.62-18.23 17.7-6.9 5.13-15.12 8.95-19.73 16.55-4.19 6.91-4 15.02 1.51 21.1a34.53 34.53 0 0 0 6.4 5.3c-1.58 8.9-4.23 17.65-4.44 26.74-.11 4.52.46 9.15 2.36 13.3 2.37 5.22 6.74 9.36 10.74 13.34a77.85 77.85 0 0 1 12.21 15.4c3.18 5.27 6.13 10.7 9.78 15.65a46.95 46.95 0 0 0 25.48 17.55 48.11 48.11 0 0 0 33.8-2.92c.63-.32.98-.79 1.09-1.3 2.8 1.4 5.75 2.38 8.88 2.83-4.93 7.5-10.28 15.4-17.88 20.4-8.77 5.79-18.88 5.33-28.22 1.08-10.17-4.65-18.31-12.53-27.78-18.34-9.83-6.1-22.41-7.99-30.82-16.33-7.72-7.68-13.1-18.44-17.66-28.23-4.74-10.1-8.62-20.38-5.3-31.53 1.51-5.05 3.58-9.9 4.93-15.03 1.37-5.14 2.35-10.38 3.41-15.58 2.28-11.04 5.4-21.1 11.73-30.52 3.44-5.1 7-10.13 10.28-15.33 3.29-5.2 6.58-10.45 10.88-14.87 4.95-5.07 12.73-9.15 19.96-8.72zm133.72 12.17c6.53.59 10.36 6.68 13.6 11.8 3.42 5.37 7.91 9.42 11.87 14.35 7.07 8.77 4.16 20.07 5.05 30.4.84 9.62 6.14 16.58 10.8 24.67 2.34 4.05 4.44 8.6 3.62 13.4-1.16 6.93-7.84 11.55-13.27 15.2-6.08 4.08-12.53 7.6-18.82 11.34-1.77-8.26-8.21-15.72-14.5-21.55.18-.67.35-1.34.56-2.03 1.75-5.49 4.82-10.27 7.44-15.37 3.57-6.94 6.45-15.15 3.68-22.87-2.92-8.15-11.48-12.5-16.92-18.77-.3-.35-.6-.74-.9-1.08-2.7-5.8-3.35-12.23-3.39-18.67 0 0 .02-.02.04 0 5.35-5.16 9.17-13 11.14-20.82zm-98.74 12.1c6.83-.42 12.95 2.08 18.9 5.18 9.81 5 21.92 11.24 25.14 22.61-3.16-.13-6.33.2-9.45 1.18-.16.04-.29.03-.45.07-.71.24-1.44.54-2.13.9-.32.14-.67.27-1 .44l-.06-.03c-8.11-4.42-17.19-4.26-26.07-2.8-8.75 1.42-18.97 2.91-25.9 8.94-3.41 2.95-5.89 6.82-8.2 10.64-2.75 4.52-5.5 9.12-7.38 14.1-3.52 9.3-2.3 19.05-.24 28.54l.08.31c-10.9-4.82-13.31-18.87-13.33-29.69-.01-6.1.39-12.21-.12-18.33-.47-5.51-2.93-11.19-2.56-16.7.47-7.34 7.73-11.51 13.77-14.13 6.36-2.75 13.15-4.77 19.79-6.76 6.22-1.86 12.7-4.07 19.21-4.47zm52.73.02c15.27-.11 24.7 16.88 32.85 27.49a62.3 62.3 0 0 0 8 8.8c2.93 2.61 6.2 4.94 8.7 8 5.75 7.1 2.96 16.21-.81 23.54-4 7.77-7.9 14.81-9.65 23.48-1.68 8.33-2.43 17.29-7.1 24.65-4.74 7.49-12.57 8.98-20.2 12.11a31.23 31.23 0 0 0-8.3 5c-3.37 2.84-6.22 6.38-10.05 8.68-13.64 8.13-26.52-1.07-35.75-11.32 7.98 4.36 15.1 13.04 24.49 9.08 2.99-1.26 5.64-3.13 8.58-4.52 3.57-1.71 7.08-3.33 10.38-5.55a51.1 51.1 0 0 0 15.29-15.8c4.2-7 7.11-15.12 9.56-22.89a137.1 137.1 0 0 0 5.43-24.35c.92-7.37-.88-13.08-5.64-18.74a70.28 70.28 0 0 0-13.88-12.6c-.56-.37-1.1-.7-1.66-1.05-6.8-10.22-9.38-22.49-14.03-33.78.22.03.44.06.66.03a21.4 21.4 0 0 1 3.13-.26zm-39.33 30.93c4.27-.16 8.52.3 12.49 1.86-9.26.02-18.87 2.62-26.78 6.03-6.5 2.81-12.21 7.24-15.16 13.82-3.06 6.82-3 14.72-2.44 22.05.98 13.11 3.82 29.85 14.83 38.52 5.8 4.57 13.32 5.52 20.38 3.83 3.45-.85 6.69-2.13 8.99-4.92 2.22-2.66 3.34-6.07 4.93-9.12 2.04.02 4.06.47 6.09.52 3 .07 5.17-.84 7.5-2.7 2.54-2 4.58-4.59 6.6-7.07 1.5-1.89 3.03-3.83 4.42-5.86 1.12 4.83 1.83 9.55-.15 14.76a21.68 21.68 0 0 1-11.35 11.88c-5.25 2.32-11.4 1.93-16.98 2.3-4.5.3-8.86.86-13 2.74-5.24 2.29-10.65 4.54-16.42 4.99-13.63 1.05-22.34-10.01-26.28-21.82a136.58 136.58 0 0 1-4.28-17.03c-1.18-6.06-1.97-12.38-.65-18.5 1.45-6.67 5.17-12.65 8.7-18.4 3.9-6.38 8.23-11.35 15.56-13.65 6-1.9 12.48-3.16 18.73-3.9a50.8 50.8 0 0 1 4.27-.33zm22.73 2.16c.06.07.18.15.62.25 2.5.6 5.17 1.1 7.71 1.36 1.25.12 2.52.02 3.78.24 2.27.36 2.78 1.58 3.44 3.6 1.82 5.57 3.3 10.54 6.37 15.65 2.55 4.24 6.08 8.17 8.26 12.63 2.56 5.24-2.06 7.63-6.4 9 .02-.92 0-1.88-.11-2.82a13.5 13.5 0 0 0-3.41-7.67c-.03-.19-.02-.31-.08-.49-1.19-3.22.03-5.45.38-8.64.35-3.24-.75-6.43-2.33-9.22-3.18-5.6-8.62-9.6-14.57-11.87a32.74 32.74 0 0 0-5.22-1.5l.19-.1c.44-.17.92-.29 1.37-.42zm18.92 1.62c1.65.73 3.24 1.56 4.82 2.52.41.6.96.86 1.55.94 4.3 2.82 8.2 6.23 11.7 9.97 2.13 2.27 4.3 4.66 5.65 7.48 1.62 3.34 1.44 7.08 1.02 10.67-1.83 14.76-6.28 30.45-13.46 43.5a45.76 45.76 0 0 1-14.55 15.82c-5.1 3.45-10.92 5.93-16.38 8.8-2.67 1.41-4.85 2.32-7.79 1.28-2.93-1-5.6-2.83-8.2-4.5-2.95-1.93-5.95-4.05-9.19-5.54 3.34-1.39 6.6-3.05 10.14-3.77 8.76-1.81 18.26.1 26.46-4.07a25.9 25.9 0 0 0 14-21.85c.17-4.62-1.12-9.28-2.33-13.8a12 12 0 0 0 .57-1.71c.72-.14 1.47-.26 1.96-.4 1.9-.57 3.85-1.34 5.53-2.38 2.96-1.82 5.03-4.74 4.9-8.3-.16-3.47-2.34-6.32-4.23-9.05-2.83-4.07-5.66-8.26-7.88-12.7a39.1 39.1 0 0 1-2.85-7.54c-.48-1.78-.66-3.7-1.44-5.37zm-29.07 2.4c3.1 0 6.1.33 8.94 1.02 6.28 1.51 12.35 5.23 15.62 10.93a11.56 11.56 0 0 1 1.32 9.1 15.3 15.3 0 0 0-.46 3.54 25.27 25.27 0 0 0-5.75-1.87 33.7 33.7 0 0 0-3.12-8.98c-1.16-2.26-2.67-4.5-4.75-5.96-2.32-1.64-5.49-1.97-8.27-1.84-3.42.19-6.73 1.08-10 2.07a48.6 48.6 0 0 0-9.52 3.74c-5.45 3.04-8.33 7.9-10.05 13.75a23.7 23.7 0 0 0-1.03 6.2c-2.88 2.4-6.36 4.98-6.44 9.05-.07 4.24 1.7 8.93 3.24 12.86 3.3 8.41 9.55 20.07 20.4 17.27 3.15-.82 6.09-2.65 9.18-3.85-.41.9-.8 1.77-1.27 2.64-1.75 3.33-4.17 5-7.78 5.94-5.7 1.5-11.9 1.03-16.77-2.5-9.97-7.27-12.5-22.78-13.54-34.2-.54-6.17-.82-12.72.92-18.75 1.85-6.34 6.38-10.75 12.18-13.64 7.73-3.86 17.68-6.58 26.95-6.53zm114.96 6.98c11.84 8.56 18.14 22.27 20.44 36.39 2.47 15.1 2.1 34.18-9.89 45.27-5.96 5.5-13.37 9.14-20.03 13.73a100.29 100.29 0 0 0-18.4 16.15c-5.4 6.07-9.23 13.1-14.21 19.42-5.43 6.9-13.62 8.1-21.8 9.3a388.5 388.5 0 0 1-30.73 3.26c-3.24.22-8.12 1.32-10.88.25a15.85 15.85 0 0 1-3.05-1.75c1.83-3.31 2.78-7.36 6.08-9.48 3.35-2.12 7.18-3.44 10.57-5.57 7.4-4.69 14.32-10.2 21.37-15.38l22.2-16.28c6.58-4.84 13.98-9.77 17.55-17.43a19.52 19.52 0 0 0 1.9-8.15c6.8-4.12 13.83-7.89 20.44-12.32 5.35-3.6 11.15-7.71 14-13.68 2.22-4.72 2.12-9.85.33-14.68-1.89-5.06-4.96-9.46-7.67-14-.25-5.04.54-10.07 1.78-15.05zm-111.32 3.21c3.07-.14 5.95.62 7.88 3.4a25 25 0 0 1 3.7 8.52 49.8 49.8 0 0 0-4.75-.08c-.02-.01-.04.01-.04.01-.2.01-.4.06-.62.13-1.85-1.5-3.4-3.38-5.18-4.96-3.29-2.87-7.32-4.62-11.7-3.32-3.53 1.06-6.5 3.51-8.91 6.2-3.44 3.83-4.69 8.23-5.45 13.2-.1.75-.24 1.51-.35 2.25-2.42-2.95-.14-9.06 1.04-12 1.18-2.95 2.8-5.38 5.48-7.2 3-2 6.48-3.12 9.88-4.16 2.69-.82 5.95-1.85 9.02-1.99zm-94.11 3.43c3.46 2.3 6.78 4.72 9.13 8.2.26.4.62.65 1 .81.1 13.84 3.54 30.64 18.57 35.23.11.04.2.02.28.04 4.19 16.24 12.25 34.66 31.73 33.96a34 34 0 0 0 6.58-.94c4.52 5.85 9.8 11.65 15.95 15.65-18.08 8.34-40.56 2.73-52.6-13.14-6.84-9.01-11.1-19.73-18.89-28.1-7.16-7.71-15.4-13.86-15.78-25.2-.3-8.98 2.31-17.73 4.03-26.5zm86.38 4.21c3.28-.04 5.82 2.57 8.1 4.84.59.6 1.2 1.2 1.8 1.77-6.4 3.98-12.38 9.23-16.23 15.63-1.06 1.69-2.56 4.32-1.52 6.4.32.64.76.97 1.26 1.2-.6.22-1.18.44-1.65.66-1.18.5-2.87 1.06-4.16.85-1.7-.25-1.79-2.77-1.88-4.18-.24-3.72.6-7.46 1.17-11.1.63-4.1 1.61-7.9 4.5-11 1.95-2.1 4.31-4.2 7.15-4.88.5-.12.99-.18 1.46-.19zm-144.47.22c-2.32 6.82-3.53 13.95-2.64 21.2.67 5.47 2.78 10.4 5.08 15.34a90.76 90.76 0 0 1 5.9 16.13c2.53 10.18 3.95 20.86 8.97 30.21 5.45 10.16 15 16.87 25.06 21.99 10.55 5.35 22.08 10.93 33.79 13.1 4.04.73 8.17 1.05 12.26.59 4.08 2.07 8.42 3.52 12.37 5.81 6.66 3.88 12.26 9.26 18.84 13.22 5.69 3.42 12.12 5.6 18.8 4.55a23.96 23.96 0 0 0 14.06-7.77c1.1.67 2.2 1.37 3.3 2 2.7 1.57 5.93.8 8.97.62 9.51-.54 19.02-1.42 28.45-2.62 6.4-.81 13.61-1.3 19.93-3.54-.94 4.9-4.08 9.5-7.42 13.01-5.12 5.33-12.45 11.29-19.8 12.94-5.9 1.34-11.71 1.63-16.82 5.15-5.9 4.05-11.08 8.94-16.82 13.22-6.53 4.88-13.45 7.6-21.57 8.14-8.04.52-15.33 1.13-22.97 3.89-7.4 2.67-14.46 4.86-22.43 4.59-7.66-.27-15.22-2.32-22.24-5.33-3.33-1.4-6.33-3.3-9.57-4.86-1.4-.68-1.35-.55-1.6-2.04-.2-1.27-.26-2.56-.4-3.83-.37-3.46-.62-6.1-4.58-5.81-2.43.18-5.02.05-7.45-.23-3.3-.42-5.42-2.52-8-4.5-5.5-4.13-10.83-8.4-16.33-12.52-12.3-9.19-31.19-18.89-32.15-36.38-.18-3.15.6-6.28.27-9.46-.41-4-2.8-6.22-5.62-8.8a35.75 35.75 0 0 1-10.56-18.42c-4.1-17.4 3.09-35.8 11.9-50.6a203.35 203.35 0 0 1 21.02-29zm158.13 9.14c1.45.68 3.4 1.35 3.94 2.52.44.94-.26 2.04-.74 2.83-.87 1.5-1.79 2.9-2.42 4.5-1.29 3.17-2.13 7.96-5.41 9.75-4.5 2.47-8.38-1.37-12.42-2.67-.05-.03-.09-.02-.14-.05.33-.65.6-1.33 1-1.97 3.84-6.23 9.85-11.23 16.2-14.91zm11.6.22c3.89 1.17 7.13 3.45 8.16 7.82.58 2.54.38 5.49-.6 7.93-1.1 2.75-3.07 5.23-4.8 7.59a76.62 76.62 0 0 1-5.88 7.23c-1.77 1.87-3.83 3.99-6.52 4.08-.45.03-.92.02-1.4-.03a14.4 14.4 0 0 0 5.85-6.58c2.25-5.26 1.2-11.4 2.28-16.95.65-3.35 3.05-7.47 2.92-11.09zm-47.44 9.09a7.38 7.38 0 0 0 3.3 3.73c.18.1.3.1.43.12a24.81 24.81 0 0 0 0 6.4c.67 4.63 3.42 7.38 8.24 6.56 2.56-.44 4.6-1.57 6.79-2.74-.33.48-.61.95-.94 1.43-2.12 3.34-3.28 7.53 0 10.59a8.33 8.33 0 0 0 3.08 1.8c-.19.1-.4.17-.6.26-3.4 1.54-7.37 3.48-10.94 1.35-3.59-2.14-5.9-6.45-7.68-10.09a53.4 53.4 0 0 1-4.39-13.06c-.28-1.42-.47-2.61.34-3.84.6-.92 1.46-1.74 2.37-2.51zm39.9 4.02c-.33 3.17-.36 6.33-.7 9.5-.44 4.01-2.44 7.09-6.05 8.92-2.98 1.53-6.96 2.29-10.22 1.5-6.89-1.66-.02-5.59.39-9.43.16.07.3.16.5.21 3.97 1.26 8.71.73 11.72-2.34 2.26-2.34 3.26-5.38 4.36-8.36zm56.34 14.7c7.54 7.3 15.1 17.16 10.36 27.65-3.32 7.36-10.95 12.09-17.25 16.7-6.64 4.88-13.27 9.74-19.93 14.6-6.64 4.89-13.2 9.96-20.04 14.58a69.73 69.73 0 0 1-9.82 5.56c-2.77 1.29-5.2 2.68-6.94 5.27-1.78 2.6-2.55 5.7-4.33 8.3a19.3 19.3 0 0 1-8.86 6.99c-6.85 2.73-13.81.8-19.9-2.86-6.57-3.95-12.19-9.32-18.83-13.21-2.42-1.47-5-2.56-7.6-3.67 1.48-.48 2.96-1.04 4.43-1.56.9.55 1.85 1.12 2.81 1.64 10.13 5.43 21.84 7.77 32.52 2.4 10.11-5.1 16.9-15.02 22.94-24.25.37-.55.41-1.06.3-1.54 1.44-.04 2.92-.15 4.43-.42a24.13 24.13 0 0 0 9.87-4.2c4.13-2.96 7.24-7.15 11.5-9.9 6.95-4.5 15.7-4.96 22.06-10.55 6.94-6.09 9.32-15.47 10.93-24.18.43-2.44.88-4.9 1.35-7.35zm39.69 49.55c1.45 12.63-1.41 26.52-8.16 37.2-4.33 6.8-9.24 13.07-13.42 19.85a83.21 83.21 0 0 0-9.24 21.4c-2.12 7.45-4.55 15.73-12.4 18.93-5.74 2.36-12.35 1.79-18.37 1.31-6.25-.48-12.51-1-18.76-1.5-7.7-.6-15.42-1.55-22.57-4.4a1.87 1.87 0 0 0-.33-.94c4.44-3.32 8.58-7.08 13-10.44 3.6-2.75 6.75-4.72 11.19-5.64 3.77-.78 7.7-1.13 11.34-2.46 3.82-1.4 7.4-4.23 10.68-6.59a49.62 49.62 0 0 0 9.94-9.16c3.59-4.47 6.36-9.8 6.67-15.5.16-.1.33-.16.5-.26 7.49-4.5 11.06-13.24 16.23-19.92a97.38 97.38 0 0 1 20.6-19.77c1.02-.74 2.07-1.41 3.1-2.1zm-35.32 165.78a437.08 437.08 0 0 1-10.1 23.14c-2.46 5.12-6.07 9.7-9.67 15.32-.32-1.56-.49-1.92-.45-2.26 1.67-13.73-6.68-22.42-15.23-26.37-8.79-4.05-18.35-4.24-27.93-3.03-7.08.9-14.17 1.62-21.28 2.2-3.33.28-6.7.06-10.8.08l4.04 5.98c4.75 7 9.46 14.01 14.27 20.96 1.73 2.5 3.48 5.04 5.63 7.16 2 1.97 4.43 3.54 6.84 5.02 5.92 3.66 11.87 7.53 19.26 6.88 4.91-.43 9.78-1.37 14.46-2.06-1.34 5.1-32.53 36.57-37.28 37.05-.04-.65-.2-1.3-.1-1.92 1.89-10.81-6.48-24.73-17.46-28.48-9.07-3.1-18.22-5.14-27.88-3.5-4.44.75-8.89 1.62-13.37 2.05-4.99.5-10.02.72-15.04.72-3.11 0-6.22-.6-9.85-.98 5.19 8.3 11.55 15.16 15 23.8.57.73 2.3 1.26 2.28 1.7-.15 2.52 1.17 3.7 3.25 4.5.24.1.26.67.45.98 1.41 2.24 2.37 5.16 4.38 6.57 5.93 4.17 12.24 7.81 18.48 11.52 4.65 2.77 9.86 3.05 15.08 2.75 2.95-.16 5.88-.67 9.3-1.07-.9 1.43-1.29 2.27-1.88 2.95-3.57 4.13-5.96 10.7-13.63 6.54-1.02-.55-2.6-.04-3.9-.1-13.98-.47-23.9 6.43-30.76 17.83-3.26 5.44-4.64 12-7.73 17.57-3.29 5.92-2.02 12.23-2.68 18.3-.7 6.5.36 13.17.53 19.77.06 2.4-.23 4.8-.39 7.2-.2 3.11-.42 6.23-.66 9.62 5.85-3.44 9.4-9.25 14.7-10.97 2.53-1.37 4.2-2.29 5.9-3.18 4.61-2.44 9.22-4.9 13.86-7.3 2.12-1.1 4.59-1.7 6.4-3.16 4.12-3.3 7.85-7.07 11.87-10.48 12.99-11.04 19-35.7 4.58-49.03-.58-.52-.88-2.22-.48-2.75 2.52-3.29 5.28-6.41 7.9-9.55.45.3.63.36.63.43.01.52.03 1.05-.03 1.57-1 8.49.31 16.53 5.57 23.45 5.02 6.61 10.53 12.8 18.54 16.02l14.76 5.96c3.72 1.5 7.4 3.07 11.13 4.54 3.61 1.43 7.25 2.79 11.88 4.57-1.42-3.63-2.88-6.13-3.35-8.8-.95-5.58-1.3-11.25-2.02-16.87-1.11-8.63-2.04-17.22-5.15-25.54-4.65-12.43-12.39-20.71-26.04-22.2-3.14-.35-6.37.04-10.86.11l29.48-28.21c.06 2.8-.09 4.37.15 5.88 1.92 11.9 7.46 21.48 17.67 28.33 5.77 3.86 11.12 8.35 16.7 12.5 2.27 1.69 4.66 3.23 7.35 5.08.22-5.62.27-10.38.64-15.12.36-4.56.5-9.26 1.76-13.59 2.02-6.9 1.3-13.72.41-20.51-1.6-12.46-12.54-23.22-25.67-22.05-1.04.1-2.14-.37-3.7-.67 10.03-13.47 17.6-27.75 24.31-42.48a16.9 16.9 0 0 1-4.07-4.37zM294.1 651.8c-1.51-.02-2.99.1-4.36.52-.8.24-.35 4.43-.57 6.8-1.35 14.33 5.18 25.19 15.97 33.4 7.32 5.58 15.82 9.6 23.58 14.63 3.82 2.48 6.77 5.91 6.58 11.08.81-.73 1.64-1.37 2.34-2.11.82-.87 1.8-1.73 2.27-2.79 5.89-13 4.72-25.33-3.04-37.36-3.52-5.44-8.78-8.55-13.62-12.27-7.34-5.65-15.15-10.5-24.64-11.56a45.51 45.51 0 0 0-4.51-.34zm-17.02 42.83c-4.43-.04-8.96.59-13.62 2.08-8.9 2.88-15.22 8.7-21.4 15.46-7.51 8.2-11.9 19.21-22.82 25 1.15.74 1.83 1.37 2.63 1.67 8.57 3.24 17.37 6 25.72 9.75a58.1 58.1 0 0 0 33.58 4.4c16.52-2.59 28.72-11.38 36.8-26.07.78-1.41 3.26-2.68 4.94-2.66 11.3.1 22.34-1.61 33.18-4.46 6.85-1.8 13.45-4.58 20.16-6.92l-.48-2.5c-1.27.14-2.79-.11-3.79.49-15.5 9.28-32.8 10.73-50.22 11.54-1 .05-2.46-.56-2.98-1.34-2.11-3.15-3.71-6.64-5.91-9.71-2.3-3.21-4.49-7.28-7.75-8.88-9.02-4.44-18.3-7.77-28.04-7.85zm59.4 30.9c-7.66 5.6-17.06 7.22-23.15 14.44-1.3 1.54-3.12 2.64-4.7 3.94-5.5 4.49-9.7 9.97-11.4 16.9-1.42 5.74-2.3 11.61-3.22 17.46-1.4 8.9 2.14 16.15 7.6 22.78 6.1-6.6 12.02-12.48 17.3-18.89 4.76-5.8 9.33-11.87 13.03-18.37 3.26-5.71 5.3-12.13 7.65-18.33 2.65-7-.3-13.16-3.1-19.93z"/>
</svg>
