<svg width="200" height="200" viewBox="0 0 379.8 200" fill="none" xmlns="http://www.w3.org/2000/svg">
  <path d="M157.5-73a33 33 0 0 0-4-.8c-6-.9-12-.2-18 .5-17.7 2.4-34.9 7.8-52.5 10.9-3.2.6-5.5 2.1-5 5.6.2 2 1.2 3.9 2.2 5.6l2.9 5.1h-1l-6-1.7c-4-1.1-8-2.5-12.1-2.5-.8 0-1.7.3-2 1-7.6 13-15.7 27.6-17.2 42.8-5.8.2-11.2 3-15.6 6.6a40.2 40.2 0 0 0-11 16.9A257.4 257.4 0 0 0 5.5 64C3.8 72.3 2 80.5 1 88.8a69 69 0 0 0 .2 24.4c1.8 7.6 6.4 14.3 7.5 22.1.8 5-1 10.2-1 15.3.4 12.6 10.6 20.5 20.8 26.8A53.3 53.3 0 0 0 40 210.6C50.7 223.4 69.2 223 81.8 233l.7.4A73.4 73.4 0 0 0 98 258.6a49 49 0 0 0 18.8 12.1c3.3 1.2 6.9 2 10.4 2.2 2.2.1 4.4-.2 6.6 0 3 0 4.8 1.3 6.6 3.4a35 35 0 0 0 19.3 12.4c8.5 2 17.1 1.2 25.6 0 8.9-1.1 17.7-2.3 26.5-3 6.5-.7 14.6-.1 20-4a47.3 47.3 0 0 0 6.6-5.5l1.5 1.1c1.5 1.3 3.1 3 5 4 2.7 1.4 6-.2 8.8-1a65.8 65.8 0 0 0 39-25.5c5-7.9 8.1-16.2 14.8-23.1 5.8-6 11.2-11.6 14-19.5l.7-2.5c15.7-4.6 28.4-16.9 41-26.7 10.5-8.4 19.4-18.3 14.2-32.3-3.1-8.5-8.4-15.8-11-24.6-2.5-8.8-3.5-17.8-5-26.8a63 63 0 0 0-3.2-11.5c5-3.2 9-7.4 10-13.4 1-5.4-.8-11-2-16.2a33 33 0 0 1-1-18.2c1.5-5 4.6-9.5 7-14.1 2.4-4.5 5.4-9.3 6.8-14.2 2-6.7-.2-14.2-3.8-20-9.5-15.5-28-20.4-42.5-30.2-7.6-5.2-14.2-11.6-22-16.6-6.7-4.4-14-8.1-21.7-11a107 107 0 0 0-37.9-7.4 58 58 0 0 0-17.5 2.7l-1.4.7-.7.3-1.2-.4c-1.2-.7-2.2-1.5-3.3-2.3l-9-6.4a54.8 54.8 0 0 0-28.5-11c-13.2-.4-24 7.3-32 17zM84-41.4c2 .2 4.4-.2 4.8-2.6.5-3.1-3.4-7-4.8-9.6-.5-.9-2.1-3.4-1.5-4.2.5-.6 4.4-.8 5.1-.9 4.4-.8 8.6-1.7 12.9-2.7 9.2-2 18.3-4.4 27.6-6.2 10.6-2 22.2-3.8 32.6.3 5.5 2.1 10.5 5.2 16 7.2 4.5 1.6 9.2 2.6 13.8 3.3 18.8 3 41.7 1 56.1 15.3 10.8 10.8 14.9 26.7 23.8 38.7-2.3-1-4.4-2.2-6.3-3.9-8.5-7.2-14.6-17.6-26.4-20-4-.7-8-.5-12-.8-4.3-.3-8.4-1.6-12.6-2.5-6.4-1.4-13.2-1.6-18.6 2.2-1-1.5-2-3-3.2-4.3-9.3-10.4-25.4-9.3-38.2-7.6-16.4 2.1-33.2 5.4-46 16.4A135.5 135.5 0 0 0 90.7-5.1C86 .7 81.4 6.9 79.3 14c-3.3 11.2.3 22 7 31a33.6 33.6 0 0 0-18.6 9.4 48 48 0 0 1-8.1-18.6 84.9 84.9 0 0 0-4-13c-2-5.2-4.4-10.1-5.6-15.5-4-18.8 6-37.3 15-53.1 6.5.5 12.4 3.8 18.9 4.4zM330.9 65a99.2 99.2 0 0 0-2.4 24.8c.3 8.2 2.5 16 3.2 24.2.9 9-4.5 15.5-9.8 22.1a398.1 398.1 0 0 1-21 24c-2.3 2.4-5.2 6.6-8 7.8-1.1.4-2.4.6-3.6.8-1-3.7-3.2-7.4-2.2-11.2 1-4 3-7.6 4-11.5 2.2-8.7 3.5-17.6 5.1-26.4l5.1-27.5c1.5-8.2 3.6-17 .8-25.1-1-3-2.5-5.4-4.4-7.4 2.2-7.8 4.8-15.5 6.6-23.4 1.5-6.4 3-13.5.8-19.9-1.7-5-5.5-8.7-10.3-11-5.1-2.4-10.6-3.5-16-5a53 53 0 0 1-9.4-12.3c15.1-2 29.8 3.7 41.7 12.5 12.7 9.4 26.2 23.8 25 40.3-.5 8.3-3.5 16.1-5.2 24.2zM77.2 167.6v-.8a2 2 0 0 0-.8-1.7c-2.2-7.7-3.7-15.7-5.9-23.4-3.3-11.9-7.8-23.5-10.3-35.6a61.3 61.3 0 0 1 2.2-36.7A33.8 33.8 0 0 1 89.5 49l3.8 3.8a25 25 0 0 0-17.8 15.4c-4.5 10.6-1.8 22.7.4 33.6 2.5 12.5 3.4 25.1 9.3 36.7 5.5 11 13.5 20.8 18.8 32 2.6 5.4 4.7 11 8.7 15.6a42 42 0 0 0 13.6 10 152 152 0 0 0 35.4 12c6 1.4 12.1 2 18.2 1 6.7-1.2 13-4.2 19.3-6.5 10.1-3.6 20.8-4 31.3-5.7-2.4 4.2-5.2 8-9.4 11.3-8.2 6.3-18.6 9.6-28.3 13-10.7 3.5-22 7-33.5 5.8a65.9 65.9 0 0 1-28.5-12.8c-4.2-2.7-8.4-5.5-12.8-7.8-4.6-2.4-9.4-4-14-6a42.4 42.4 0 0 1-23.4-23.3c-1.4-3-2.5-6.3-3.4-9.5zM54 91.6a135 135 0 0 0 7.9 37.4c3.4 10.8 6 21.8 9 32.8a33.2 33.2 0 0 1-10.2-5c-4.7-3.7-7.4-9.4-11.8-13.5-4.2-4-8.8-7.3-12-12a46.8 46.8 0 0 1-6.8-15.6 103 103 0 0 1 7.3-64 156 156 0 0 1 14.4-26.3c1.5 4.2 2.6 8.5 3.8 13a48.3 48.3 0 0 0 9 19.4A53 53 0 0 0 54 91.5ZM215.6-25c6.5 1.6 12.8 1.4 19.4 2.3 11.7 1.5 17.6 12 25.7 19 7.6 6.4 16.6 7.8 26 10.5 4.7 1.4 9.6 3.3 12.4 7.4 4.1 6 2.4 14 .9 20.5-1.7 7.3-4 14.4-6.1 21.5a48.3 48.3 0 0 0-26.6-5.7l-1-2c-2.6-5.2-3.7-10.9-5.4-16.4-2.3-7.7-6-15.7-13.7-19.5-8.1-4-17.7-1.2-26.4-2l-1.4-.2a46.5 46.5 0 0 1-16-11.4c.3-7.5-2.4-16-6.6-23.1 5.4-4.2 12.7-2.4 18.8-.9zm-43 230.1c-11.3-.3-23.2-4.4-33.7-8.5-10.9-4-21.2-9-26.7-19.5-2.5-4.8-4.4-9.8-7.1-14.5-2.7-4.8-5.7-9.3-8.6-14A82.7 82.7 0 0 1 83.4 118c-1.1-6.2-2-12.4-3.3-18.5-1.2-6.2-2.5-12.4-2.4-18.6.1-9.6 5.3-21.4 15.6-23.8-.7 4.8-.8 9.6-.8 14.4 0 8.6.4 17.3-1.1 25.8-1.6 8.6-5 17.2-3 26 1.7 8 7.7 14 16.3 14.5 2.9.3 5.8 0 8.6-.5 5.2 7.6 9.5 16 16 22.8a32 32 0 0 0 11.3 8.2c5.6 2.2 11.9 2.2 17.8 2.3 7 .1 13.6 1 20.3 2.8 6.2 1.7 12.4 3.6 18.7 4.7a50.4 50.4 0 0 0 55.6-30.7c.2-.7.1-1.3-.1-1.7 3-1 6-2.3 8.7-4.2a67 67 0 0 1 1.2 27.6c-2.5 10.4-10.5 17.2-20.7 20.6-11 3.6-23 3.5-34.3 5.9-11.8 2.4-22.8 9.8-35.1 9.5zM94 52.7l.5-1.3-.3 1.3H94zm113.7-44c-15.5-2.6-32.3-5-43 8.4-.4.5-.4 1-.4 1.3l-6-2c-16.4-4.5-35 2-48.2 11.9-2 1.6-3.9 3.3-5.6 5.1-6-8.8.1-20.3 5-28.5a62.1 62.1 0 0 1 25.7-24.7 47 47 0 0 1 36.2-2.7c9.5 3.4 16.4 11.4 23 18.5 4.2 4.4 8.5 9 13.3 12.7zm-98 25.8c11.7-10.8 31.2-18.3 47.2-13.9 13.4 3.8 25 12.2 38 16.8a41 41 0 0 0-7 3.4c-10.4-7.1-24-4.8-35.6-1.8a61 61 0 0 0-20.4 8c-6.4 4.5-10.4 11.3-14.4 17.8-4 6.7-7.9 13.5-11.3 20.6-3.1 6.2-5.9 13.6-4.1 20.5 1.7 7 7.5 10 13 13.9 4.9 3.3 8.9 7.5 13 11.7-5.3-.2-10.4.9-15.6 1.6-8 1.2-16.1.1-19-8.5-3-8.3.5-16.9 2.1-25C97 92 97 84.5 97 77c-.1-15.5.3-31.2 12.6-42.6Zm93.3 5a69.3 69.3 0 0 1 27.6.3c3.6 1.4 6.2 4.3 8.4 7.3a125 125 0 0 1 21 41.5c2 7.1 2 14.6.4 21.8-1.4 6.1-4 12-6 18-1.1 2.9-2.1 5-5 6.4-3 1.3-6.4 1.8-9.6 2.4-3.6.6-7.4 1.2-11 2.3 1.6-3.3 2.9-6.8 5-9.9 5.4-7.4 14-12.7 17.2-21.5a25.8 25.8 0 0 0-5.1-25.9c-3.2-3.5-7.5-6-11.7-8.5l-.8-1.7c.4-.6 1-1.2 1.2-1.7 1-1.7 2-3.6 2.5-5.6 1-3.4.4-7-2.3-9.5-2.6-2.5-6.3-3-9.7-3.7a100 100 0 0 1-15.2-4c-2.6-.9-5.2-2-7.5-3.5-1.7-1-3.2-2.2-5-3a45 45 0 0 1 5.5-1.4zM248.3 147a46.2 46.2 0 0 1-49.4 27c-11.6-1.8-22.6-6.7-34.5-7.4-11-.7-21.7.5-30.2-7.6-6.7-6.4-11-14.7-16-22.3 4.3-.8 8.5-1.3 12.8-.4h1.4c10 10 24.7 20 39.5 12.9l.2-.2c14.9 9 34.3 17 48.5 2.9 1.7-1.6 3-3.4 4.4-5.3a73.4 73.4 0 0 0 23.3.4zM184 43.7a28.4 28.4 0 0 0-6.3 7.5l-.3.3-1 2.2c0 .3-.3.6-.4 1A41.5 41.5 0 0 0 154 71c-5.6 7.2-12.3 15.4-13.2 24.7a85.5 85.5 0 0 0 6 29.1 51 51 0 0 0 20.4 21.3l.3.2c-11.8 4-23.7-4.6-31.5-12.6-4.4-4.5-8.5-9.3-13.3-13.4-4.4-3.8-10.3-6.2-14-10.6-5-5.7-2.4-13.9.3-20 2.8-6.5 6.5-12.8 10.1-18.9 3.4-5.7 6.7-11.9 11.4-16.7a38 38 0 0 1 18-9.4c11.1-3.2 24.8-7 35.4-1zm.6 14a26.2 26.2 0 0 1 19.7-2.9 12 12 0 0 1 7.6 5.8 21 21 0 0 0 2.2 3c-2 .6-4 1.5-5.7 2.6-2.8-2-5.9-3.4-8.9-4.5-2.5-.8-5.2-1.4-7.9-1A14 14 0 0 0 184 65a43.4 43.4 0 0 0-6 8.5c-1.8 3-3.5 6.1-4.6 9.5-2 6-.6 11.6 2.3 17.1a24 24 0 0 0 3.6 5.3c-.4 3.8-1.2 8.1 1.7 11.2a38 38 0 0 0 11.7 7.2c8.6 4 21.7 8.1 28-1.5 1.7-2.8 2.6-6.2 4.1-9.3l1 2.9c1 3.6.4 6.6-1.7 9.8-3.2 5-8.3 9-14.5 9.9-12.8 1.6-25.9-8-35-15.8a53.2 53.2 0 0 1-12.7-14.4 22 22 0 0 1-.6-18.6 57.8 57.8 0 0 1 23.3-29.2zm16.9 48.1c.7.3 1.2.2 1.8 0a18 18 0 0 0-.8 1.7 8.7 8.7 0 0 1-2.5 3.5c-1.5 1-3.4-.8-4.5-1.8-2.8-2.5-4.9-5.9-7-9-2.6-3.4-4.5-7-4.6-11.2 0-3 .3-6.1 2-8.6 2.3-3.6 6.7-3.4 10.5-3.3h2.7c-2 7.5-2.8 15.5-1 23 .3 2 1 5 3.4 5.7zm1.8-4c0 .2.1 0 0 0zm-1-3a45.4 45.4 0 0 1 1.6-22.3c1.6-.5 3.6-1.3 4.8-.8 1 .3 1.3 1.6 1.5 2.6.4 1.7.7 3.3 1.4 5 1.3 3.2 4.1 7.3 3 11-1.7 5-7.4 4.8-11.4 6.7h-.2l-.6-2.1zM201 72.2l-.4.6c-2.5.2-5-.1-7.5 0-4.6.1-9 1.7-11.3 5.7a20 20 0 0 0-2.3 10.8c.1 5.2 2.4 9.3 5.4 13.5l1.3 2c-4-.5-6.6-6.6-7.8-9.6a14 14 0 0 1-1-9.2c.8-3.5 2.6-6.8 4.4-10 3-5 7-12.1 13.9-10.7 3 .6 6.2 1.9 9 3.7-1.4 1-2.6 2.1-3.7 3.2zm-12 36.5c1.4 1.8 2.8 3.4 4.6 4.8 3.9 2.9 8 3 11-1 1.6-2 2.4-4.3 3.2-6.7l.3 1.7c.8 4 3 7.8 7.6 7.8a8 8 0 0 0 3.7-.9l-.3.6c-1.5 3.6-3 7.8-7.3 8.7a25 25 0 0 1-13.1-2 56.5 56.5 0 0 1-12.8-6.6c-1.2-.9-2.2-1.6-2.5-3-.2-1.2-.1-2.4 0-3.6a8 8 0 0 0 5.2.4c.2 0 .3 0 .4-.2zm29 1.4c-6.4 3.6-4-4.1-6.4-7.2l.5-.2c4-1.9 7.1-5.6 7.2-10 0-3.3-1.4-6.2-2.7-9.2 2 2.6 4.3 5 6.3 7.5 2.6 3.3 3.3 7 1.8 10.8a16 16 0 0 1-6.6 8.3zm11.1-17.2c-2-5.4-7.3-9.2-10.4-14-2-3-3.1-7.7-5.8-10.3 3.8-1.9 7.9-2.5 11.8 0 2.3 1.5 4.2 3.8 5.3 6.3 1.1 2.8 1.4 6 1.8 9 .4 3.1.7 6.3.7 9.4 0 2.6 0 5.6-2 7.6l-1 1c.7-3 .8-6-.4-9zm-.5-26.9c-2.6-2.1-5.4-3-8.1-3.3-.2 0-.3-.2-.4-.3-3.3-1.5-4-4-6-6.6-2-2.6-5.2-4.2-8.4-5.2a30 30 0 0 0-19.6 1.5c-1.8.7-3.4 1.5-5 2.5v-.2l.8-1.3.6-.2a62 62 0 0 0 6.9-4.4c1-.8 1.9-1.8 3-2.5 2-1.3 3.2-.8 5.2.3 5.4 2.8 10 5.4 16.1 7 5 1.4 10.5 1.8 15.4 3.6 5.7 2 4 7 1.6 11.1l-2.1-2zm-10.3 81.7c-9.6 10.3-24.1 8.3-35.6 2.3a144 144 0 0 1-15.6-9.5 47.5 47.5 0 0 1-13.8-13.2c-3.7-6-5.2-13-6.6-19.7-1.7-7.4-2-14.1 2-21 3.1-5.5 7.1-11 11.4-16 3.8-4.4 8.3-8.3 13.8-10.5a71.5 71.5 0 0 0-16 23.2c-3 6.6-4 13.9-1.6 20.8a48 48 0 0 0 14 18c10.3 9 24.5 19.3 39 18 7.8-.7 14.2-5.3 18.3-11.5 2-3 3.6-6.2 3.3-9.9-.2-3.5-1.8-6.8-2.8-10.2 1.5-1.4 3.4-2.5 5-3.8a11 11 0 0 0 3.7-7.3c.5-3.2.2-6.6 0-9.8-.3-2.5-.5-5-1-7.4a24 24 0 0 1 10.6 11 21.5 21.5 0 0 1 0 16.7c-2.4 5.3-7.3 9.4-11.3 13.5a37.4 37.4 0 0 0-8 11.2 52 52 0 0 1-8.8 15.1zm14.2-4.8c9.2-2.4 20.8-1 25.1-10.4 1.4-3 2-6.3 3.3-9.4 1.4-3.7 3-7.4 3.8-11.3 1.7-7.4 2-15 .3-22.4a107 107 0 0 0-9.3-23.6 138 138 0 0 0-13.4-21.7c-4.6-6-10-9-17.8-9.9a75.7 75.7 0 0 0-21.6.8c-12.5-2.8-23.3-10-35-15l.5-.5c11.1-14 32.2-7.4 47-5.1 4 .6 8.2 1 12.4.9 4-.1 8.3-.7 12.4-.2 9.4 1.2 13.9 9.9 16.3 18 2.5 8.4 4.7 16.4 9.6 24 4.7 7.3 10.6 14.4 12.4 23.1 1.7 8.9-3.1 15.5-6.7 23.1a31 31 0 0 0-2.7 9.5c-.5 4.5 0 9-1.3 13.4-4.5 15.6-21 17.8-35.3 16.7zM195-17.3c1.6 3.5 3 7.4 3.5 11.3L195-9.9A55.1 55.1 0 0 0 168.2-28c-26.4-6.4-51.2 10.3-63.5 32-5.6 10-11.2 22.9-3.3 33a40.1 40.1 0 0 0-5.7 10.2l-.4 1.3C86.8 40.3 80.4 28.8 83 17.1a47.2 47.2 0 0 1 9.8-18c4.3-5.4 8.6-10.9 13.5-15.8 11-11 25.2-15.3 40.5-17.7 11.7-1.9 28.7-5.3 38.7 3 4.3 3.6 7.2 9 9.4 14.1zm39 217.4 2.3-4.3 3.3-.7c11.6-3.1 22.2-9.6 26.4-21 4-10.9 2-23 0-34-.2-.6-.5-1-1-1.3a24.2 24.2 0 0 0 7.5-13.4c1.1-5.1.4-10.4 1.7-15.4 2-8.2 8.4-14.6 9.2-23.2.8-9.3-4.1-18-9.2-25.5L270 55c11 .2 23.8 2.1 27.7 13.2 2.8 7.7.4 16.6-1 24.4l-4.6 24.7c-1.6 8.3-2.9 16.6-4.7 24.8-.9 3.8-2 7.4-3.5 11-1.2 2.8-2 5.6-1.5 8.7.6 3.2 2.2 6 2.7 9.2.7 3.8 0 7.8-1.7 11.3-3.2 6.8-9.9 10.3-17.1 11.8-7.9 1.7-16 1.7-23.9 3.5-2.8.6-5.6 1.6-8.4 2.6zM60.8 218.4a52 52 0 0 1-12.5-6 40 40 0 0 1-10.6-13.2 50.4 50.4 0 0 1-4.7-21.3c-.2-3.2-1.2-3.7-4.2-5.6a52 52 0 0 1-11.1-8.8 20.4 20.4 0 0 1-5.3-16.3c.3-3.7 1.2-7.4 1-11.1-.4-4.6-2.2-9-4-13.3a50.1 50.1 0 0 1-4.6-16.2c-.3-5.7 0-11.3.6-17 1.4-11.6 4-23 6.5-34.5 2.5-12 5.6-24 10.2-35.5a38 38 0 0 1 9-15.2c3.6-3.4 8.3-6.2 13.4-6.5a45 45 0 0 0 5.3 22.3 147 147 0 0 0-25.4 60.3 92.9 92.9 0 0 0 .8 34.3 55.3 55.3 0 0 0 6.1 16.2c3 5.2 7.3 9.1 11.8 13 2.7 2.4 5.1 4.8 7.2 7.5 2.1 2.8 4 5.6 6.6 8 4.3 3.7 9.9 5.6 15.3 7.3l.4 1.3a207.2 207.2 0 0 0 7.5 58.3c-6-3.5-12.8-5.6-19.3-8zm247.8 5.8a81.8 81.8 0 0 0-14.7 19 59.7 59.7 0 0 1-13.7 19c-6 5.2-13.2 9-20.7 11.7-3.6 1.2-7.2 2-10.8 3-1.6.5-1.4.6-2.7-.3l-3-2.6c-2.8-2.3-5-4-7.7-1a41.4 41.4 0 0 1-5.8 5c-2.8 2-6 2-9.3 2.3l-21.5 2.2c-16 1.8-37.2 7.9-50.6-4.4-2.4-2.1-4-5-6.6-7.1-3.2-2.7-6.6-2.6-10.6-2.6-7.6.2-14.9-2.1-21.3-6.2-15.6-10-23.4-28.5-27.4-45.6-2.7-11.8-4.4-24-5-36.1A48.5 48.5 0 0 0 90.7 198c4.4 3.5 9.5 5.7 14.9 7.7 5.6 2.2 11 4.6 16 7.8 9.3 5.7 18 12.6 28.6 16 11.5 3.7 23.6 2 34.9-1.3 11.9-3.5 24.6-7.4 35-14 3.7-2.3 7-5 9.8-8.2 4.6-1.3 9-3.3 13.6-4.3 7.8-1.8 16-1.8 23.8-3.5a29.7 29.7 0 0 0 17.6-9.8c3.5-4.4 5.2-10 5-15.5l4-.9c3.2-.7 5-3.5 7.2-5.8 6.9-7 13.5-14.4 19.8-21.8 4.2-5.1 9.4-10.5 12.5-16.6 2.8 4.3 3.8 9.9 3.8 14.8a44 44 0 0 1-5.7 23.4c-3.5 5.1-7.8 9.4-9 15.6-1.6 7-2 14.3-3.3 21.5-1.5 8.2-4.8 15-10.5 21zm51.9-103.3a83.1 83.1 0 0 0 8.4 22.2c3.8 7 7.9 14.8 4.2 22.7-2.6 5.7-8 10-13 13.8l-15.3 12a81 81 0 0 1-20.3 12.6 2 2 0 0 0-1-.5c1-5.5 1.5-11.2 2.4-16.8.8-4.5 1.7-8.2 4.4-12 2.4-3.2 5-6.2 6.9-9.7 1.9-3.7 2.5-8.3 3.3-12.3a49 49 0 0 0 1-13.8 27.8 27.8 0 0 0-6.1-16l.2-.6c2.4-8.6-1.2-17.5-2-26a97 97 0 0 1 1.3-29l.9-3.8A59.7 59.7 0 0 1 356.4 97c1.6 8 2.4 16 4 24zM189.3-85.5c8.8.2 17 4.1 24 8.8 5.2 3.3 10 8 15.6 10.6 2 1 3.4 1 5.1 0a25 25 0 0 1 8.2-2.5c25.3-3.8 53 7 72.7 21.7 7 5.4 13.5 11.2 21.3 15.6 7.4 4.2 15.2 7.7 22.3 12.3A37 37 0 0 1 374.4.4c1.8 6.5 0 11.2-2.8 16.9-5 10.2-12.7 20-11.8 32 .6 6.1 2.9 12 3.8 18.1 1.2 7-1.5 12.2-7.2 16.2A65 65 0 0 0 337 59.1c1.6-6 3.3-12 3.7-18.2 1.2-17-11-31.2-23.6-41.5a64.6 64.6 0 0 0-48.7-16 2 2 0 0 0-1 .6c-4.7-8.8-8.5-18.2-14.7-25.6C239.7-57 219.2-58 200.3-60a90 90 0 0 1-31.2-8.4c-2.3-1.1-4.6-2.2-7-3.1 6.9-7.9 16-14.4 27.2-14z" fill="#fff" fill-opacity=".5" style="stroke-width:.999996"/>
</svg>
