<svg width="831" height="490" fill="none" xmlns="http://www.w3.org/2000/svg">
  <path d="M809.68 199.96a2.4 2.4 0 0 0-2.4-2.4 2.42 2.42 0 0 0-2.38 2.4c0 1.3 1.1 2.39 2.39 2.39 1.3 0 2.39-1.1 2.39-2.4Zm-94.31 66.35-2.19 5.92 5.43 1.17-.12-.24a347.4 347.4 0 0 1-3.12-6.85Zm53.11-3.68c-13.09.64-26.21.68-31.64.68h-.37a9.03 9.03 0 0 1-5.06-1.57l-11.38-7.9-3.45 9.23c.25.53.49 1.1.73 1.62.7 1.5 1.38 3.04 2.07 4.54l2.19 4.78 9.6 2.06 1.62 14.59h5.67v4.05h7.7v-4.86l3.16-.37c.2-.36.64-.64 1.09-.64.37 0 .69.16.9.44l26.85-3.08-.81-12.68h2.47v-5.18h.73c-.12-1.01-.2-2.03-.32-3l-2.6-1.1c-.73-.32-.08-1.33.61-1.05l2.84 1.22c.2.08.28.32.28.52.08.94.2 1.83.28 2.76.04.24.04.44.09.69h1.17c-.24-2.23-.53-4.46-.77-6.64-3.97.36-8.55.64-13.65.89Z" fill="#5A5854"/>
  <path d="m830.83 169.45-6.53-7.57-7.73-3.65h-1.06c.2.49.45.97.65 1.46.24.48.45.97.69 1.5.16.36.2.73.24 1.1.12 1.17.12 2.34 0 3.52-.16 1.25-.44 2.7-1.46 3.6-.6.49-1.46-.36-.85-.85 1.02-.85 1.14-2.51 1.18-3.77.04-.65 0-1.33-.04-1.98 0-.25-.04-.45-.04-.7 0-.07 0-.15-.04-.24v-.03l-.25-.53c-.28-.65-.6-1.3-.89-1.99l-.48-1.1h-5.68l-11.34 12.16v8.1l7.3 8.92-4.1 4.7 3.6 2.75a6.14 6.14 0 0 1 8.95 7.58l12.24 13.93-4.78 16.13-19.04 25.68-.4.16c-2.92 1.3-8.35 2.35-16.29 3.16.04.45.13.9.17 1.34.2 1.86.4 3.69.64 5.55h1.66l1.63 15.4 29.97 24.3 2.03-2.03 6.08-.8 2.43-2.44 1.66.81V216.2l-3.69-5.3-4.86-10.94 8.55-11.96v-18.55h-.13ZM493.99 259.8l-6.08-6.08-13.77 6.08v3.64l-16.61 12.96-12.97-2.02-4.05 8.91v10.53s2.03 27.15 1.62 33.63l5.67 8.1 12.56 1.62 10.53 7.7 23.1 8.1 15.8 8.5 5.67 6.08 18.63 9.73 9.32 9.31 2.02-2.83 14.18 7.7 17.02-27.96-9.73-7.7 15-11.34s-2.84-10.94-15-21.87l-2.83 3.24-19.85-27.14-11.75-17.83-.8-5.67-9.33-11.75-4.86-1.21-8.1-10.13-12.15 7.29s-1.62 1.22-3.24.4Z" fill="#5A5854"/>
  <path d="M807.7 40.92a9.98 9.98 0 0 1-7.74-11.75l4.05-19.53a9.98 9.98 0 0 1 11.75-7.74 9.98 9.98 0 0 1 7.74 11.75l-4.05 19.53a9.92 9.92 0 0 1-11.75 7.74Z" fill="#505650"/>
  <path d="M458.01 38.97a19.07 19.07 0 0 0 2.56 3.12 28.82 28.82 0 0 0 5.5 3.89c1.75 1.05 3.5 2.07 5.23 3.12 4.01 2.39 7.98 4.78 12 7.13.28.16.56.36.84.53.05.04.09.04.17.04-.08-.04.24.12.28.12.4.2.81.44 1.18.73 1.3.97 2.35 2.3 3.07 3.76.49.98.81 1.99 1.42 2.88.6.9 1.34 1.66 2.19 2.31 1.62 1.22 3.56 2.03 5.39 2.84.85.36 1.7.77 2.55 1.13 2.6 1.17 5.19 2.63 8.1 2.63 1.14 0 2.27-.16 3.36-.24 1.1-.08 2.35-.08 3.4-.49 1.42-.56 2.24-1.7 2.92-3 1.54-2.91 3.12-5.83 4.66-8.74 2.47-4.62 4.94-9.24 7.38-13.86 2.3-4.3 4.57-8.59 6.88-12.88 1.1-2.03 2.19-4.1 3.28-6.12a6.65 6.65 0 0 0-2.3-8.75c-.37-.24-.74-.44-1.1-.69-2.55-1.58-5.06-3.2-7.62-4.78-4.05-2.55-8.1-5.1-12.15-7.61-3.08-1.9-6.12-3.85-9.2-5.76h-2.26c1.25.81 2.55 1.58 3.8 2.4 4.42 2.75 8.84 5.54 13.25 8.3 3.45 2.15 6.89 4.3 10.3 6.48 1.45.93 2.9 1.82 4.37 2.75a5.47 5.47 0 0 1 1.86 7.13c-.32.65-.69 1.3-1.05 1.95-1.83 3.4-3.65 6.85-5.47 10.25-2.47 4.66-4.98 9.32-7.46 13.97l-6.36 11.96-1.82 3.4c-.6 1.13-1.25 2.23-2.63 2.63-.98.28-2.1.28-3.12.37-1.22.12-2.43.28-3.65.2-1.42-.12-2.67-.6-3.93-1.18-1.13-.52-2.3-1-3.44-1.54l-3.12-1.41c-1.7-.81-3.6-1.62-4.94-3-1.54-1.54-1.99-3.65-3.16-5.39a11.18 11.18 0 0 0-4.13-3.73c-.09-.04-.17-.08-.25-.08-.28-.24-.69-.4-1.01-.6-1.74-1.06-3.48-2.07-5.27-3.12-3.97-2.35-7.9-4.7-11.87-7.1-1.94-1.17-3.84-2.3-5.46-3.92a14.69 14.69 0 0 1-2.23-2.8 9.17 9.17 0 0 1-1.06-3.73 6.64 6.64 0 0 1 .53-3.4c.04-.12.12-.2.2-.32 0-.04.04-.04.04-.04 0 .04-.08.16.04-.04.04-.04.04-.08.09-.12.56-.94 1.13-1.95 1.7-2.88 2.39-4.13 4.82-8.27 7.2-12.4 2.28-3.89 4.54-7.82 6.85-11.7.37-.65.77-1.34 1.18-1.99l.08-.12c.04-.08.12-.16.16-.2l.25-.37c.12-.2.24-.36.32-.57h-1.46c-.12.2-.28.4-.4.65-.5.77-.94 1.62-1.42 2.43l-3.08 5.27c-2.68 4.54-5.3 9.11-7.98 13.65-1.5 2.6-3.08 5.15-4.54 7.78v.04a4.66 4.66 0 0 0-.6 1.17c-.53 1.42-.5 3-.21 4.46.2 1.01.53 2.19 1.18 3.2Z" fill="#242222"/>
  <path d="M830.47 131.05V98.93l-3.85 4.98-.16-.12-9.89.4-37.1-31.31-27.15-22.36c.2-.29.33-.61.33-1.02v-7.29l.6-3.52c.17-.97.33-1.95.53-2.92.04-.28.04-.6-.04-.93.25-1.05.4-2.15.6-3.2l1.35-6.6c2.1 1.5 4.2 3 6.36 4.5 1.46 1 2.87 2.06 4.33 3.07.37.24.73.53 1.1.77.36.24.76.24 1.21.24h4.74c3.16 2.84 6.36 5.68 9.52 8.51.2.16.4.37.57.53-1.99 2.27-3.93 4.58-5.92 6.84l-.97 1.1a1.2 1.2 0 0 0 0 1.7c.45.44 1.3.49 1.7 0 2.23-2.6 4.5-5.19 6.73-7.82l.97-1.1c.4-.48.52-1.25 0-1.7-2.1-1.9-4.21-3.76-6.36-5.67a303.32 303.32 0 0 0-4.9-4.33c-.29-.24-.57-.4-.98-.45h-5.29c-3.6-2.55-7.21-5.1-10.78-7.65l-1.54-1.1c-.04 0-.04-.04-.08-.04.65-3.16 1.26-6.36 1.9-9.52l3.08.37 9.8 1.17 11.84 1.38 10.25 1.21c1.13.13 2.26.29 3.4.41.12 0 .24.04.36.04-.52 2.51-1.05 5.06-1.54 7.58-.72 3.6-1.5 7.2-2.22 10.81-.37 1.74-.77 3.53-1.1 5.27v.08c-.08.4-.04.9.33 1.17l7.37 6.28c3.93 3.37 7.86 6.69 11.79 10.05.89.77 1.78 1.54 2.71 2.31.49.4 1.22.49 1.7 0 .45-.45.49-1.3 0-1.7l-7.37-6.28-11.79-10.05c-.73-.65-1.5-1.25-2.23-1.9l.73-3.53c.73-3.44 1.42-6.88 2.15-10.33.85-4.17 1.7-8.34 2.6-12.51.72-3.61 1.5-7.22 2.22-10.82.24-1.26.53-2.51.77-3.77h-2.47c-.12.7-.28 1.38-.4 2.07-.74 3.44-1.42 6.88-2.11 10.33-.16.85-.37 1.7-.53 2.55-1.1-.12-2.19-.24-3.28-.4-3.28-.41-6.52-.77-9.8-1.18l-11.83-1.38-10.25-1.21c-1.14-.12-2.27-.29-3.4-.4-.05 0-.13 0-.17-.05L760.67.1h-3.73l-1.46 7.28-4.21 21.1-1.1 5.56v.08c.09-.08.13 0 .05.08a.55.55 0 0 0-.12.16c0 .04-.05.12-.05.17v.08-.17c-.93 1.3-1.86 2.64-2.79 3.93-.49.65-.93 1.34-1.42 1.99h-5.8l-27.42-22.6-4.57-3.94 9.27-13.6h-2.43l-8.38 12.3L692.16.22H675.4l25.45 21.83c0 1.05-.05 2.1 0 3.12 0 .36.24.52.48.73l1.13 1 7.74 6.94c.61.56 1.26 1.09 1.87 1.66-1.99 2.27-4.01 4.5-6 6.76l-3.6.12c-1.9.09-3.85.13-5.76.2l-.48-9.63c-.09-1.34-.13-2.72-.2-4.06-.05-.77-1.26-.77-1.22 0 .2 3.7.36 7.38.57 11.1l.12 2.68c-.93.04-1.87.08-2.84.08-3.97.12-7.9.28-11.87.4l-10.29.37-4.3.12c0-1.1-.03-2.15-.03-3.24-.08-4.38-.12-8.75-.2-13.13-.05-1.78-.05-3.52-.09-5.3a1 1 0 0 0 .37.04h7.74c.48 0 .93-.04 1.25-.45l.97-1.1 3.25-3.72c.32-.36.64-.73.93-1.1.44-.52.4-1 .4-1.61v-2.47c0-.65.08-1.34-.4-1.79-1.06-.93-2.23-1.74-3.33-2.59a2.2 2.2 0 0 0-1.3-.57h-10.07a272.4 272.4 0 0 1-.09-6.4h-2.43l.12 9.24.24 15.92c.09 4.58.13 9.16.2 13.77.05 2.23 0 4.46.09 6.69v.08c.04 1.58 2.47 1.58 2.43 0v-1.05l3.28-.13c3.28-.12 6.52-.24 9.8-.32 3.97-.12 7.9-.28 11.87-.4 1.46-.05 2.88-.09 4.34-.17.24 4.62.44 9.2.69 13.82.08 1.33.12 2.71.2 4.05.04.77 1.25.77 1.21 0-.2-3.69-.36-7.38-.56-11.1-.12-2.27-.25-4.54-.33-6.8 1.58-.05 3.16-.13 4.7-.17 1.14-.04 2.27-.04 3.4-.08a2 2 0 0 0-.52.8c-.16.54-.04 1.18-.04 1.71v14.02c0 1.58 2.43 1.58 2.43 0V45.17l6.68-7.54 3.2 2.68c3.08 2.6 6.2 5.14 9.28 7.74 3.73 3.12 7.5 6.23 11.22 9.35 3.24 2.72 6.48 5.4 9.72 8.1 1.06.9 2.11 1.79 3.2 2.68.25.2.5.45.77.65l-2.18 2.75-7.46 9.4-9.6 12.11c-1.17 1.5-2.35 2.96-3.52 4.46h-.16c-.9 0-1.79.04-2.64.04-1.01.04-2.02.08-3-.28a4.74 4.74 0 0 1-2.83-3 8.18 8.18 0 0 1-.24-1.74c-.17-4.05-.29-8.06-.45-12.12a141.1 141.1 0 0 0-.16-4.09c-.04-1.17-1.87-1.17-1.82 0 .12 3.57.24 7.1.4 10.62.08 1.82.12 3.64.2 5.5.04.65.04 1.3.2 1.95a6.59 6.59 0 0 0 2.96 4.01c1.82 1.1 3.97 1.01 6.04.93l-4.5 5.67-7 8.84-1.87 2.34c-.12.17-.24.29-.37.45-.16-3.4-.36-6.8-.52-10.17-.2-4.17-.4-8.3-.65-12.47-.2-3.57-.36-7.18-.57-10.74-.08-1.74-.12-3.52-.28-5.27v-.08c-.04-1.17-1.86-1.17-1.82 0 .08 1.42.16 2.88.2 4.3.16 3.44.36 6.88.53 10.33.2 4.17.4 8.3.64 12.47.2 3.57.37 7.17.57 10.74.08 1.5.12 3 .2 4.5l-2.18 5.18c-1.34 0-2.64.04-3.97.04-3.45.04-6.93.08-10.37.16-4.18.05-8.39.13-12.56.17-3.65.04-7.3.12-10.9.16-1.74.04-3.52 0-5.27.08h-.08c-.48 0-.93.4-.89.89.08 3 .2 5.96.28 8.95.17 4.7.29 9.44.45 14.14 0 .49.04 1.01.04 1.5-2.27-.04-4.54-.08-6.8-.08-3.61-.04-7.18-.12-10.78-.16l-9.64-.12-7.62-.13c-1.54-.04-3.08-.04-4.62-.08-.28 0-.6-.04-.89 0-.93.04-1.94.37-2.83.53-.29.04-.61.12-.9.16-1.74-1.25-3.48-2.55-5.22-3.8.16-.13.28-.25.4-.41.61-.81.61-1.95.57-2.92-.04-.4-.08-.8-.08-1.21-.2-2.52-.4-4.99-.57-7.5l-.85-10.7c-.24-3.31-.52-6.6-.77-9.92-.12-1.66-.24-3.32-.4-4.98v-.08c-.04-.49-.4-.9-.9-.9-.44 0-.93.41-.88.9.12 1.33.2 2.67.32 4l.73 9.29.85 10.73c.2 2.72.4 5.47.65 8.19.04.64.08 1.3.16 1.94.04.28.04.53.04.8 0 .21 0 .62-.04.7 0 .08-.04.2-.04.28 0 .04-.04.08-.04.12l-.04.04c0 .04-.04.04-.04.08l-.16.17s-.04 0-.04.04c-.09.04-.17.12-.25.16-.36.2-.73.4-1.1.65l-.24.24c-3.92.24-7.9.53-11.82.77.04-.08.04-.2.04-.28-.08-1.62-.2-3.24-.29-4.9-.24-3.97-.44-7.99-.69-11.96-.28-5.02-.56-10.04-.89-15.07-.28-4.74-.56-9.47-.8-14.26-.21-3.16-.37-6.32-.57-9.48-.05-.56-.09-1.13-.09-1.7-.08-1.58-.36-3.2-.8-4.7-.53-1.66-1.34-3.16-2.11-4.7l-.25-.56-.12-.25-.08-.2c-.2-.48-.4-.97-.56-1.46a36.7 36.7 0 0 1-1.06-3.76 63.9 63.9 0 0 1-1.34-11.18c-.08-2.23-.08-4.46-.08-6.73 0-2.19.37-4.74-.97-6.6a5.49 5.49 0 0 0-4.74-2.35c-.32 0-.65.04-.97.04-1.9.08-3.8.2-5.67.28l-7.86.37c-.69-1.18-1.38-2.4-2.1-3.57l22.23-37.15 5.1-7.98h-6.76l-3.16 4.86-42.98 71.79-20.66 34.84-16.2 27.55-29.58 54.32-30.7 50.48-20.99 29.49-37.67 52.46-.94-.69.37-.49 32.49-45.85 23.9-33.63.04-.08L462.55 216l20.3-34.07 21.1-38.93 31.97-54.24 44.96-76.53L588.1.2H581l-5.34 8.91-1.99 3.4c-.65.05-1.3.09-1.94.17-.57.04-1.02.12-1.38.65-.08.08-.16.2-.2.28l-1.34 1.78c-1.3 1.66-2.55 3.37-3.85 5.03-.32.44-.73.89-1.01 1.33-.37.53-.12 1.26 0 1.87.24 1.42.53 2.8.77 4.21l-34.03 57.85-16.49 28v-.05l-8.1-2.43-.08-.04c-3.97-.85-25.6-16.81-39.21-27.3l-.09-.04-47.6-27.39C424.43 47.96 429.7 39.46 435 31c.49-.77.94-1.54 1.42-2.27a5.68 5.68 0 0 1 4.25-.52c.61.16 1.18.44 1.67.85l-.37 5.06-9.4 14.87c-.24.36-.36.77-.36 1.21V53c0 .8.4 1.54 1.1 1.94L448 63.6c.2.12.4.16.65.16.12 0 .2 0 .32-.04.32-.08.6-.28.77-.6l7.66-13.5c.6-1.09.8-2.34.52-3.56-1.7-7.41-13.4-17.3-14.22-17.99a5.87 5.87 0 0 0-2.67-1.5 7.55 7.55 0 0 0-3.28-.08l12.03-19.6c1.38-2.23 2.71-4.42 4.1-6.65h-3.57c-5.71 9.28-11.43 18.56-17.1 27.83l-1.01 1.62-29.37-17.54L409 1.25c.2-.32.36-.68.52-1.05h-2.67c-.6 1.1-1.26 2.19-1.87 3.24l-6.07 10.74c-1.5.85-3 1.78-4.66 2.35-.16.04-.49.2-.77.2l3.89-10.2c.16-.41.32-.86.49-1.26 1.86-.29 3.68-.53 5.54-.81.17-.04.25-.25.2-.37-.2-1.3-.4-2.6-.56-3.89h-.6c.12.7.2 1.38.32 2.07l.24 1.62c-1.82.24-3.6.53-5.43.77-.12 0-.16.12-.2.2l-3.89 10.3c-.12.36-.24.68-.4 1.04-.04-.12-.04-.24-.09-.28-.36-1.3-.64-2.63-.97-3.93-.28-1.21-.52-2.47-.85-3.69-.44-1.82-.57-3.8-1.82-5.3a5.99 5.99 0 0 0-4.26-2.03h-6.96c0-.28.04-.52.04-.8h-2.43l-.13 2.63c0 .4-.04.6-.16 1.05-.2.85-.48 1.74-.85 2.51a28 28 0 0 1-4.9 7.25A398.66 398.66 0 0 0 365.65 9a35.98 35.98 0 0 0 3.8-8.87h-2.55a33.02 33.02 0 0 1-1.3 3.53l-.03.12c0 .04-.04.08-.04.08-.08.12-.12.28-.2.4l-.37.85c-.2.45-.44.9-.65 1.34-.4.81-.93 1.54-1.38 2.31a.66.66 0 0 0-.12.24c-.04.04-.04.08-.08.12l-.2.33-.6.85c-.13.16-.25.32-.37.53-.08.08-.16.2-.2.28 0 .04-.05.04-.05.04s-.04.04-.04.08c-.36.45-.68.9-1.05 1.34-2.75 3.4-5.63 6.72-8.55 10.04-.2-.2-.44-.4-.65-.6-.08-.04-.24-.29-.36-.37-.53-.77-1.01-1.54-1.54-2.35-1.82-2.75-3.64-5.5-5.47-8.3l-2.43-3.69c-.4-.6-.85-1.25-1.25-1.9-.2-.37-.37-.77-.53-1.14-.57-1.17-1.1-2.39-1.66-3.56l-.29-.65h-4l2.83 6.12c.16.36.32.73.53 1.1.4.68.85 1.33 1.3 1.98l5.34 8.14c1.38 2.07 2.71 4.13 4.1 6.2.24.36.52.69.84.97l2.23 2.07c2.43 2.26 4.9 4.5 7.33 6.76 1.95 1.78 3.85 3.57 5.8 5.35 1.13 1.05 2.55 1.58 3.92 2.3 1.55.82 3.13 1.63 4.66 2.4l-.2.2c-.97.9-1.94 1.78-2.92 2.71-3.15 2.92-6.31 5.88-9.48 8.8-4.65 4.29-9.23 8.66-13.93 12.88-5.43 4.86-11.02 9.56-16.49 14.34-1.66 1.46-3.32 2.96-5.02 4.37-2.96 2.43-5.96 4.74-8.95 7.1-.9.72-1.83 1.41-2.72 2.14-.53.4-.4 1.3 0 1.7.49.53 1.22.4 1.7 0 4.38-3.48 8.88-6.85 13.09-10.5l18.43-16c3.69-3.2 7.21-6.56 10.78-9.88 5.79-5.39 11.62-10.73 17.42-16.12.16-.16.36-.28.48-.45l.16-.12c.61.29 1.18.61 1.79.9 1.13.56 2.22 1.17 3.44 1.61 2.07.77 4.1 1.58 6.16 2.35 3.16 1.22 6.32 2.4 9.44 3.6 3.03 1.18 6.07 2.32 9.11 3.5 1.66.64 3.36 1.29 5.02 1.9-.04 0-.04-.04-.08-.04.04.04.08.04.13.04.04 0 .03 0 .08.04.16.04.28.12.24.12.12.08.24.12.36.2l1.99 2.72c-2.43 3.93-4.86 7.85-7.33 11.78-2.2 3.53-4.34 7.01-6.53 10.54-1.41 2.3-2.87 4.5-4.05 6.92l-8.38 16.94-7.38-4.22-11.34-6.44-.28-.16 1.13-2.23c1.34-2.59 2.63-5.18 3.97-7.82 1.62-3.15 3.2-6.31 4.82-9.47a794.6 794.6 0 0 1 4.18-8.23c.68-1.34 1.37-2.63 2.02-3.97 0 0 0-.04.04-.04.29-.57.16-1.34-.44-1.66-.53-.32-1.38-.16-1.66.45-.57 1.09-1.1 2.18-1.67 3.28-1.33 2.59-2.63 5.18-3.97 7.82-1.62 3.16-3.2 6.32-4.82 9.48a794.59 794.59 0 0 1-4.17 8.22l-1.7 3.36c-.81-.16-1.66-.28-2.47-.4a45.7 45.7 0 0 0-4.82-.2c-.81 0-1.66 0-2.47.12-5.63.64-9.8 5.59-12.4 10.28-.97 1.75-1.86 3.57-2.8 5.31-2.22 4.25-4.45 8.5-6.64 12.76l-5.1 9.77c-.85 1.62-1.62 3.24-2.47 4.86-2.15 4.3-4.3 8.59-6.45 12.92-1.62 3.24-3.24 6.52-4.9 9.76l-.24.53c-.08.2-.16.44-.16.69-1.38.08-3.12.24-4.99.56a23.06 23.06 0 0 0-7.08 2.4c1.37-2.84 2.75-5.63 4.13-8.47l.36-.77c.25-.6-.08-1.3-.24-1.9-.49-1.79-.93-3.61-1.42-5.4-.08-.24-.12-.48-.2-.76.85-1.74 1.74-3.45 2.6-5.19.27-.56.15-1.3-.45-1.66-.53-.32-1.38-.16-1.67.45-.93 1.82-1.86 3.64-2.75 5.5-.2.41-.28.78-.2 1.22.08.37.2.73.28 1.06.32 1.3.69 2.55 1.01 3.84l.61 2.23c-.97 1.99-1.94 4.01-2.92 6a636.84 636.84 0 0 1-3.68 7.53c-.77 1.58-1.66 3.12-2.51 4.7-1.67 3.08-3.33 6.2-4.99 9.28l-1.45 2.75c-.57 1.1-.78 2.2-1.02 3.36-.12.65-.28 1.3-.4 1.95a7.3 7.3 0 0 0 .56 4.54c.61 1.3 1.26 2.59 1.87 3.89.24.48.44 1 .73 1.5a7.51 7.51 0 0 0 2.83 2.79l1.34.73c2.51 1.38 4.98 2.75 7.5 4.17 3.15 1.74 6.31 3.49 9.47 5.27l5.96 3.28.28.16c1.38.77 2.6-1.34 1.22-2.1-1.66-.94-3.32-1.87-5.03-2.76-.77-.4-1.54-.85-2.3-1.25l10.08-.61 3.28-2.35 16.57-31.72c1.58.77 3.12 1.54 4.7 2.3.97.5 1.9.94 2.88 1.43l-6.08 13.12c-2.35 5.1-4.74 10.2-7.09 15.31-1.58 3.45-2.6 7.13-3.8 10.74-.61 1.78-1.22 3.56-1.79 5.39l-11.79 1.13c-10.25.97-18.27-.65-26-5.27-1.06-.68-32.7-22.03-49.43-33.3-3.16-2.34-10.86-5.42-17.7-.4l-1.01.85c-8.43-8.39-16.86-16.73-25.28-25.12a92.86 92.86 0 0 0-8.75-7.7c-7.34-5.63-14.63-11.3-21.96-16.93-9.44-7.29-18.88-14.58-28.36-21.87 3.9-1.58 7.74-3.2 11.63-4.78 1.3-.53 2.6-1.06 3.85-1.75l.28-.16s0 .04.04.04l4.5 3.77 2.92 2.43c.4.33.8.73 1.25 1.01 1.3.86 2.72 1.54 4.05 2.31 2.4 1.38 4.82 2.76 7.21 4.1l4.9 2.79a10.7 10.7 0 0 0 4.38 1.42c2.1.16 4.34-.45 6.08-1.66a7.17 7.17 0 0 0 2.75-3.69 7.8 7.8 0 0 0-.85-6.28c-1.54-2.51-4.37-3.69-6.84-5.06-.29-.16-.61-.37-.94-.53.53-2.43 1.1-4.86 1.62-7.3a.92.92 0 0 0-.64-1.13c-4.26-.93-8.51-1.9-12.77-2.83-.6-.12-1.17-.28-1.78-.4-.73-.13-1.5-.05-2.23-.05h-4.89c-.58.04-.78.45-1.02.85-1.22 1.95-2.43 3.93-3.69 5.88a241.7 241.7 0 0 0-4.37 2.47c-.4.24-.85.49-1.26.69-.2.12-.44.2-.6.36-.17.08-.33.12-.53.2-3.81 1.55-7.58 3.13-11.39 4.66-1.09.45-2.22.94-3.32 1.38-9.28-7.17-18.55-14.34-27.83-21.47-3.6-2.75-7.17-5.55-10.77-8.3l-.98-.73s-.04 0-.04-.04c-.04 0-.04-.04-.08-.08-.4-.33-.85-.65-1.25-.98a143.61 143.61 0 0 1-20.26-20c-5.02-6.2-9.56-13.18-12.36-20.71-1.94-5.3-2.63-10.5-2.8-16.08-.23-8.35-.64-16.65-.92-25-.04-.57-.04-1.13-.08-1.74h-7.3c.25 6.28.5 12.52.73 18.8.08 2.5.17 5.02.29 7.53-3.08.65-5.8 2.68-7.82 5.07-.33.36-.6.73-.9 1.09-.36.53-.07 1.34.45 1.66.61.37 1.3.08 1.66-.45.04-.04.09-.08.13-.16a.72.72 0 0 0 .2-.28c.44-.53.93-1.05 1.42-1.54.32-.28.6-.57.97-.85l.28-.24s.04 0 .04-.04c.04 0 .04-.04.08-.04.2-.17.4-.29.61-.45.4-.28.85-.57 1.34-.77.2-.12.4-.2.6-.28.05 0 .17-.08.2-.08l.41-.13.49-.12c.36 5.75 1.17 11.47 3.32 17.02a79.47 79.47 0 0 0 8.59 16.08 29.15 29.15 0 0 1-20.34-1.62c-3.6-1.66-6.6-4.05-9.6-6.6a8231.36 8231.36 0 0 1-19.4-16.41c-3.57-3-6.93-6.24-10.3-9.48A93.75 93.75 0 0 1 0 21.3v3.4c.49.49.97.97 1.46 1.42 3.89 3.8 7.74 7.82 11.9 11.34C19.5 42.66 25.6 47.8 31.73 53c1.86 1.58 3.69 3.16 5.55 4.7a33.4 33.4 0 0 0 21.84 7.94c3-.04 6-.57 8.83-1.5 8.26 11.34 19.04 20.94 30.1 29.45 7.81 6.04 15.63 12.07 23.5 18.1v7.46c-5.96 3.53-11.92 7.01-17.87 10.54-5.15 3.03-10.62 5.5-15.96 8.18-1.75.85-3.49 1.74-5.23 2.6-.53.23-1.05.52-1.58.76-.2.12-.9.32-.24.16-2.88.81-5.72 1.62-8.6 2.4-1.7.44-3.35.88-5.06 1.37a1.98 1.98 0 0 0-.28-.12c-3.48-1.18-6.97-2.31-10.5-3.49-3.15-1.05-6.68-1.82-9.3-4-5.36-4.38-10.7-8.68-16.01-13.1-4.9-4.08-9.72-8.25-14.7-12.22-5.4-4.3-10.78-8.51-16.21-12.73v3.04c4.21 3.28 8.39 6.56 12.56 9.85 4.62 3.64 9.07 7.5 13.61 11.22 5.27 4.37 10.57 8.7 15.88 13.04 1.13.93 2.27 1.87 3.44 2.8a15.6 15.6 0 0 0 4.99 2.67c4.09 1.38 8.18 2.72 12.27 4.1a282.1 282.1 0 0 1-15.19 3.44c-2.35.4-4.42.52-6.68-.37-7.18-2.71-14.35-5.43-21.48-8.14-1.33-.53-2.71-1.01-4.05-1.54l-.6-.24c.04 0-.2-.08-.4-.2-3.45-1.87-6.9-3.7-10.38-5.56-1.34-.68-2.63-1.41-3.97-2.1v2.75c3.48 1.87 6.97 3.73 10.41 5.6 1.62.88 3.2 1.7 4.9 2.34 7.54 2.88 15.11 5.71 22.65 8.6.8.31 1.62.6 2.43.92 2.83 1.06 5.55.7 8.43.12 5.55-1 11.01-2.43 16.48-3.8 3-.77 5.96-1.58 8.92-2.4l-3.85 7.99a7.17 7.17 0 0 0-.85 2.87 5.46 5.46 0 0 0 2.5 4.74c1.59 1.02 3.7.93 5.52.85.65-.04 1.5 0 2.02-.36.29-.16.53-.37.77-.57.93-.73 1.7-1.66 2.31-2.63.16.73.29 1.46.4 2.19.37 1.98.66 3.97.78 5.95.04.9.08 1.78.04 2.68 0 .24 0 .44-.04.68 0 .08-.04.16-.04.2l-.13.25c-.16.32-.32.69-.52 1.01-.61 1.1-1.3 2.15-1.99 3.16-3.8 5.47-8.79 9.93-13.4 14.67l-6.57 6.76c-1.17 1.22-2.43 2.4-3.56 3.65-2.8-1.38-5.55-2.8-8.35-4.18-.44-.2-.85-.44-1.3-.64a1.25 1.25 0 0 0-1.66.44c-.32.53-.16 1.38.45 1.66l9.24 4.62c.2.08.36.2.56.28-.04.45-.04.86-.08 1.22-.12 2.19 0 4.42.57 6.52.6 2.4 1.94 4.46 3.16 6.57l4.62 8.14c.56 1.01 1.13 1.98 1.7 3 .2.36.4.77.69 1.09 2.95 3.44 6.11 6.77 9.15 10.13 3.24 3.56 6.48 7.17 9.73 10.73 3 3.32 5.91 6.69 8.87 10 .36.45.73.94 1.21 1.26.49.33 1.02.65 1.5.98 2.8 1.78 5.6 3.56 8.43 5.3a238 238 0 0 0 11.18 6.57c1.74.97 3.48 1.94 5.3 2.75a23.14 23.14 0 0 0 8.71 1.99c2.2.04 4.18-.13 5.96-1.54a8.97 8.97 0 0 0 1.62-1.87l4.13-5.59 9.6-13c.33-.45.45-.81.53-1.38l.49-4.21c.04-.53.12-1.01.16-1.54h6.72c3.2 1.46 6.36 2.96 9.56 4.41-.6 2.8-1.25 5.56-1.86 8.35l-3.04 13.73c-.24 1.06-.44 2.11-.69 3.12-.16.65.2 1.3.85 1.5.61.16 1.34-.2 1.5-.85.65-2.88 1.3-5.75 1.9-8.63l3.04-13.73c.25-1.01.45-2.03.7-3.04h16.28c1.58 0 1.58-2.43 0-2.43H171.6a550.6 550.6 0 0 1-7.42-3.44c-.93-.4-1.82-.85-2.75-1.26-.53-.24-1.06-.16-1.63-.16h-.28c.16-.73.37-1.46.53-2.19.16-.73.32-1.42.52-2.15 0-.04.04-.08.04-.12.5-1.98.98-3.97 1.46-6 .81-3.44 1.66-6.84 2.47-10.28.77-3.12 1.5-6.24 2.27-9.4.45-1.9.9-3.77 1.38-5.67.16-.73.32-1.46.37-2.23a7.97 7.97 0 0 0-2.6-6.04l-3.6-3.24c-2.43-2.19-4.86-4.33-7.34-6.52-2.5-2.23-5.02-4.5-7.53-6.72l-4.42-3.94c-.08-.08-.16-.12-.2-.2-.57-.52-1.46.33-.85.85 1.01.94 2.07 1.83 3.08 2.76 2.35 2.06 4.66 4.17 7 6.24l7.66 6.8 4.9 4.38a6.67 6.67 0 0 1 2.47 7l-1.09 4.5c-.69 2.92-1.42 5.88-2.1 8.8-.81 3.4-1.62 6.8-2.47 10.2-.61 2.47-1.18 4.95-1.79 7.42-1.45-1.34-2.95-2.64-4.41-3.97l-9.72-8.75c-1.83-1.66-3.65-3.37-5.52-4.99-2.75-2.35-5.7-4.5-8.66-6.6-2.27-1.62-4.58-3.2-6.97-4.66a68.59 68.59 0 0 0-4.42-2.51c-.65-.33-1.33-.73-2.02-.93h-.04c-.2-.33-.4-.65-.61-.93a1225.7 1225.7 0 0 0-11.02-17.22 541.97 541.97 0 0 0-6.68-10.05c-.4-.6-.77-1.21-1.14-1.86a25.06 25.06 0 0 0-2.51-3.36 17.42 17.42 0 0 0-9.6-5.72 59.11 59.11 0 0 0-1.46-11.87 99.72 99.72 0 0 0-.9-3.97l-.03-.76a1.3 1.3 0 0 0-.37-.81c-.73-2.8-1.54-5.6-2.47-8.31.9-.32 1.74-.73 2.68-1.17 6.28-3.12 12.68-6.08 18.83-9.44 6.32-3.45 12.4-7.3 18.6-10.94.6-.37 1.17-.7 1.78-1.05h10.57c4.9 3.76 9.8 7.57 14.71 11.34 13.85 10.7 27.7 21.43 41.6 32.08-1.62-1.25-.04.12.37.53 1.17 1.17 2.35 2.3 3.52 3.48 3.93 3.93 7.9 7.82 11.83 11.75 8.35 8.3 16.7 16.61 25.08 24.88a7237.88 7237.88 0 0 0 35.49 35.04c12.4 12.15 25.03 24.1 37.63 36.1 5.02 4.77 10.82 8.74 16.6 12.67l3.17 5.47a32.7 32.7 0 0 1 3.32 10.5c1.78 13.16 6.12 45.77 7.7 64.4v.17c0 .08.85 6.03-2.07 15.6-1.5 1.86-2.47 3.11-2.67 3.4-2.23 3.2-20.05 22.93-26.82 30.38l-44.4 41.97-35.04 29.25h9.52l29.5-24.51.07-.08 44.64-42.22.17-.16c2.5-2.75 24.5-26.98 27.38-31.07.85-1.17 16.4-20.42 26.62-33.06l19.8-25.56 1.26.9-3.76 5.26-42.18 51.77-16.97 20.18c-1.58 1.7-42.37 45.81-56.6 53.88l-.24.12-28.27 24.5h8.67l22.89-19.84c15.39-8.96 56.02-53 57.76-54.9l9.4-11.22.12.08c0-.04 1.75-2.59 5.47-5.75a50.76 50.76 0 0 1 17.79-9.6c2.95-.53 61.65-8.75 84.22-11.91 3.28-.45 6.6 0 10.13.44l1.98.25c3.77.44 7.13.97 9.97 1.5l13.9 5.63 34.43 17.42 46.1 18.6a177.39 177.39 0 0 1 26.7 13.48l47.19 29.09 37.67 26.66h17.54l-49.5-35-.12-.09-47.48-29.25-1.26-.77.98-1.45a13.3 13.3 0 0 1 7.94-5.68l.24-.08c.77-.2 1.54-.28 2.35-.28h5.59c2.96 0 5.83-.6 8.5-1.86a25.11 25.11 0 0 0 10.26-8.6l15.63-22.84c.85.65 1.7 1.3 2.6 1.94-.4 1.38-.86 2.76-1.26 4.14-2.07 1.9-4.17 3.76-6.24 5.67-.8.73-1.7 1.46-2.47 2.23-.45.44-.73 1.09-1.1 1.62a197.15 197.15 0 0 1-6.27 9.15c-.7.93-1.38 1.9-2.1 2.84-.17.2-.33.44-.5.65-.04.04-.04.08-.08.12 0 .04-.04.08-.04.08-.08.12-.2.24-.28.36-.37.45-.69.9-1.05 1.34a54.97 54.97 0 0 1-4.1 4.58c-.32.32-.64.6-.97.89-.12.12-.28.24-.44.36-.08.04-.13.13-.2.17-.05 0-.05.04-.09.04-.4.28-.85.52-.97 1.05-.04.16-.04.32-.04.49a5.61 5.61 0 0 0 .9 2.95c1.86 3.2 5.26 5.19 8.34 6.97 2.8 1.66 5.59 3.28 8.38 4.94 2.8 1.62 5.6 3.28 8.39 4.9.52.33 1.05.73 1.7.7 1.17-.05 2.39-.13 3.56-.2 3.4-.21 6.81-.37 10.21-.58h.37l5.39 3.45c.56.36 1.3.08 1.66-.45 1.21-1.74 2.47-3.48 3.68-5.26l5.35-7.58c.73-1.01 1.3-2.07 1.86-3.16l4.7-8.59c1.14-2.02 2.27-4.05 3.37-6.12 0-.04.04-.08.04-.08.32-.56.12-1.3-.45-1.66-1.1-.65-2.19-1.3-3.24-1.98l-7.82-4.74-9.48-5.71a903.44 903.44 0 0 0-8.18-4.95c-1.34-.8-2.63-1.7-4.01-2.43l-.04-.04c-.49-.32-1.06-.16-1.46.2l-7.78 6.16c-.53.45-1.1.85-1.62 1.3-.2.16-.4.32-.53.57-.36.6-.68 1.25-1.05 1.9-1.7 3.12-3.44 6.24-5.14 9.36-2.03 3.72-4.1 7.41-6.12 11.14-.97 1.78-1.99 3.56-2.96 5.35a21.34 21.34 0 0 1-3.4-2.64c-.33-.28-.6-.6-.9-.93-.07-.08-.11-.16-.2-.2v-.04s0-.04-.04-.04l-.32-.45a7.43 7.43 0 0 1-.44-.77c-.05-.04-.05-.08-.09-.12l-.12-.28-.12-.4c1.18-.9 2.23-1.95 3.24-3a93.7 93.7 0 0 0 4.13-4.9c2.68-3.45 5.15-6.98 7.58-10.58.73-1.13 1.5-2.23 2.23-3.36l.36-.61c.08-.04.12-.12.2-.2 2.4-2.2 4.83-4.38 7.22-6.57.64-.6 1.53-1.17 1.82-2.06.48-1.54.93-3.08 1.42-4.62l.12-.45c.16-.56-.12-1.05-.57-1.37-1.1-.81-2.15-1.62-3.24-2.43l9.64-14.06L689.5 299l5.23-8.87 39.5 22.97a.3.3 0 0 0-.09.16c-.68 1.62-1.33 3.24-2.02 4.86-.2.53.16 1.1.57 1.38 2.71 2.02 5.42 4 8.14 6.03a.6.6 0 0 1 .2.17c-.89 1.54-1.74 3.12-2.63 4.66-1.66 2.95-3.32 5.95-4.99 8.9-.4.7-.76 1.38-1.17 2.07-.77 1.38 1.34 2.6 2.1 1.22l3.17-5.63 4.98-8.92c.4-.68.77-1.37 1.17-2.06.37-.6.09-1.26-.44-1.66-2.72-2.03-5.43-4.01-8.14-6.04-.09-.08-.2-.16-.29-.2.53-1.26 1.06-2.47 1.54-3.73l86.86 50.48c-.04.04-.04.08-.08.12l-4.14 7.53c-2.18 4.02-4.37 7.99-6.52 12-.32.56-.6 1.13-.93 1.7l-2.96-1.62-9.68-5.31-11.67-6.44-10.12-5.6c-1.63-.88-3.25-1.86-4.9-2.7-.05 0-.05-.05-.09-.05-1.37-.77-2.59 1.34-1.21 2.11l4.05 2.23 9.68 5.3 11.67 6.45 10.13 5.59c1.62.89 3.24 1.86 4.9 2.71.04 0 .04.04.08.04a1.2 1.2 0 0 0 1.66-.44l4.13-7.54c2.19-4 4.38-7.98 6.52-11.99.49-.93 1.02-1.82 1.5-2.75.04-.04.04-.09.04-.13l5.23 3.04v-4.3l-69.07-40.14c.6-1.01 1.17-1.98 1.78-2.96 1.7-2.87 3.44-5.75 5.15-8.62 1.62-2.72 3.24-5.47 4.9-8.19 1.01-1.66 1.86-3.52 3.32-4.74a7.33 7.33 0 0 1 2.96-1.5 5.18 5.18 0 0 1 2.3 0l.86.25c.32.12.85.44 1.25.69l5.07 2.91 8.3 4.78 9.28 5.35c2.63 1.5 5.22 3 7.86 4.54l4.13 2.39.2.12c1.38.77 2.6-1.3 1.22-2.1l-2.96-1.7c-2.43-1.43-4.86-2.8-7.3-4.22l-9.23-5.35-8.75-5.06-5.95-3.45-1.14-.64a7.76 7.76 0 0 0-5.91-.81 9.85 9.85 0 0 0-5.88 4.53l-.77 1.26-4.3 7.2c-1.81 3.05-3.6 6.09-5.42 9.12-.97 1.66-1.99 3.33-2.96 4.99l-25.15-14.63 2.5-.6c4.46-1.1 8.88-2.2 13.34-3.25 0 .08 0 .17.04.29.04.65.52 1.21 1.21 1.21.6 0 1.26-.56 1.22-1.21-.04-.29-.04-.57-.08-.85 3.68-.9 7.37-1.79 11.01-2.72.94-.24 1.9-.44 2.84-.69.28-.08.45-.2.6-.44.33-.53.66-1.1.98-1.66 2.15-3.6 4.3-7.25 6.44-10.86 2.47-.12 4.94-.24 7.46-.32.36 0 .72-.04 1.13-.04h1.98l.29 2.47a11.3 11.3 0 0 0 5.5 8.54c2.64 1.54 5.36 3.04 7.99 4.54 4.94 2.8 9.88 5.63 14.87 8.43 3.32 1.9 6.64 3.77 10 5.67a7.86 7.86 0 0 0 7.05.36v-2.83c-.08.08-.16.12-.24.2-2.03-1.94-4.05-3.85-6.04-5.8l-1.58-1.5c1.66-.23 3.32-.48 4.99-.76.93-.16 1.9-.28 2.83-.45v-1.21l-7.05 1.05c-.77.12-1.5.25-2.27.33-.44.08-.56.72-.28 1a41400.23 41400.23 0 0 0 8.22 7.95c-1.46.52-3.2.32-4.53-.45l-3.65-2.06-13.77-7.82c-4.3-2.43-8.55-4.86-12.85-7.3-.8-.48-1.66-.93-2.47-1.41a8.73 8.73 0 0 1-4.33-6.56c-.49-3.93-.9-7.9-1.38-11.83-.36-3.32-.77-6.65-1.13-9.97-.2-1.86-.4-3.69-.65-5.55-.04-.44-.12-.89-.16-1.34 7.94-.8 13.4-1.86 16.28-3.15l.4-.17 19.05-25.68 4.78-16.13-12.24-13.93a6.14 6.14 0 0 0-8.95-7.58l-3.6-2.75L785.65 181v-9.56l22.29-26.33c1.21 2.63 2.38 5.27 3.6 7.9a277.6 277.6 0 0 1 2.27 5.02l.48 1.1c.29.64.61 1.3.9 1.98l.24.53v.04c0 .08 0 .16.04.24.04.24.04.45.04.69.04.65.08 1.34.04 1.98-.04 1.26-.16 2.92-1.17 3.77-.61.49.24 1.38.85.85 1.01-.85 1.33-2.3 1.46-3.6.12-1.18.12-2.35 0-3.53a3.3 3.3 0 0 0-.25-1.1c-.24-.48-.44-.96-.69-1.49-.2-.49-.44-.97-.64-1.46-.86-1.9-1.7-3.77-2.6-5.67a.61.61 0 0 0 .37-.28c.64-1.34 1.38-2.68 2.02-4.01.25-.49.12-1.18.12-1.7v-3c0-.16.09-.61 0-.81.33-.7.7-1.34 1.02-2.03.8-1.62 1.62-3.2 2.43-4.82.12-.24.2-.45.16-.73-.04-.36-.16-.69-.24-1.05-.08-.33-.13-.65-.2-.97l1.25-1.46 11.02-.45ZM665.79 19.61l-.12-8.3c0-.78-.04-1.55-.04-2.32h9.89c.93.73 1.9 1.46 2.83 2.2v3.03l-4.62 5.3h-7.53c-.16.05-.29.05-.4.09Zm-94.18-4.05.36-.49h.16l-5.63 9.56-.36-1.9 5.47-7.17ZM443.83 30.34c3.12 2.76 11.23 10.45 12.52 16.09.2.8.04 1.66-.36 2.39l-7.5 13.16-14.38-8.47a.65.65 0 0 1-.32-.56v-2.8c0-.12.04-.24.08-.32l9.6-15.23.36-4.26Zm-271.86 70.53c3.32.73 6.64 1.46 9.96 2.23l2.68.6c-.45 2.11-.94 4.18-1.38 6.29-.57-.13-1.17-.25-1.74-.4-2.4-.58-4.78-1.1-7.21-1.67l-.33-.08c-.77-.65-1.54-1.34-2.3-1.99.11-1.66.2-3.32.32-4.98Zm-12.93 7.05c.65-.36 1.59-.69 1.99-1.34 1.3-1.94 2.47-3.93 3.73-5.91h1.82v7.82c0 .28-.04.65.08.93.16.44.69.81 1.01 1.13l1.38 1.38c.37.37.77.53 1.26.73.85.37 1.7.69 2.59 1.05 2.51 1.06 5.02 2.07 7.57 3.12l5.07 2.07c.45.2 1.01-.2 1.13-.65.17-.53-.16-.93-.64-1.13-4.62-1.9-9.2-3.77-13.82-5.68-.57-.24-1.13-.44-1.7-.68l-2.07-2.07v-8.02h.49c.4 0 .85 0 1.3.04-.04.77-.08 1.58-.17 2.35-.04.77-.08 1.5-.16 2.27-.04.36-.12.8-.04 1.17.16.53.9.97 1.3 1.3l1.58 1.38c.6.52 1.33.56 2.06.72l8.39 1.95.49.12c.12.04.24.12.08 0-.2-.16.08.08.16.12.24.16.53.29.77.45 1.25.69 2.51 1.38 3.77 2.1a6.83 6.83 0 0 1 3.44 4.06c.53 1.9.12 4.05-1.34 5.42a7.57 7.57 0 0 1-5.55 1.94 8.92 8.92 0 0 1-3.89-1.33c-4.74-2.67-9.44-5.39-14.18-8.06-.52-.32-1.13-.77-1.7-.97l-.16-.12c-.36-.33-.73-.61-1.1-.94-2.18-1.82-4.4-3.64-6.6-5.5-.04-.05-.08-.08-.12-.08.53-.41 1.18-.78 1.78-1.14ZM87.46 242.54c-.28.36-.24.93-.28 1.38-.12.89-.2 1.78-.33 2.67-3.11-3.44-6.23-6.93-9.35-10.37a1678 1678 0 0 1-8.19-9.08c1.79-1.9 3.53-3.8 5.31-5.7a67.71 67.71 0 0 0 5.6 7.9 24.98 24.98 0 0 0 5.26 5.06c1.01.64 2.14 1.3 3.4 1.09.9-.16 1.74-.6 2.43-1.14a16.7 16.7 0 0 0 3.36-3.4c.53.49 1.06.97 1.58 1.42l.12.12-8.62 9.76a.95.95 0 0 0-.29.29Zm1.18-35.98c.32.33.73.4 1.13.33 2.15 2.02 4.3 4.09 6.44 6.12 2.19 2.1 4.42 4.17 6.6 6.27l2.2 2.07.64.65c-2.63 3-5.27 5.95-7.9 8.95-.2.2-.36.45-.56.65-2.48-2.27-4.99-4.54-7.5-6.8-.2-.17-.4-.37-.6-.53l-.05-.04c-3.77-3.45-7.57-6.89-11.34-10.33l-2.55-2.31c.36-3 .69-6 1.05-8.96l.12-1.05 3.81-3.8 2.19 2.06c1.98 1.9 4 3.8 6 5.67-.09.37.03.77.32 1.05Zm5.1 23.54a17.23 17.23 0 0 1-2.92 3.04c-.64.49-1.33.93-2.06 1.1-.08 0-.12.03-.2.03h-.49a10.66 10.66 0 0 1-3.48-2.06v-.17c-.4-1.7-.9-3.4-1.46-5.06 1.46-.44 2.87-.89 4.33-1.34.37-.12.7-.2 1.06-.32l5.22 4.78Zm-6.24-5.71c-.8.24-1.62.53-2.43.77-.73.24-1.46.44-2.19.69-.04 0-.08.04-.12.04-.28-.73-.56-1.5-.85-2.23a4.05 4.05 0 0 0-1.21-1.86 3.74 3.74 0 0 0-3.04-.81 5.3 5.3 0 0 0-1.62.44l-.57-.93 2.6-2.8c.32-.32.64-.68.93-1 2.83 2.54 5.67 5.14 8.5 7.69Zm-5.47 3.2c.37 1.01.65 2.06.94 3.08a24.9 24.9 0 0 1-1.7-1.9c-.13-.13-.2-.29-.33-.41.4-.24.77-.53 1.1-.77Zm-1.82-.16a76.86 76.86 0 0 1-3-4.14c-.2-.28-.36-.56-.56-.85.28-.08.56-.2.85-.24.85-.16 1.74-.08 2.39.53.44.4.65.89.85 1.38.32.76.6 1.53.89 2.3-.49.33-.97.65-1.42 1.02Zm64.05 36.01c-2.6 3.52-5.19 7.05-7.78 10.53 0 .04-.12.17-.12.17-.08.08-.33.36-.45.44-.16.12-.28.24-.44.37-.45.32-.97.52-1.5.69-.65.16-1.34.12-2.03.12-1.05 0-2.1-.04-3.16-.2-4.05-.66-7.57-2.68-11.1-4.63a376.1 376.1 0 0 1-17.78-10.77l-2.07-1.34c-.08-.04-.2-.12-.28-.2l-.04-.04c-1.34-1.66-2.84-3.16-4.21-4.74l-4.5-5.02c.97-.81 1.9-1.62 2.88-2.47 1.58-1.34 3.11-2.96 4.98-3.9a9.71 9.71 0 0 1 7.37-.44c1.22.37 2.4.73 3.6 1.14 4.46 1.37 8.96 2.75 13.42 4.17 3.12.97 6.28 1.98 9.4 2.91.97.29 2.02.45 3.07.41l1.14.24 2.39.57c.77.16 1.54.28 2.3.49 1.18.28 2.32.69 3.45 1 1.74.53 3.52 1.1 5.27 1.63.77.24 1.54.49 2.3.69a434.79 434.79 0 0 0-6.11 8.18Zm6.52-9.44-7.09-2.19c-.97-.28-1.94-.6-2.91-.89-1.34-.4-2.72-.64-4.1-.93.81-.28 1.62-.6 2.31-1.05 2.31-1.42 3.77-3.77 5.3-5.92l.37-.48a916.5 916.5 0 0 0 6.73 6.16c-.16 1.78-.37 3.56-.6 5.3Zm-28.32-41.64a137.1 137.1 0 0 1 15.24 10.7c2.06 1.61 3.97 3.44 5.95 5.22l9.64 8.67c1.99 1.82 3.97 3.64 6 5.43 0 .04-.04.08-.04.12-.33 1.37-.65 2.75-1.01 4.13h-5.52c-3.8-3.53-7.65-7-11.46-10.53-3.85-3.57-7.74-7.1-11.58-10.66-.13-.12-.57-.69-.78-.73-.16-.24-.36-.48-.52-.77-1.54-2.22-3.04-4.45-4.58-6.72-1.54-2.23-3.12-4.46-4.66-6.73a81.5 81.5 0 0 1 3.32 1.87Zm-17.42-19.37c2.07 3.2 4.14 6.4 6.2 9.64 1.46 2.31 2.88 4.62 4.38 6.93 3.44 5.27 7.09 10.41 10.65 15.6.33.44.6.97.97 1.34.53.52 1.14 1 1.7 1.53 2.56 2.35 5.15 4.7 7.7 7.05 2.1 1.95 4.22 3.9 6.32 5.8l-.2.2c-.53.69-1.01 1.42-1.54 2.1-.57.82-1.13 1.63-1.82 2.35a8.46 8.46 0 0 1-8.15 2.23c-2.91-.85-5.79-1.78-8.67-2.71-4.53-1.42-9.07-2.8-13.57-4.21-1.33-.4-2.67-.81-4-1.26a12.5 12.5 0 0 0-7.01-.32 11.94 11.94 0 0 0-4.9 2.59c-.61.49-1.18 1.01-1.79 1.5-1.05.89-2.1 1.82-3.16 2.71l.37-2.91a947.4 947.4 0 0 0 6.15-6.97c3.33-3.77 6.69-7.54 10.01-11.35.77-.85 1.54-1.74 2.3-2.59.21-.24.25-.6 0-.85l-2.63-2.51c-2.1-1.99-4.2-4.01-6.31-6-2.4-2.26-4.82-4.53-7.22-6.84l4.9-4.54c2.84-2.63 5.68-5.23 8.51-7.86.25-.12.53-.4.81-.65Zm-12.72-18.02a19.3 19.3 0 0 1 3.81 4.37c.65 1.01 1.26 2.03 1.95 3.04a579.84 579.84 0 0 1 5.63 8.5l-4.62 4.26-8.5 7.86-1.59 1.46a580.22 580.22 0 0 0-5.22-4.95c-.94-.89-1.87-1.82-2.8-2.67l3.69-3.69 1.21-1.21c.2-.2.25-.65 0-.85l-6.4-5.67c-.16-.12-.32-.29-.48-.4l7.73-8.4c.4-.4.77-.84 1.18-1.25.2-.2.2-.49.08-.73-.4-.85-.77-1.74-1.18-2.6a13.4 13.4 0 0 1 5.51 2.93Zm-6.72-2.84c.4.9.77 1.78 1.17 2.63a1507.5 1507.5 0 0 0-7.86 8.55c-.4.4-.76.85-1.17 1.26-.2.24-.24.65 0 .85l6.4 5.67c.16.12.28.28.45.4l-8.07 8.07c-.4.4-.85.76-1.17 1.17-.28.37-.28 1.1-.32 1.54l-.86 7.21c-.08.73-.24 1.46-.24 2.19 0 .36.2.53.45.73l3.08 2.8.64.6a23890.3 23890.3 0 0 1-9.52 10.25l-.72-1.26c-1.3-2.3-2.64-4.61-3.93-6.92l-3.16-5.55a15.82 15.82 0 0 1-1.95-8.47c0-.6.08-1.26.12-1.86l.04-.2c2.43-2.52 4.86-5.03 7.34-7.54 1.58-1.62 3.16-3.24 4.74-4.9 1.33-1.38 2.71-2.68 4.09-4.01a78.73 78.73 0 0 0 7.45-8.55c1.1-1.46 2.15-3 3-4.66Zm-4.01-18.31c0 .4-.04.8-.08 1.13l-.25.98a1.2 1.2 0 0 1-.16.4s-.16.32-.2.36c-.12.25-.28.53-.45.78l-.24.36-.12.12-.04.04c-.33.37-.6.73-.97 1.05-.12.13-.29.25-.4.37 0 0-.05.04-.09.04 0 0-.04.04-.08.04s-.04.04-.08.04h-.2c-.85.08-1.7.08-2.56.04-.4 0-.8 0-1.21-.04h-.08c-.08 0-.16-.04-.29-.08-.08-.04-.16-.04-.24-.08a.31.31 0 0 1-.16-.08 2.96 2.96 0 0 1-1.74-3.16c.08-.57.32-1.01.56-1.5l2.56-5.3 2.06-4.3.12-.33c.53-.16 1.06-.28 1.58-.44a118.5 118.5 0 0 1 2.76 9.56Zm42.37-40.27 1.62 1.26c-.52.6-1.1 1.21-1.62 1.82a38.55 38.55 0 0 1 0-3.08Zm1.46 5.06 2.07-2.3c1.01.77 1.98 1.54 3 2.3h-5.07ZM626.5 425.2l5.95-10.86 5.47-9.96c.45-.85.93-1.7 1.38-2.56 0-.03.04-.08.04-.08.08-.08.2-.16.24-.24.25-.16.45-.36.7-.52 2.62-2.11 5.26-4.18 7.93-6.29.85.53 1.7 1.02 2.55 1.55 2.6 1.57 5.23 3.15 7.82 4.74l9.48 5.7c2.72 1.67 5.47 3.33 8.19 4.95l2.7 1.62c.13.08.25.12.33.2-.73 1.38-1.5 2.72-2.23 4.1-1.62 2.91-3.2 5.87-4.82 8.78-.64 1.18-1.21 2.44-1.98 3.53-1.66 2.35-3.32 4.66-4.94 7-1.26 1.75-2.55 3.5-3.73 5.27-.97-.6-1.9-1.21-2.88-1.86-.56-.37-1.17-.77-1.78-1.13-.4-.25-.69-.2-1.13-.2-3.53.2-7.05.4-10.58.56-1.09.04-2.18.12-3.28.16-3.56-2.1-7.17-4.21-10.73-6.32a519.49 519.49 0 0 0-7.05-4.13c.8-1.21 1.58-2.6 2.35-4.01ZM787.49 93.98l21.47 18.11v10.66L800.2 133c.24-.61.12-1.34.12-1.99 0-1.1.28-1.94.97-2.75l1.22-1.46 4.13-4.86c.36-.4.73-.81 1.05-1.26.49-.57.28-1.62.28-2.35 0-.8.13-1.7 0-2.51-.08-.49-.56-.77-.93-1.05-3.07-2.31-6.11-4.66-9.2-6.97-1.37-1.05-2.75-2.1-4.12-3.12-.25-.2-.49-.4-.73-.57-.61-.4-1.42-.52-2.15-.4-.37.08-.77.2-1.1.44-.2.12-.4.29-.52.49-.08.08-.24.32-.12.16-2.1 2.76-4.26 5.47-6.4 8.18-.73.94-1.46 1.87-2.15 2.8-.4.53-.85 1.42-1.5 1.7-.16.08-.36.04-.53.08-.48 0-.97.04-1.45.04l10.4-16.89v-6.73Zm11.06 38.33c-.93 1.42-1.87 2.8-2.8 4.21h-4.5c-2.14-1.46-4.25-2.92-6.4-4.37-3.48-2.4-6.96-4.78-10.45-7.22-.4-.28-.85-.56-1.25-.89l2.83-4.62c.7-.03 1.38-.03 2.07-.08.73-.04 1.42.05 2.06-.36a6.02 6.02 0 0 0 1.58-1.62c.08-.12.2-.24.29-.4 0-.05.04-.05.04-.05 1.86-2.47 3.8-4.9 5.71-7.33.85-1.1 1.7-2.19 2.55-3.24.29-.36.57-.81 1.06-.9.44-.07.76.17 1.09.41 2.43 1.87 4.86 3.7 7.3 5.55 1.45 1.1 2.9 2.23 4.37 3.33.73.56 1.45 1.13 2.18 1.66v3.28c-1.09 1.25-2.14 2.55-3.24 3.8-.73.9-1.5 1.75-2.22 2.64-.53.65-1.18 1.26-1.59 1.98-.76 1.38-.72 2.8-.68 4.22Zm-28.97 10.57c3.24 2.03 6.52 4.01 9.76 6.04l2.56 1.58v3.93l-10.05 11.78-2.63 15.07-9.93 12.36c-8.34 9.2-19.32 13.33-23.66 14.67l-.36.12-1.26-1.9c.16-12.97 6.16-27.43 6.69-28.65l8.83-15.67 13.98-22.73c2.06 1.17 4.13 2.19 6.07 3.4Zm-5.06-4.86 7.61-12.4c1.26.85 2.51 1.7 3.77 2.6-2.23 3.72-4.45 7.5-6.68 11.22l-.49.8c-1.38-.76-2.8-1.5-4.21-2.22Zm15.31 9.07-6.68-4.13c-.98-.6-1.9-1.21-2.88-1.78a910.9 910.9 0 0 0 6.28-10.61l.8-1.34.17.12 10.45 7.17c.57.37 1.1.81 1.66 1.18l-6.6 10.25-.49.77c-.08-.05-.16-.09-.2-.13-.85-.48-1.66-1.01-2.5-1.5Zm3.93 3.61v-.45c2.3-3.6 4.66-7.2 6.97-10.77.24-.37.48-.73.69-1.1h4.21l-11.91 13.94c.04-.53.04-1.1.04-1.62ZM746.61 44.08c.77 0 1.3-.29 1.74-.9.08-.08.13-.16.2-.24.17-.24.37-.48.53-.73-.12 1.46-.04 2.96-.04 4.42v1.21l-4.53-3.72c.68-.04 1.37-.04 2.1-.04Zm-33.83-9.48-9.55-8.51c-.41-.37-.82-.73-1.26-1.1v-1.86l3.52 3.04 8.51 7c-.36.45-.77.94-1.22 1.43Zm26.01 53.1 9.73-12.27 4.74-5.95.08-.09c.36-.48.56-1.25 0-1.7-1.3-1.09-2.6-2.14-3.85-3.24-3.08-2.59-6.2-5.14-9.28-7.74-3.73-3.11-7.5-6.23-11.22-9.35-3.24-2.72-6.48-5.4-9.72-8.1l-4.22-3.53.94-1.05 56.5 46.58 11.43 9.6v8.76l-37.3 60.52h-45.74l1.33-7.3c.37-2.06.73-4.09 1.14-6.15.16-.85.24-1.74.44-2.55l5.47-.13c4.34-.12 8.67-.2 13-.32 3.81-.08 7.58-.2 11.39-.28.85-.04 1.7-.04 2.51-.08.69-.04 1.42-.53 2.02-.81 3.9-2.03 7.82-5.35 8.4-9.93.03-.36.07-.73.07-1.1a11.26 11.26 0 0 0 4.66-3.56 9.12 9.12 0 0 0 1.5-6.84 12.76 12.76 0 0 0-1.05-3.4l5.22-1.83c1.99-.69 3.97-1.42 6-2.1.73-.25.4-1.42-.33-1.18-3.07 1.1-6.11 2.15-9.2 3.24-.72.24-1.45.53-2.18.77-.08-.16-.12-.32-.2-.45-.4-.89-.9-1.7-1.46-2.5a32.95 32.95 0 0 0-4.34-4.87 60.58 60.58 0 0 0-8.7-6.68l-1.06-.61s0-.04-.04-.04a.5.5 0 0 0-.4-.2c-1.26-.7-2.6-1.22-3.9-1.83l-1.09-.48c-.04 0-.04 0-.08-.04 2.92-3.77 5.88-7.46 8.8-11.18Zm6.57 42.95c-.45.16-.94.36-1.42.48-1.5.45-3.08.9-4.66.85-1.42-.04-3.2-.16-4.3-1.13-.24-.2-.44-.49-.56-.81.04.08 0 .04 0-.04v-.37c-.04-.77-.04-1.53-.08-2.3-.04-.61-.13-1.26 0-1.87.08-.48.32-.89.6-1.25h6.77c.28 0 .57.04.81 0 .37-.04.6-.33.85-.61l2.84-2.84 1.37-1.38c.08-.08.49-.4.61-.56.04 0 .08-.04.12-.04.33-.12.65-.25 1.02-.37.4-.16.85-.28 1.25-.44l.12.28c0 .04.04.04.04.08.04.08.09.16.09.25.12.36.28.72.36 1.09a8.85 8.85 0 0 1-.08 5.87c-.85 2.1-2.68 3.53-4.74 4.5-.33-.36-1.14-.28-1.05.36.04.17.04.2.04.25Zm-7.01-16.98a57.43 57.43 0 0 0-.57-5.3 24.56 24.56 0 0 0-1.13-4.83 63.86 63.86 0 0 1 5.02 3.7c3.12 2.54 6.44 5.46 8.18 9.19.08.16.16.36.25.52l-1.7.61c-.33.12-.74.2-1.02.4-.4.33-.8.82-1.17 1.18l-3.9 3.9H736c.04-.09.12-.17.16-.25a11.4 11.4 0 0 0 2.35-6.48c-.04-.86-.08-1.75-.16-2.64Zm-26.86 11.95c1.05-2.47 2.15-4.9 3.12-7.41 1.21-1.54 2.47-3.08 3.68-4.62l9.28-11.7c.57-.7 1.14-1.42 1.66-2.11.04.04.12.12.2.16 1.1.49 2.2 1.01 3.29 1.5.64.28 1.3.57 1.9.89.9 1.13 1.3 2.84 1.58 4.25.4 1.87.6 3.77.77 5.64.12 1.3.2 2.55.24 3.84a9.77 9.77 0 0 1-1.5 5.19c-.52.89-1.21 1.58-1.82 2.39a4.37 4.37 0 0 0-.85 2.88c.04.72.04 1.5.08 2.22 0 .53-.04 1.14.08 1.62.45 1.74 2.47 2.43 4.05 2.68 1.26.2 2.51.24 3.73.04 1.42-.25 2.92-.61 4.34-1.1-.33 4.1-3.7 7.17-7.18 9.12-.56.32-1.17.6-1.78.89l-.24.12c.2-.08.04 0-.04 0H736c-.2 0-.4 0-.57.04-.48 0-.93.04-1.42.04l-10.77.25c-4.34.12-8.63.2-12.97.32-2.06.04-4.13.04-6.2.12.13-.24.25-.48.33-.73.65-1.5 1.25-3 1.9-4.5a769.1 769.1 0 0 0 5.19-12.03Zm-41.4 2.15c3.44-.04 6.92-.08 10.37-.16 4.17-.04 8.38-.12 12.56-.16 3.64-.04 7.29-.13 10.9-.17 1.41 0 2.83 0 4.2-.04-1.86 4.38-3.72 8.8-5.54 13.17v.04c-.08.08-.2.16-.25.28-2.14 3.45-4.3 6.9-6.4 10.33a5.1 5.1 0 0 1-.52.81c-.49 0-.98 0-1.46-.04-1.9-.04-3.81-.04-5.71-.08l-8.39-.12c-3.4-.04-6.76-.08-10.17-.16-.77 0-1.5-.04-2.27-.04-.08-2.4-.16-4.82-.2-7.21-.16-4.7-.28-9.44-.45-14.14-.03-.77-.03-1.58-.08-2.35 1.14.04 2.27.04 3.4.04Zm-47.8 26.17c.44-.08.89-.2 1.37-.28.45-.08.93-.2 1.38-.29.08 0 .16-.04.24-.04.25.04.57 0 .81 0 1.9.04 3.81.04 5.67.08l9.69.13c4.05.04 8.1.12 12.1.16 4.14.04 8.31.12 12.45.16.32.24.8.24 1.13 0 3.89.04 7.78.12 11.7.16 3.33.04 6.65.08 9.97.16 2.03.04 4.1.04 6.12.08.37 0 .73.05 1.1 0 1-.04 1.53-1.3 1.98-2.06.8-1.34 1.66-2.67 2.47-3.97-.73 3.93-1.42 7.82-2.15 11.75-.04.32-.12.65-.16.97-.12.77.33 1.54 1.18 1.54h42.61c1.06 0 2.15.04 3.2.04l-7.7 13.65-.08.16c-.28.65-6.44 14.95-7 28.8l-106.7-5.58h-.09l-4.01.12v-1.54c0-4.46-.04-8.95-.04-13.41v-2.51l8.14-7.17c.4-.37.81-.7 1.18-1.06.44-.36.4-1 .2-1.46-2.15-4.5-4.3-8.95-6.4-13.44-.24-.53-.49-1.02-.73-1.54.16-1.18.24-2.4.36-3.6Zm-14.91-3.65c1.74-.12 3.52-.24 5.26-.32.77-.04 1.58-.04 2.35-.16 1.62 1.21 3.28 2.39 4.9 3.6-.12 1.38-.24 2.8-.32 4.18-.08.8.65 1.82.97 2.55 1.7 3.52 3.37 7.09 5.07 10.61.32.7.68 1.42 1 2.1-1.73 1.55-3.51 3.09-5.26 4.67-.93.8-1.82 1.62-2.75 2.43-.25-3.93-.45-7.86-.7-11.83l-.11-2.1c-.04-.66-.53-1.22-1.22-1.22-.65 0-1.25.56-1.21 1.21.28 5.03.6 10.09.89 15.11l.12 2.11c.04.53.36.97.85 1.13v4.9c0 3.53 0 7.06.04 10.54l-33.9 1.01c-5.44.24-10.9-.89-15.76-3.36l-6.08-3.04-3.57-.89.33-3.8-4.1-8.68c.41-.52.17-1.3-.36-1.7l-2.35-31.52c.93.04 1.87-.04 2.8-.16l.77-.12c.48.77.97 1.5 1.46 2.27a7.18 7.18 0 0 0 4.65 3.28c1.02.16 1.95.08 2.96 0l11.1-.73 16.61-1.1c5.19-.28 10.37-.6 15.56-.97Zm-57.97 33.63c.52-.33 1.09-.6 1.62-.93l3.48 7.45-.28 3.57-.08.04-4.74-10.13Zm1.78 12.35-.45.33c.08-.2.12-.4.16-.65 0-.04.05-.12.05-.2l.24.52Zm-2.31-14.86-3.4-32.7 2.35-.08 2.39 32c-.45.25-.9.53-1.34.78ZM572.38 55c.04-.64 0-1.25 0-1.9v-1.86c1.17-.04 2.35-.13 3.52-.17 3.48-.16 6.93-.36 10.41-.48.69-.04 1.18.08 1.7.4.37.2.49.33.77.61.16.2.12.12.25.32l.16.29c0 .04.12.2.12.24.32.73.24 1.42.24 2.27v6.56c0 3.49.29 7.01.77 10.45.4 2.8.97 5.64 1.99 8.3.36.94.73 1.87 1.21 2.76.33.61.65 1.18.93 1.79a14.9 14.9 0 0 1 1.06 3.12c.28 1.25.4 2.47.48 3.76.16 2.64.33 5.31.45 7.94.24 4.5.52 9 .77 13.45.28 5.03.57 10.09.89 15.11.24 4.3.49 8.63.77 12.93.12 2.26.28 4.53.4 6.84v.33c0 .16.05.28.09.44-5.84.37-11.67.77-17.5 1.14-5.15.32-10.3.69-15.48 1l-3.52.25a5.5 5.5 0 0 1-2.31-.28c-1.5-.65-2.2-1.99-3-3.28-.08-.08-.12-.2-.2-.29a7.14 7.14 0 0 0 3.48-2.8c.57-.88.9-1.94.93-2.99v-14.09c1.46-2.64 2.88-5.31 4.34-7.95.28-.52.56-1.01.52-1.62-.04-.69-.08-1.38-.08-2.02-.12-2.84-.28-5.67-.4-8.51l-.61-11.83-.6-12.27-.5-9.77c-.08-1.42-.16-2.83-.2-4.25a6.41 6.41 0 0 1 1.38-3.89l2.96-4.17c1.05-1.46 2.06-2.92 3.12-4.38.32-.6.64-.97.68-1.5Zm-4.06-7.37c.25.45.53.9.77 1.34-.52.04-1.09.04-1.62.08l.85-1.42Zm-39.9 66.92 20.66-34.84 16.9-28.19c1.33-.08 2.63-.12 3.97-.2v3.28c-1.18 1.66-2.36 3.32-3.53 4.94l-2.35 3.32c-.45.61-.93 1.22-1.25 1.9a8.77 8.77 0 0 0-.98 4.06c0 .32.04.65.04.97l.25 4.66c.28 5.43.52 10.86.8 16.24l.86 17.5c.12 2.11.2 4.26.32 6.36.04.98.04 1.99.12 2.96-1.21 2.19-2.39 4.42-3.6 6.6l-.85 1.58c-.2.33-.37.65-.4 1.06-.05.8 0 1.66 0 2.47v9.76c0 .77.03 1.54 0 2.27a4 4 0 0 1-.32 1.1c-.05.04-.1.16-.1.16l-.32.56c0 .04-.04.04-.04.08-.04.09-.12.13-.16.2-.12.17-.28.3-.4.41l-.17.12-.12.09c-.16.12-.32.2-.49.32l-.52.28a.3.3 0 0 0-.16.08.43.43 0 0 1-.2.09l-1.14.36-1.13.24h-.04c-.09 0-.17.04-.25.04-.16 0-.36.04-.53.04-.68.04-1.33.04-2.02.04-.45-3.52-3.08-17.17-16.45-21.8l-3.89-1.73c-2.22-2.23-2.67-5.15-2.71-6.8l.2-.58Zm-4.7 8.02 9.64 4.34.17.08c11.42 3.93 13.69 15.84 14.1 18.8l-2.36.08c-.12-2.35-1.41-11.7-14.82-17.9v-.05h-.13c-.52-.24-1.05-.48-1.58-.69l-6.23-2.5 1.21-2.16Zm-3.12 5.35.7.29c-.33.08-.7.16-.98.24l.28-.53Zm-37.96 68.5.05-.03 11.94-21.96c.05.36.13.73.17 1.05l1.7 11.47c.12.69.2 1.37.32 2.1-1.1 1.99-2.14 3.97-3.24 5.92l-5.47 10.05-.12.24c-1.01-2.1-1.94-4.26-3-6.32-.4-.81-1.58-1.1-2.35-1.42a6.51 6.51 0 0 0-.52-.24l.52-.85Zm-1.78 2.92c.69.33 1.42.65 2.1.97.25.5.45.98.7 1.5a15.3 15.3 0 0 0-6.97 4.38l4.17-6.85Zm-5.83 13.13a33.7 33.7 0 0 1 2.43-3.53c.44-.56.97-1.13 1.5-1.62.24-.24.48-.48.77-.69a11.67 11.67 0 0 1 5.02-2.6 149 149 0 0 0 2.15 4.47c.48.93 1.01 1.82 1.54 2.71.08.16.16.33.28.49-.65.36-1.3.73-1.9 1.13a10.97 10.97 0 0 0-2.88 3.08l-3.16 4.94a49.8 49.8 0 0 1-.97 1.54 3.12 3.12 0 0 1-3.69 1.18c-.56-.25-1.1-.69-1.58-1.06-.8-.6-1.62-1.21-2.43-1.78-.44-.32-.85-.65-1.3-.93 1.46-2.39 2.72-4.9 4.22-7.33Zm-7.13 8.22c.77.57 1.54 1.14 2.3 1.74 1.3.98 2.56 1.99 3.9 2.88a5.48 5.48 0 0 0 5.91.08 7.31 7.31 0 0 0 2.15-2.3c1.13-1.75 2.27-3.53 3.36-5.27a11.3 11.3 0 0 1 1.9-2.44c.7-.64 1.54-1.09 2.4-1.53.6 1.05 1.21 2.1 1.78 3.16.69 1.25 1.41 2.47 2.1 3.72.77 1.38 2.88.12 2.11-1.21-2.07-3.69-4.17-7.34-6.24-11.02-.12-.16-.2-.37-.28-.53l3.16-5.8 5.47-10.08c.36-.69.8-1.38 1.13-2.1.37-.7 0-1.9-.12-2.64-.53-3.64-1.1-7.29-1.62-10.94-.29-1.78-.53-3.6-.81-5.38l15.72-28.85 4.94-8.42c1.74-.98 6.4-3.12 11.95-2.2 12.44 5.88 12.44 14.47 12.4 14.84v.12l3.85 36.98c-3.45 1.95-6.9 3.93-10.3 5.88-.8.48-1.61.93-2.47 1.42-1.37.76-.12 2.87 1.22 2.1 2.23-1.25 4.46-2.55 6.68-3.8 1.87-1.1 3.77-2.15 5.63-3.25l1.95 4.13c.04.09.04.13.08.2.12.33.2.66.28.98l.13.53c0 .08.04.2.04.28 0 .04 0 .08.04.16.04.49.08.93.08 1.42 0 .24 0 .53-.04.77 0 .12-.04.2-.04.32l-.04.29c-.13.56-.29 1.13-.5 1.7 0 0 0 .04-.03.08 0 .04-.04.08-.04.12-.04.12-.12.24-.2.4-.17.29-.33.61-.53.9a8.9 8.9 0 0 1-1.46 1.62 12.7 12.7 0 0 1-2.35 1.62c-.28.16-.49.4-.57.65l-28.84 14.9-20.3 15.6.09.08-17.22 13.2-11.22.37-3.2-5.1c0-2.31-1.3-5.07-2.43-7.05l8.1-13.33Zm65.63 62.1.08.45 11.62 14.54 13.82 16.25 12.8 12.4 9.36 6.52 4.94 4.17a5.68 5.68 0 0 1 2.02 4.38v1.17c0 .9-.2 1.78-.6 2.55l-4.05 8.1c-1.1-.69-2.23-1.33-3.33-2.02-.24-.16-.48-.29-.73-.45-.52-.32-1.37-.12-1.66.45-.32.6-.16 1.3.45 1.66 1.38.85 2.8 1.66 4.17 2.51l-16.65 33.34a18.72 18.72 0 0 1-5.3 6.48l-.09.04c-.76.61-1.74.81-2.67.57l-5.43-1.38-6.12-4.21-9.4-8.02a57.74 57.74 0 0 0-9.6-6.6L513 368l-4.46-4.86-14.79-8.14-13.44-4.5-11.55-5.19-9.68-6.32-4.54.2-5.23-1.5c-4-1.94-6.36-7.24-6.76-8.26l-2.4-18.39a117.68 117.68 0 0 0-2.79-16.57l.77-11.5 4.9-10.09 11.43 1.18 17.46-12.64.65-8.63 4.41-2.72.08-.04 21.31-16.36 19.85 26.53 5.27.49h.16c4.9 0 7.98 6.27 8.67 7.81-.36 5.92 1.14 13.94 1.22 14.3Zm-42.34 75.31-.6 4.26-8.76-5.84-13.6-4.53-6.4-1.5-1.67-2.23v-4.05l6.8 4.45 11.88 5.31 12.35 4.13Zm-22.52-102.8-.33 4.33-14.94 10.86-7.94-.81a.57.57 0 0 1 .16-.12l23.05-14.26Zm-2.4-5.51 4.59-.16-4.5 2.8-.08-2.64Zm-8.7-12.11c.36.8.69 1.58.85 2.26l-2.4.29 1.55-2.55Zm-31.28 45.29a64.27 64.27 0 0 0 .9 21.1l3.24 19.37c-1.02-5.27-4.14-10.41-8.27-13.05-4.33-2.71-10-2.67-14.3-1.78l18.43-25.64Zm4.3 41.52 2.23 13.5c.12 1.37 1.37 13.48 12.43 22.72l-6.11-2.27-9.24-3.77-13.29-9.52c6.28-1.82 12.96-7.37 14.06-16 .16-1.5.12-3.08-.08-4.66Zm-36.74 3.65c2.26-2.88 5.67-7.05 10.12-12.6.53-.65.93-1.14 1.18-1.42 1.7-.9 9.56-3.16 14.66.04 4.21 2.67 7.13 9.16 6.44 14.42-.85 6.8-6.32 11.14-11.3 12.4-.53.12-2.75.24-6-.45l-15.91-11.26.8-1.13Zm21.5-52.7-17.82 25.19c-.16-4.5-1.62-10.7-5.83-14.38-2.76-2.43-6.69-3.9-10.78-4.25 13.86-1.7 26.01-3.29 26.9-3.57 1.99-.6 4.78-1.86 7.78-3.4l-.24.4Zm27.31-39.06c-2.15-1.5-4.3-2.96-6.44-4.46l1.74-2.39c.16.04.33.04.49.04.97 0 1.9-.48 2.43-1.37l.28-.45c1.54 1.18 3.12 2.35 4.66 3.53l-3.16 5.1Zm3.8-6.12-4.53-3.44-.12-.12 8.87-14.3-2.06-1.3-9.77 15.8c-.12.2-.36.28-.56.16l-4.06-1.74c-.73-1.22-.36-3.28-.08-4.17l8.27-13.13 7.7 3.69 6.31.8.73.62-10.7 17.13ZM426.14 225c-2.67-1.87-5.39-3.69-8.06-5.55-.9-.61-1.78-1.22-2.63-1.83-.4-.28-.81-.6-1.26-.85l-.04-.04c-.2-.16-.57-.08-.73.08l-2.71 2.92c-.65.69-1.3 1.38-1.95 2.1-.32.37-.69.7-.97 1.06-.32.4-.08 1.22 0 1.7l.49 3.4c.52 3.61 1.05 7.22 1.62 10.86l1.7 11.38.6 4.06c.05.24.09.44.09.68a84.1 84.1 0 0 1-1.9-.85c-2.72-1.17-5.44-2.39-8.1-3.56-.25-.12-.5-.2-.74-.33l-3.48-26.57-15.6-11.59c2.27-3 4.54-6 6.77-8.99.56-.77 1.13-1.5 1.7-2.27.28-.36.2-.85 0-1.21 2.06-3 4.13-5.96 6.16-8.96l1-1.45c.21-.29.05-.65-.2-.86l-4.33-2.87c1.06-1.54 2.1-3.12 3.2-4.66 1.87-2.72 3.73-5.47 5.6-8.18l.56-.81c.36.28.73.64 1.17.89.61.36 1.67 0 2.31-.13.73-.12 1.34-.12 1.79-.72.08-.09.16-.2.2-.29.44-.56.85-1.17 1.3-1.74 3.36-4.5 6.76-9 10.12-13.49.49-.6.93-1.26 1.42-1.86.6.4 1.21.73 1.82 1.13l5.96 3.9c.36.23.73.48 1.13.72.4 2.96.77 5.91 1.18 8.83.69 5.27 1.38 10.5 2.1 15.76l.49 3.69c.04.28.04.52.2.77.16.28.4.4.65.56.65.4 1.3.85 1.99 1.26 4.05 2.6 8.06 5.14 12.1 7.74l.3.16c.11.08.28.12.4.16v1.9c-.04.08-.08.13-.13.2-1.05 1.75-2.14 3.5-3.2 5.23-.08.17-.2.33-.28.49l-4.33-2.07-.4.65-.17-.16c-.28-.28-.57-.69-.9-.85-.4-.25-1-.25-1.45-.37-2.1-.44-4.17-.89-6.28-1.37l-1.74-.37c-.77-.16-1.1 1.01-.32 1.18 1.45.32 2.91.64 4.37.93 1.05.24 2.1.44 3.16.69l1.18.24c.12.04.32.12.48.12l.49.49.48.48-8.5 13.53-.05.13c-.16.44-1.37 4.33.61 6.8l.2.24 2.96 1.26-1.42 1.94c-2.79-1.78-5.5-3.6-8.18-5.46Zm7.38 6.52-15.93 21.75a4.97 4.97 0 0 1-3.32 2.03l-.77.12-1.58-10.57c-.89-5.88-1.74-11.8-2.63-17.67-.16-1.21-.36-2.47-.53-3.68l5.1-5.47 2.8 1.94 7.74 5.31 9.12 6.24Zm-23.46 24.43-7.7 1.13-.65-4.82 6.81 3c.53.24 1.01.44 1.54.69Zm-76.49-4.86c-1.3.16-2.59.28-3.88.44l-1.3-12.15c.04-.37.69-1.78 2.19-1.99l7.09-.97c.08 1.86.2 3.73.28 5.55 0 .32.04.69.04 1.01.04.77 1.26.77 1.22 0-.13-2.27-.25-4.5-.33-6.76l21.76-3 4.2 29.5-31.02 4.61a2.37 2.37 0 0 1-1.74-.45 2.5 2.5 0 0 1-.9-1.58l-1.33-12.6c1.17-.12 2.35-.24 3.52-.4.08 0 .12 0 .2-.04.77-.04.77-1.26 0-1.17Zm29.5-18.2 12.88-1.78c.08.53.2 1.06.32 1.62 1.02 5.23 2.03 10.46 3.08 15.68 0 .08.04.25.04.28v-.24c0 .2.04.4.04.61.12 1.17.2 2.39.33 3.56l.73 7.78-13.17 1.99-4.25-29.5Zm29.37-46.7 4.33 2.87-6.76 9.8c-.04.05-.08.13-.13.17-.4 0-.76.24-1 .6l-8.31 10.99c-1.54 2.06-3.12 4.09-4.66 6.15-.28.37-.57.7-.81 1.06l-.12.24-5.23-3.73.93-1.01c.57-.65 1.1-1.3 1.58-2.03l23.62-35.04 4.66-6.28 1.38 1.1c-.98 1.41-1.9 2.8-2.88 4.21l-5.59 8.18c-.45.61-.85 1.26-1.3 1.87-.16.28 0 .65.29.85Zm-4.01 41.88-.7.94h-1.13c-.48 0-1.17-.13-1.5.32-.56.81-1.09 1.62-1.62 2.43l-5.38-2.55v-.24l-.61-8.43 10.94 7.53ZM378 217.95l1.5-1.99 13.41 9.52-.28.49h-3L378 217.95Zm7.94 12.27c.7 0 1.42.04 2.11 0 .45-.04.65-.48.9-.8.24-.33.48-.7.72-1.02h4.34l2.14-3.57-15.19-10.77.73-.97 15.11 11.22 3.32 25.32-7.81-3.45-6.12-2.67-1.66-11.1c.48-.77.93-1.5 1.42-2.19Zm-10.77-7.86c.16 2.11.28 4.22.44 6.32l-4.53.61c0-.73-.04-1.42-.04-2.15 0-.28-.04-.52-.33-.73a2.2 2.2 0 0 1-.36-.28c-.57-.4-1.1-.81-1.66-1.22l-.49-.36 1.1-.36 5.87-1.83Zm5.14 18.52c-.4-2.03-.8-4.1-1.21-6.12a59.8 59.8 0 0 0-.53-2.63l3.69 1.74 1.25 8.42c-1-.48-2.1-.93-3.2-1.41Zm1.75 2.75c.6.28 1.21.53 1.82.81l.32 2.15-2.8-.12c-.03-.13-.03-.25-.07-.33l-.61-3.08c.48.17.9.37 1.34.57Zm4.98 5.47-.53-3.52c1.22.52 2.43 1.09 3.69 1.62 3.28 1.46 6.56 2.87 9.84 4.33.12.04.25.12.4.16l.74 5.6-18.27 2.7-.73-7.97c-.08-1.06-.2-2.11-.29-3.16l5.15.24Zm14.95-81.06 6-8.02a34.6 34.6 0 0 0 5.79-11.67c.16.04.36.08.52.08.12.04.29.08.4.08.17.16.37.33.53.45l4.14 3.93c-1.22 1.58-2.4 3.2-3.6 4.78-3.13 4.13-6.2 8.26-9.33 12.4l-1.41.24a39.49 39.49 0 0 1-3.04-2.27Zm26.09-14.3c.04.04.12.08.16.16.2.16.36.32.52.53l.17.16a3.84 3.84 0 0 1 .49.81c.03.2.03.4.07.6l.37 2.64c-2.63-1.74-5.27-3.44-7.9-5.19.12-.2.28-.36.4-.56.9-.16 1.75-.25 2.68-.2a6.8 6.8 0 0 1 2.3.56c.13.08.25.12.37.2.12.13.25.2.37.29.04.04.08.04.12.08-.04 0-.08-.04-.12-.08Zm49.5 25.16-8.5 14.25c-.13-.2-.25-.36-.45-.44-1.3-.77-2.72-1.38-4.1-2.03l-.97-.48v-2.55c2.07-3.45 4.18-6.93 6.24-10.38l.57-.93c2.92-.08 5.83-.2 8.75-.28l-1.54 2.84Zm21.1-38.94-5.1 9.44h-12.31c-.4 0-.85.25-1.06.61-1.41 2.47-2.83 4.94-4.25 7.46-.93 1.66-1.86 3.28-2.84 4.94-.4.69-.93 1.41-1.17 2.19a4.64 4.64 0 0 0-.12 2.67 3.98 3.98 0 0 0 2.67 2.75c2.35.65 4.66-.8 5.96-2.63.52-.73.89-1.62 1.3-2.47l2.55-4.98c1.37-2.72 2.79-5.4 4.17-8.1h3.77l-11.75 21.7c-1.5.05-2.96.09-4.46.17-2.1.08-4.21.08-6.32.2-.89.08-1.21.81-1.62 1.5-.6.97-1.17 1.99-1.78 2.96-1.38 2.3-2.8 4.66-4.17 6.97-.37.6-.94 1.3-.98 1.98-.04 1.18 0 2.4 0 3.6 0 .41.25.86.61 1.06 1.74.9 3.49 1.74 5.23 2.63l.36 1.42-8.95 15.03-1.01-.85-6.65-.81-3.89-1.86c.61-1.02 1.26-2.03 1.87-3.08.48-.81 1.01-1.62 1.5-2.47.08-.17.2-.29.28-.45.12-.28.08-.65.08-.93v-1.95l.04-.04c.32-.56.12-1.3-.44-1.66-1.63-1.05-3.29-2.1-4.9-3.12-2.64-1.66-5.27-3.36-7.87-5.02-.44-.28-.85-.57-1.3-.81-.48-3.52-.92-7.09-1.41-10.61-.81-6.04-1.58-12.08-2.39-18.11-.16-1.38-.37-2.76-.53-4.13-.24-1.79-1.94-3.33-3.48-4.06-2.03-.93-4.3-.97-6.48-.56-.53.08-.9.24-1.22.69-.04.04-.08.08-.08.12-.16.2-.28.4-.44.6v.05c-.57-.57-1.18-1.1-1.75-1.66-.8-.78-1.62-1.54-2.39-2.31a4.82 4.82 0 0 0-.48-.45c-.25-.2-.53-.2-.81-.24-.2-.04-.37-.08-.57-.08.57-2.47.9-4.99.85-7.5 0-.8-1.34-14.62-1.74-18.84L409.56 101l-.77-6.03 6.24-.98c2.23-.32 4.42-.6 6.65-.93l.85-.12c.04 0 .2 0 .32-.04 1.78 1.1 3.52 2.15 5.3 3.24l10.62 6.48c1.95 1.18 3.89 2.35 5.84 3.57-1.9.77-3.77 1.54-5.68 2.3-.32.13-.64.3-.97.41-.28.12-.53.4-.4.73.08.28.44.57.73.4 2.26-.92 4.53-1.86 6.84-2.79.24-.12.49-.2.77-.32 2.03 1.25 4.1 2.5 6.12 3.73 4.41 2.7 8.83 5.38 13.29 8.1 3.56 2.18 7.13 4.33 10.69 6.52 1.82 1.13 3.69 2.23 5.51 3.36.08.04.16.12.28.16.4.2.98.08 1.42.08h1.1c.2.17.76.41.89.45.73.45 1.5.85 2.22 1.3.04.04.08.04.13.08l12.03 6.93c.12.08.24.12.36.2l-1.25 2.14Zm-24.5 25.44s.04-.03.04-.08c0-.04 0-.04.04-.08.04-.12.08-.12.04-.08l.65-1.13 2.55-4.46 2.92-5.1c.48-.9 1.05-1.75 1.53-2.64h3.77c-.85 1.7-1.74 3.4-2.59 5.07a852.41 852.41 0 0 1-4.42 8.59 5.02 5.02 0 0 1-1.21 1.54c-.04.04-.08.08-.2.16-.13.08-.29.16-.4.24-.05.04-.09.04-.17.08h-.04c-.2.08-.45.12-.65.16h-.85c-.04 0-.08-.04-.12-.04-.37-.2-.37-.2-.6-.44l-.05-.04-.12-.16c0-.05-.08-.17-.12-.2 0-.09-.04-.17-.04-.21 0-.04 0-.08-.04-.12v-.6c.04-.09.04-.17.04-.25a.3.3 0 0 1 .08-.2c0-.04 0-.04-.04 0Zm33.3-40.38a14.13 14.13 0 0 0-1.18-5.4l3.2 2-2.02 3.4Zm-2.03-11.5 7.5 2.26-2.2 3.73-46.9-28.97 2.22-4.21c5.88 4.54 33.75 25.89 39.38 27.18Zm-41.44-28.53-2.27 4.26-45.78-27.88a103.93 103.93 0 0 1 1.87-3L464 85ZM363.95 11.6c.2-.29.4-.57.56-.85l.2-.33c.05-.04.05-.08.05-.12 0-.04.04-.08.04-.08.04 0 .08-.04.08-.08 1.3 1.46 2.55 2.91 3.85 4.41l-.45.45a5.83 5.83 0 0 1-4.05 1.54h-4.21c1.34-1.62 2.71-3.24 3.93-4.94Zm2.63 24.95c-.04 0-.08-.04-.12-.08l-.24-.24-2.31-2.15c-2.47-2.27-4.9-4.54-7.38-6.8-1.05-.98-2.14-2-3.2-2.96 1.58-1.79 3.12-3.6 4.66-5.4h6.04a8.68 8.68 0 0 0 5.63-1.9l.49 4.58 1.09 10.45.24 2.23c-.89 1.1-1.78 2.23-2.67 3.32-.77-.28-1.5-.64-2.23-1.05Zm9.07 4.7c-.6-.28-1.17-.6-1.78-.9l-4-2.06c.32-.36.6-.77.92-1.13.45-.57.9-1.14 1.34-1.66.2-.25.53-.57.53-.9 0-.6-.12-1.25-.2-1.86-.13-1.33-.29-2.67-.41-4-.32-3.2-.69-6.45-1.01-9.65-.12-.97-.2-1.98-.33-2.96.7-.69 1.3-1.46 1.9-2.14a29.17 29.17 0 0 0 3.53-5.27c.85-1.7 1.66-3.57 1.78-5.47.04-.53.08-1.01.08-1.54h6.85c1.46 0 2.84.6 3.85 1.66 1.34 1.46 1.46 3.6 1.86 5.43.33 1.3.61 2.6.9 3.93.28 1.26.52 2.51.93 3.73.08.28.16.65.44.8.29.17.65.13.97.09 1.26-.24 2.47-.93 3.61-1.54.32-.16.6-.32.9-.53-2.07 3.65-4.14 7.3-6.2 10.98l-2.32 4.1-.64 1.13c-.04.08-.2.32-.29.44-.04.08-.12.12-.16.2l-.97 1.1-1.14 1.25c-.16.2-.64.57-.77.86-.2.08-.36.2-.52.32-.7.4-1.42.85-2.11 1.26a164 164 0 0 0-7.54 4.33Zm35.86 14.38c-.9-.4-1.78-.77-2.72-1.13-2.5-.98-5.02-1.9-7.53-2.88-3.24-1.26-6.48-2.47-9.76-3.73l-8.27-3.16c-.8-.32-1.66-.6-2.47-.93l-.4-.16c-.7-.4-1.42-.73-2.11-1.1l1.01-.6c1.94-1.14 3.85-2.31 5.8-3.44.88-.53 1.98-.98 2.67-1.79.69-.77 1.38-1.54 2.06-2.35.37-.4.81-.8 1.1-1.3.36-.56.69-1.2 1.05-1.82l5.55-9.8c1.42-2.55 2.88-5.06 4.3-7.62l29.28 17.5c-4 6.45-8.06 12.89-12.07 19.33l-3.04 4.9h-4.45v.08Zm3 2.43c-.33.49-.61.97-.94 1.46l-.28-.4c.08-.09.16-.2.24-.33.13-.2.2-.44.2-.73h.77Zm.16 5.43 30.06 18.31c-.81 1.26-1.58 2.51-2.4 3.77-.12.2-.24.36-.36.57-.16.28-.04.68.2.85.29.16.65.04.85-.2.81-1.3 1.67-2.6 2.48-3.9l.24-.36L461.3 92l41 25.28c.88.97 2.38 3 2.9 5.91-2.83-1.74-5.62-3.48-8.46-5.18-.44-.29-.85-.53-1.3-.81-.64-.4-1.3.65-.6 1.05 3.08 1.9 6.16 3.77 9.23 5.67l1.3.81c.08 1.42-.12 3.04-.69 4.82l.08.04-4.33 7.38c-3.9-2.23-7.82-4.5-11.7-6.73a.76.76 0 0 1-.25-.16l1.1-1.46c.07-.08.15-.2.2-.28.08-.12.08-.33.08-.49a.81.81 0 0 0-.29-.36c-.12-.08-.32-.12-.49-.08-.16.04-.24.16-.36.28l-1.34 1.74c-.52-.32-1.09-.6-1.62-.93-.4-.24-.89-.65-1.37-.69-.57-.08-1.22 0-1.79 0h-.28c0 .08-.04.12-.04.08l-.08-.08h-.16c0-.04.04-.08.04-.08-.12-.08-.25-.12-.33-.16a841.97 841.97 0 0 1-8.02-4.9l-14.14-8.63c-5.3-3.24-10.65-6.48-15.96-9.73-4.5-2.75-9.03-5.5-13.53-8.26-2.27-1.38-4.5-2.8-6.76-4.13-.2-.12-.37-.16-.57-.16-.69.04-1.38.16-2.07.28-3 .4-6 .81-8.95 1.26l-3.2.48-.36-2.83c-.2-1.54-.29-3.12-.29-4.7V76.16h-1.01c2.6-4.3 5.19-8.47 7.78-12.68Zm-10 16.16v6.53c0 .48 0 .97.03 1.45h-5.06c1.62-2.67 3.36-5.3 5.02-7.98Zm-9.77 17.02c1.01-2.03 1.9-4.1 3-6.08.16-.32.36-.65.56-.97h6.4c.04.53.13 1.1.17 1.62l.4 3c-.85.16-1.7.32-2.55.52-.65.17-1.95.29-2.35.9-.69 1-1.22 2.18-1.82 3.28-.04.08-.25.32-.17.24l-.08.08-.89.9-3.08 3.07-2.87 2.88c-.2.2-.49.4-.65.6-.2.05-.37.13-.53.17-.24.08-.44.12-.69.2 1.7-3.44 3.4-6.93 5.15-10.41Zm-5.92 11.95c.77-.24 1.58-.45 2.35-.73.33-.12.49-.28.7-.49l1.33-1.33 3.89-3.9c.73-.72 1.54-1.41 2.19-2.18.44-.53.72-1.26 1.05-1.86l.97-1.75c.57-.2 1.18-.32 1.78-.48.77-.16 1.54-.33 2.31-.45l.77 5.92 1.66 9.03-5.26.49a1032.2 1032.2 0 0 0-13.62 1.25c-.16 0-.28.09-.4.2-.04-.03-.04-.08-.08-.11l-.73-1.34c.36-.77.73-1.54 1.1-2.27Zm-1.78 3.56c.24.45.49.9.77 1.38-1.17 2.19-2.3 4.38-3.48 6.56a.68.68 0 0 0 .08.73l1.86 1.87v4.41h-5.06c-.29 0-.65.29-.61.61.24 2.23.44 4.42.69 6.64.04.2.04.4.08.61 0 .08 0 .33.04.4-.04.13-.04.29-.08.41-.29 1.26-.57 2.47-.81 3.73-.24 1.01-.45 2.02-.69 3.04-.12.48.28.8.73.73 4.86-.73 9.68-1.42 14.54-2.15.7-.08 1.38-.2 2.07-.28.24-.05.49-.37.44-.57-.28-2.03-.52-4.05-.8-6.08-.05-.32-.25-.6-.61-.6-.29 0-.65.28-.61.6l.73 5.55c-4.66.7-9.36 1.38-14.02 2.07-.36.04-.77.12-1.13.16.4-1.9.85-3.77 1.25-5.67.04-.25.12-.49.17-.73.04-.28-.05-.57-.05-.85-.12-1.3-.28-2.64-.4-3.93l-.24-2.51h4.98c.32 0 .6-.29.6-.61V123c0-.2.05-.4 0-.57-.03-.36-.32-.56-.56-.8l-1.34-1.34c.73-1.38 1.46-2.76 2.19-4.18.37-.73.77-1.45 1.13-2.18a.7.7 0 0 0 .09-.65l6.84-.61c3.69-.32 7.38-.65 11.06-1.01.37-.04.69-.08 1.06-.08l1.78 9.64c.69 7.05 1.7 17.7 1.74 18.47 0 2.31-.28 4.62-.81 6.89-.2-.04-.4-.04-.65 0-1.01.16-2.03.32-3.04.44-4.41.7-8.83 1.34-13.2 2.03-4.58.69-9.16 1.42-13.74 2.1-1.25.2-2.5.37-3.76.57-1.06.16-1.99.33-3.08.33-1.83 0-3.65-.37-5.31-1.1l10.57-21.43c2.88-5.75 5.75-11.54 8.6-17.34Zm-53.88 16.65c2.27-4.37 4.54-8.7 6.85-13.08 1.25-2.4 2.51-4.74 3.72-7.13 1.59 2.1 3.17 4.25 4.79 6.36.2.28.4.57.64.85-1.37 2.71-2.71 5.43-4.09 8.14l-.6 1.22c-.37.69.68 1.3 1.05.6l4.25-8.5.6-1.22c.09-.16.13-.44 0-.6l-5.78-7.74a.89.89 0 0 1-.2-.29c.44-.8.88-1.58 1.41-2.3l.49-.73c.08-.13.16-.2.24-.33.04-.08.12-.12.16-.2 0-.04.04-.04.04-.08l4.86 7.82c.45.69.86 1.37 1.3 2.06.37.57.65 1.22 1.46 1.26 1.66.08 3.36 0 5.02 0h3.16c.65 0 1.5.12 1.99-.37.56-.6 1.1-1.33 1.58-1.98.56-.69.36-1.78.36-2.6v-3.15c0-.37 0-.7-.2-1.02-.2-.4-.49-.8-.73-1.21-.28-.49-.57-1.14-1.18-1.3-.2-.04-.44-.04-.68-.04h-8.92c-.52 0-1.25-.12-1.74.12-.36.17-.69.53-.97.81a697.05 697.05 0 0 1-1.42 1.42l-1.7-2.71c-.2-.33-.4-.65-.6-.94.4-.4.8-.8 1.2-1.17.13-.12.25-.2.41-.32l.13-.13a.4.4 0 0 1 .12-.08l.89-.6c.32-.2.6-.37.93-.53.16-.08.32-.16.48-.2.05 0 .05 0 .05-.04.08-.04.2-.08.28-.13.32-.12.65-.24.97-.32l.57-.12c.08 0 .16-.04.24-.04h.16c.81-.08 1.62-.08 2.44-.08 1.61 0 3.24.04 4.86.2.64.08 1.5.2 2.3.4l.5.13h.03c1.06.65 2.1 1.21 3.16 1.82 2.03 1.13 4.01 2.3 6.04 3.44 3.52 2.03 7.05 4.01 10.57 6.04-1.58 3.16-3.12 6.32-4.7 9.52l-11.5 23.3-.04-.05c-1.14-.8-2.23-1.62-3.37-2.39-.52-.36-1-.77-1.54-1.13 0-.04.04-.04.04-.08 1.06-1.78 2.07-3.6 3.12-5.4.45-.76.9-1.49 1.3-2.26.2-.4.2-.73.2-1.13v-3.49c0-.48-.24-.8-.52-1.17-.73-.9-1.42-1.83-2.15-2.72-.69-.85-1.34-1.74-2.03-2.59-.56-.69-1.86-.57-2.71-.65-.65-.04-1.3-.12-1.99-.16-.6-.04-1.05-.16-1.62.28l-2.02 1.7c-.9.73-1.78 1.46-2.67 2.23-.73.65-.53 1.9-.53 2.8v1.98c0 .45-.04.9.16 1.3.32.57.73 1.13 1.1 1.7 1.41 2.15 2.83 4.34 4.2 6.48.33.49.7 1.3 1.26 1.58.9.49 1.9.7 2.8 1.18.69.4 1.33.97 1.98 1.42 1.02.73 2.07 1.45 3.08 2.18.2.17.4.29.61.45l.2.12-2.27 4.58-1.86-.9c-3.85-1.82-7.7-3.64-11.59-5.46-.36-.16-.68-.33-1.05-.49.12-.08.24-.16.32-.32l1.1-2.96c.12-.32.16-.57-.04-.85l-.6-.85a536.79 536.79 0 0 0-4.3-5.91c-.13-.17-.25-.41-.4-.57-.21-.2-.45-.16-.7-.16H331.9c.61-.98 1.02-1.75 1.42-2.52Zm18.76-21.14 2.02-2.03h9.36c.25.37.45.77.69 1.14v4.5l-.97 1.2h-8.06c-1.02-1.57-2.03-3.2-3.04-4.81Zm10.17 29.37c-.2.32-.37.65-.57.97-.04.08-.08.12-.08.2l-1.3-.56c-1.7-2.6-3.4-5.19-5.1-7.82-.2-.33-.4-.61-.61-.94v-3.52c1.34-1.13 2.67-2.23 4.05-3.36 1.13.12 2.31.2 3.44.32 1.3 1.62 2.6 3.28 3.85 4.9v3.33a205.56 205.56 0 0 1-3.68 6.48Zm-30.8-4.66h14.81c1.45 2.02 2.91 4.05 4.41 6.08.16.24.32.44.49.68a91.57 91.57 0 0 1-1.14 3c-.04.08-.04.16-.04.25-3.85-1.83-7.7-3.65-11.5-5.43-2.52-1.18-5.03-2.35-7.5-3.57.12-.36.29-.69.49-1.01Zm-1.7 3.24c.2-.4.41-.77.62-1.17 1.57.72 3.15 1.5 4.73 2.22l9.04 4.26c-.08.04-.12.12-.16.2-1.14 2.51-2.27 5.06-3.45 7.62l-12.84-6.08c-.4-.2-.8-.37-1.21-.57 1.09-2.15 2.18-4.33 3.28-6.48Zm-3.8 7.58c4.21 1.98 8.43 4 12.68 6 .49.23.97.44 1.42.68l-.49 1.05c-1.21 2.68-2.39 5.35-3.6 8.02a.55.55 0 0 0-.17-.12c-4.5-2.1-8.99-4.25-13.45-6.36l-.8-.36c1.5-3 2.95-5.96 4.4-8.91Zm-6.44 12.88 1.46-2.92 12.27 5.83c.65.33 1.3.61 1.94.94.13.04.25.08.33.04l-2.92 6.44c-.44.97-.89 1.94-1.3 2.92-.76-.37-1.53-.78-2.3-1.14-3-1.5-6-2.96-9-4.46-1-.48-1.98-.97-3-1.45l-.44-.25c1.01-2.02 1.99-3.97 2.96-5.95Zm3.56 51.16-2.39 1.7-12.68.77-4.62-2.55c-2.75-1.5-5.46-3.04-8.22-4.54-.65-.36-1.34-.68-1.9-1.13-1.34-1.13-1.99-3.04-2.72-4.58-.77-1.58-1.7-3.12-1.38-4.94l.5-2.43c.11-.65.2-1.38.52-1.99 1.21-2.34 2.47-4.65 3.72-6.96l4.87-9.08c.48-.89.93-1.78 1.37-2.71 4.01-4.1 12.4-4.54 15.4-4.58l2.43 1.22c2.88 1.41 5.71 2.83 8.59 4.25 3.48 1.7 6.96 3.44 10.4 5.14l2.48 1.22-16.37 31.2Zm24.96-29.7c-2.88-1.41-5.71-2.83-8.6-4.25-2.34-1.17-4.69-2.3-7-3.48l4.05-9.03c2.31-5.15 4.66-10.3 6.97-15.44.53-1.17 1.05-2.39 1.62-3.56a.48.48 0 0 0 .04-.4c.97.44 1.9.88 2.88 1.37l12.68 6c1.33.64 2.71 1.25 4.05 1.9.04 0 .08.04.08.04 0 .04-.04.04-.04.08-3.32 6.77-7.13 13.29-10.78 19.9-1.42 2.54-2.91 5.1-4.17 7.73-.6-.28-1.22-.57-1.78-.85Zm-10.54 34.73c.05-.17.29-.7.13-.4.28-.58.52-1.14.77-1.71 1-2.23 2.06-4.42 3.07-6.64 2.76-5.92 5.51-11.87 8.23-17.79l1.7-3.77c2.67 1.3 5.3 2.64 7.98 3.93 1.22.61 2.43 1.22 3.65 1.79.56.24 1.13.12 1.7.04l2.8-.37 5.38-.73c.65-.08 1.01-.93.85-1.5-.2-.69-.85-.93-1.5-.85-2.59.37-5.18.73-7.82 1.06-.2.04-.36.04-.56.08l-10.78-5.31c-.24-.12-.44-.24-.69-.32.29-.57.57-1.14.9-1.7l8.5-15.36c1.34-2.39 2.76-4.78 3.97-7.21.57-1.13 1.13-2.3 1.7-3.44a15.3 15.3 0 0 0 8.71.97c.61-.12 1.26-.2 1.87-.28 4.05-.61 8.06-1.22 12.1-1.87l14.35-2.19 4.74-.72c.4-.05.77-.13 1.17-.17h.09a30.82 30.82 0 0 1-5.2 10.3l-12.1 16.24-23.7 35.16c-.4.57-.81 1.14-1.3 1.66l-5.71 6.28c-1.01 1.1-4.01 2.76-5.63 3.16l-23.46 4.01c1.38-4.13 2.72-8.26 4.1-12.35Zm-12.68 16.65 5.88-.57 26.78-4.66h.08c2.06-.45 5.75-2.35 7.37-4.13l3.12-3.4 6.97 4.98-4.13 1.34c-1.1.36-2.2.68-3.29 1.05-.2.08-.56.12-.72.24h-.05c-4.33.53-8.67 1.1-12.96 1.62-2.8.37-5.59.65-8.38 1.14-4.62.8-9.28 1.58-13.9 2.39l-.65.12h-.08c-.81.08-1.66.2-2.47.28-1.22.16-2.4.28-3.6.45.04-.33.04-.57.04-.85Zm-.32 4.61c.04-.85.12-1.7.2-2.59.61-.08 1.22-.16 1.83-.2 1.58-.2 3.12-.32 4.7-.57 4.33-.69 8.66-1.5 13-2.23l2.75-.48.65-.12h.04c1.5-.17 3-.37 4.5-.57 4.7-.57 9.36-1.18 14.06-1.74.2-.04.36-.04.56-.08l.09.08 2.95 2.22c0 .73.04 1.5.04 2.23l-39.58 5.47c-3.03.45-4.41 3.28-4.3 4.62l1.3 12.2c-.4.03-.84.07-1.25.12-.65.08-1.3.16-1.98.2-.09 0-.53 0-.78.04v-.04c0-.29.05-.57.05-.85l.48-7.82c.25-3.28.49-6.56.7-9.89Zm-93.54-38.44-4.62-4.58.7-.56a10.8 10.8 0 0 1 5.46-2.07c-1.25 1.82-1.78 4.3-1.54 7.2Zm91.35 84.79-3.56-1.06-.7-.48c-6.51-4.54-12.02-10.09-17.78-15.56-8.14-7.82-16.32-15.6-24.46-23.41-12.24-11.71-24.19-23.74-36.22-35.65l-2.67-2.68-2.56-3.36a5.15 5.15 0 0 1-1-2.6c-.37-3.92.76-5.95 2.18-7a14 14 0 0 1 5.26 2.27l.09.04 49.58 33.42c6.85 4.1 13.86 6 22.16 6 1.9 0 3.85-.08 5.88-.29l5.06-.48c0 .28-.04.56-.04.8-.73.09-1.5.17-2.23.3-.16 0-.32.03-.49.03-.77.08-.77 1.3 0 1.22.9-.13 1.75-.2 2.64-.33a19.1 19.1 0 0 0-.08 1.5c-.2 3.36-.45 6.69-.65 10.05-.16 2.8-.37 5.55-.53 8.34-.04.49-.08.98-.08 1.42.04 1.46 1.82.97 2.71.85.9-.08 1.79-.2 2.64-.28l1.34 12.6a4.5 4.5 0 0 0 1.82 3.24 4.78 4.78 0 0 0 2.87 1.01c.25 0 .49 0 .73-.04l47.8-7.17.37-.04c.04 1.66.04 3.28.08 4.94 0 .4.37.65.77.57 2.6-.49 5.19-.93 7.78-1.42.36-.08.73-.12 1.13-.2.77-.12.45-1.3-.32-1.18-2.6.49-5.19.94-7.78 1.42-.12.04-.24.04-.36.08-.04-1.46-.04-2.91-.08-4.37l31.07-4.66a7.42 7.42 0 0 0 4.94-3l15.96-21.8c2.1 1.47 4.17 2.88 6.28 4.34.08.04.16.12.24.16l-2.8 4.5-17.37 24.43c-5.63 3.64-12.07 6.84-15.27 7.86-2.43.52-39.54 5.06-63.97 8.02a45 45 0 0 1-20.38-2.35Zm37.64 22.1c.04 1.3.8 4.09 2.63 7.45l-33.14-23.17a46.5 46.5 0 0 0 13.7.28l29-3.52c-.28.12-.57.2-.8.32-8.23 3.65-11.64 12-11.4 18.64Zm-25.2 28.44c-1.34-10.62-2.63-20.3-3.4-26.13a36.55 36.55 0 0 0-2.72-9.73c9.08 6.32 18.11 12.68 27.19 19a17.44 17.44 0 0 0-5.76 0c-6.8 1.7-14.13 7.58-15.31 16.86Zm21.96 24.67c-2.6 3.2-11.1 13.73-17.9 22.16.64-4.82.27-7.78.2-8.39a945.71 945.71 0 0 0-3.13-29.17c1.5 4.26 4.3 8.1 7.74 10.3 2.84 1.78 6.24 2.42 9.48 2.42 2.23 0 4.42-.32 6.28-.77l-2.67 3.45Zm5.87-10.42c-.53.65-.93 1.18-1.17 1.46-1.79.94-9.97 3.33-15.32-.04-4.41-2.8-7.45-9.56-6.72-15.07.89-7.09 6.56-11.62 11.79-12.96.12-.04.6-.08 1.33-.08.98 0 2.4.08 4.22.4 1.5.29 3.52.77 5.83 1.62l12.64 8.96c-2.19 2.75-6.36 7.98-12.6 15.71Zm18.47-23.94-10.4-7.37c-4.83-5.63-6.16-10.65-6.2-11.54-.2-5.15 2.43-11.6 8.7-14.35a15.16 15.16 0 0 1 5.92-1.13c3.64 0 7.37 1.13 9.76 3.24 4.54 3.97 4.58 12.15 4.22 14.02-.2.28-.57.8-1.02 1.5-5.39 7.65-9.03 12.88-10.98 15.63Zm-6.96 36.34a2991.42 2991.42 0 0 1 12.96-18.68c2.39 1.63 6.56 4.58 7.53 5.47a35.77 35.77 0 0 1 7.42 9.85 19.65 19.65 0 0 1 1.9 5.19c.2 5.38-2.51 12.1-9.07 14.98-5.1 2.23-12.44 1.26-16.37-2.18-4.7-4.14-4.74-12.64-4.37-14.63Zm66.27 15.76c-38.2 5.3-83.9 11.7-84.79 12a57.68 57.68 0 0 0-9.6 3.96l23.38-28.76c.12 4.74 1.66 11.3 6.07 15.19 3.36 2.92 8.39 4.54 13.33 4.54 2.8 0 5.6-.53 7.98-1.58 8.55-3.77 12.11-12.48 11.87-19.4-.04-1.43-.93-4.5-2.96-8.19l17.1 12.11 24.95 10.13a27.82 27.82 0 0 0-7.33 0Zm66.96 14.9-20.17-10.08-2.47-1.1c-9-5.38-26.57-12.6-27.43-12.92-8.1-3.32-14.05-8.7-17.66-15.96a29.1 29.1 0 0 1-3.08-10.04v-.09l-5.67-34.1v-.09c-2.71-13.28-.6-23.17.9-27.95l20.09-28.2 1.86-3.03 5.83-.69 3.16 5.06.12 6.08-19.12 11.79-.08.08a10.51 10.51 0 0 0-3.4 4.01l-5.67 11.67-.85 12.8.08.28c0 .08 1.98 7.66 2.8 16.33l2.46 18.92.09.2c.12.32 2.95 7.82 8.83 10.53l.12.04 6.07 1.74 2.44-.12v6.6l3.2 4.26 7.45 1.74 13.04 4.34 10.82 7.2 23.94 11.8 1.58 12.6-9.28-3.7Zm176.71-91.95-16.12 28.52-5.27-.6c-.64-.09-1.21-.13-1.82-.13-2.92.12-5.8.2-8.71.32l-.6-6.15-.13-1.06c-.08-.65-.52-1.21-1.21-1.21-.61 0-1.3.56-1.22 1.21l.73 7.25v.04c-4.21.17-8.43.29-12.64.45-.81.04-1.66.04-2.47.08-.2-3.08-.36-6.16-.57-9.28-.32-5.55-.69-11.1-1.01-16.65l-.24-3.8c-.04-.65-.53-1.22-1.22-1.22-.6 0-1.25.57-1.21 1.22.2 3.52.44 7 .64 10.53.33 5.55.7 11.1 1.02 16.65.04.89.12 1.78.16 2.67-3.04.12-6.08.2-9.12.33-2.39.08-4.78.12-7.17.24h-.12c-1.58.04-1.58 2.47 0 2.43 1.99-.08 3.97-.12 5.92-.2 3.93-.12 7.86-.29 11.78-.4.61-.05 1.18-.05 1.79-.09 4.98-.16 9.96-.36 14.9-.52l10.1-.37c2.14-.08 4.29.24 6.43.57l-21.47 38-26.5 38.64a18.35 18.35 0 0 1-7.57 6.36 13.7 13.7 0 0 1-5.83 1.26h-5.59c-1.3 0-2.63.16-3.89.49l-.24.08a19.88 19.88 0 0 0-11.83 8.42l-1.14 1.75-4.57-2.92-.09-.04-32.08-15.44-17.54-7 .36-.53-8.66-6.04-1.67-13.12-24.38-12 .65-4.65 11.58 6.36 4.46 4.86 14.74 7.98a53.9 53.9 0 0 1 9 6.16l9.48 8.06 6.88 4.74 6.08 1.5a6.63 6.63 0 0 0 5.83-1.26l.08-.04a22.93 22.93 0 0 0 6.32-7.74l21.8-43.63c.65-1.3.97-2.75.97-4.17v-1.17a9.41 9.41 0 0 0-3.32-7.18l-5.02-4.2-9.32-6.49-12.4-12-13.7-16.11-11.01-13.82c-.32-1.78-1.46-8.63-1.1-13.29l.05-.4-.16-.37c-.17-.44-4.18-10.4-12.16-10.49l-3.56-.32-18.96-25.36 14.9-11.47 31.2-16.2 9.15-6.85 3.81.98 5.71 2.87a35.63 35.63 0 0 0 17.55 3.73l33.74-1.01v2.22h-15.11a4.6 4.6 0 0 0-4.58 4.58c-.08 4.01 0 8.06 0 12.07v13.9c0 .97.85 1.82 1.83 1.82h7.9v4.01c0 .85.4 1.46.8 2.15.61 1.05 1.18 2.1 1.79 3.2l1.05 1.9v2.76c0 .97.85 1.86 1.82 1.82a1.87 1.87 0 0 0 1.83-1.82v-3.25a2.4 2.4 0 0 0-.4-1.17c-.9-1.54-1.75-3.12-2.64-4.66-.2-.36-.4-.72-.65-1.13v-5.59c0-.97-.85-1.82-1.82-1.82h-7.9v-24.38c0-.04 0-.08.04-.12.04-.04.04-.08.08-.16 0 0 .04-.04.04-.08.08-.09.12-.17.2-.2.04-.05.08-.09.08-.05l.04-.04c.04-.04.09-.04.09-.04.04 0 .08-.04.08-.04h31.91l.12 1.05c.16.9.65 1.79 1.3 2.4.93.89 2.1 1.25 3.36 1.41.93.12 1.86-.93 1.82-1.82-.04-1.1-.8-1.7-1.82-1.82.49.04-.12-.04-.24-.09 0 0-.13-.04-.2-.08.12.04.2.13 0 0 0 0-.05 0-.05-.04-.04-.04-.08-.04-.16-.08l-.04-.04-.12-.12a.57.57 0 0 1-.08-.12c0-.04-.04-.04-.04-.08l-.13-.33-.03-.28v-.49c0-.2.03-.36.03-.56 0-.04 0-.09.05-.13 0-.08.04-.12.04-.2a1.84 1.84 0 0 0-1.75-2.3h-16.12v-2.32l3.97-.12 107.6 5.63 1.05 1.58c-.6.65-1.1 1.38-1.46 2.2l-7.13 16.03-39.66 67.09Zm16.77-6.44c1.63-2.84 3.25-5.67 4.9-8.47 2.76-4.78 5.51-9.56 8.27-14.38l.73-1.26c.12.25.24.49.32.73 1.06 2.27 2.07 4.54 3.12 6.8l.12.25 6.9 15.03c.44.93.84 1.87 1.29 2.8-1.87 3.36-3.69 6.72-5.55 10.08l-20.1-11.58Zm83.86-3.16v.12h-1.3c-.24-2.31-.48-4.62-.76-6.93l-1.22-11.34c-.04-.24-.04-.45-.08-.69-.08-.93-.2-1.82-.28-2.75-.04-.2-.09-.45-.29-.53l-2.83-1.22c-.73-.32-1.34.73-.61 1.06l2.6 1.1c.11 1 .2 2.02.32 2.99.16 1.38.28 2.71.44 4.09.45 4.01.9 7.98 1.3 12l.24 2.18c-1.38.08-2.8.12-4.17.2l-3.12.12c-.49.04-1.18-.08-1.5.37-.24.32-.4.69-.6 1.01-.45.77-.9 1.5-1.34 2.27l-3.53 5.95-2.07 3.49c-1.13.28-2.26.56-3.4.8-2.92.74-5.8 1.43-8.7 2.15l-1.47.37c-.28-3.8-.6-7.62-.89-11.42-.04-.61-.08-1.26-.16-1.87a1.32 1.32 0 0 0-.32-.77 1.2 1.2 0 0 0-.9-.44c-.44 0-.85.28-1.09.65-.08.16-.16.36-.12.56a1396 1396 0 0 1 1.1 13.9c-2.24.52-4.46 1.1-6.7 1.62-3.03.73-6.07 1.5-9.1 2.23-.5.12-.98.24-1.5.32l-9.69-5.63 3.65-6.65c.69-1.3 1.42-2.55 2.1-3.88.25-.49.29-.98.05-1.46l-.37-.77-4-8.75c-1.06-2.35-2.16-4.7-3.21-7.05l-2.19-4.78-2.06-4.54c-.25-.53-.49-1.1-.73-1.62-.12-.24-.2-.44-.33-.65 0-.04-.04-.08-.04-.12-.4-.85-1.66-.73-2.1 0-1.75 3.04-3.49 6.08-5.23 9.08a4306.3 4306.3 0 0 0-8.26 14.38c-.53.89-1.02 1.78-1.54 2.67l-1.95-1.13 20.66-35 2.23 1.53 11.38 7.9a8.71 8.71 0 0 0 5.07 1.58h.36c5.43 0 18.56-.08 31.64-.68 5.1-.25 9.68-.57 13.7-.94.24 2.23.52 4.46.76 6.65.09.6.17 1.21.2 1.86.7 5.55 1.34 10.98 1.95 16.4Zm22.28-89a2.4 2.4 0 0 1 2.4 2.39c0 1.3-1.1 2.39-2.4 2.39-1.3 0-2.39-1.1-2.39-2.4 0-1.29 1.1-2.38 2.4-2.38Zm-9.07-2.96 3.56 2.71a6.14 6.14 0 0 0 9 7.7l10.7 12.2-4.14 13.85-12.32 16.6c-.8-.64-1.62-1.25-2.39-1.9-2.8-2.18-5.59-4.41-8.38-6.6-3.37-2.67-6.73-5.3-10.13-7.98-2.92-2.3-5.83-4.62-8.8-6.93-1.4-1.13-2.83-2.23-4.24-3.36-.05 0-.05-.04-.05-.04-.6-.49-1.45.36-.85.85l3.49 2.75c2.8 2.2 5.59 4.42 8.38 6.6 3.37 2.68 6.73 5.31 10.13 7.99 2.92 2.3 5.83 4.62 8.8 6.93 1.13.89 2.26 1.78 3.36 2.67l-5.2 6.97c-8.3 3.36-37.34 4.57-62.21 4.57h-.5a5.79 5.79 0 0 1-3.23-1l-7.94-5.52-5.88-4.05 10.25-17.38.08-.16 7.3-16.4c.16-.37.48-.65.89-.78 4.86-1.5 17.17-6.11 26.61-16.56l.08-.08 14.59-18.15 19.04 14.5Zm-17.02-17.06 2.4-2.95v4.78l-2.4-1.83Zm-1.7-8.22-3.08 3.85.73-4.25 32.17-37.72v.81l1.78-.04-31.6 37.35Zm34.96-27.34c-.12.28-.24.48-.28.8v4.42c0 .16-.04.4 0 .6-.6 1.18-1.18 2.4-1.78 3.57-.65-1.37-1.26-2.75-1.9-4.17l-1.34-2.92 8.42-9.96c.08.32.12.6.2.93-1.09 2.27-2.22 4.5-3.32 6.72ZM183.84 483.94c-2.84-2.07-5.76-4.01-8.6-6-6.4-4.45-12.8-8.95-19.2-13.4-8.54-5.96-17.09-11.96-25.64-17.91l-27.46-19.2c-8.39-5.88-16.78-11.71-25.16-17.58l-18.6-13c-2.5-1.75-4.98-3.57-7.53-5.27-2.43-1.62-5.47-.85-7.13 1.41a458.49 458.49 0 0 0-3.93 5.47c-.65.9-1.22 1.83-2.3 2.23a3.58 3.58 0 0 1-3.37-.53c-.9-.6-1.78-1.25-2.72-1.9L8.38 381.61c-.6-.44-1.25-.85-1.86-1.3-.97-.69-1.86.9-.93 1.58l20.3 14.22c2.67 1.9 5.34 3.85 8.1 5.68 2.71 1.82 5.91.89 7.7-1.67 1.2-1.74 2.42-3.4 3.68-5.1.57-.81 1.05-1.62 1.99-2.1a3.32 3.32 0 0 1 3.4.28c.2.12.4.28.65.44l3.84 2.68c5.4 3.76 10.78 7.53 16.17 11.3l23.86 16.69 27.3 19.08c8.8 6.16 17.63 12.31 26.42 18.43 7.09 4.94 14.13 9.89 21.22 14.83l11.75 8.22a43.5 43.5 0 0 1 2.43 1.9c-.2.05-.36.2-.48.41-.45.9-.85 1.82-1.22 2.8h1.99l.24-.57c.2-.45.36-.9.6-1.3.05-.08.09-.2.09-.28a66.7 66.7 0 0 1 2.23 2.15h2.55c-.57-.61-1.14-1.18-1.74-1.79-1.58-1.45-3.12-3-4.82-4.25Z" fill="#242222"/>
  <path d="m823.87 409.4-.9.37a14.47 14.47 0 0 0-6.4 5.02c-.89 1.21-1.62 2.6-2.39 3.89l-4.53 7.53c-2.35 3.9-4.7 7.78-7.01 11.67-1.58-.93-3.2-1.82-4.78-2.75-4.66-2.68-9.32-5.35-13.94-8.07-5.63-3.24-11.26-6.48-16.85-9.72-4.82-2.8-9.68-5.59-14.5-8.34-2.35-1.38-4.7-2.8-7.1-4.1a1.88 1.88 0 0 0-2.6.6c-1.44 2.64-2.9 5.32-4.36 7.95-2.31 4.22-4.66 8.43-6.97 12.64-.53.97-1.05 1.95-1.62 2.92-.49.85-.2 1.98.65 2.51 1.17.73 2.35 1.42 3.56 2.15 2.84 1.7 5.67 3.4 8.51 5.14 3.4 2.07 6.85 4.13 10.25 6.2 2.96 1.78 5.96 3.56 8.91 5.39 1.46.85 2.88 1.78 4.34 2.63.04 0 .04.04.08.04.85.49 2.02.2 2.51-.65 1.99-3.48 3.93-6.97 5.91-10.4.94.6 1.9 1.17 2.88 1.7.04 0 .04.03.08.03.85.49 2.03.2 2.51-.64 1.9-3.37 3.77-6.77 5.67-10.13.09-.12.17-.29.25-.4 2.92 1.65 5.8 3.36 8.7 5.02 2.36 1.37 4.7 2.8 7.1 4.09.04 0 .08.04.08.04.8.48 2.02.2 2.51-.65.24-.45.28-.97.16-1.42a1309 1309 0 0 1 6-9.92c2.5-4.18 5.02-8.35 7.57-12.56a12.29 12.29 0 0 1 6.04-5.15c1.46-.56 2.92-1.13 4.33-1.7.7-.28 1.42-.56 2.11-.8v-2.6l-1.26.49c-1.94.6-3.72 1.3-5.5 1.98Zm-57.49 39.46c-.65-.4-1.3-.77-1.99-1.18-2.83-1.7-5.67-3.4-8.5-5.14-3.4-2.07-6.85-4.13-10.25-6.2-2.96-1.78-5.96-3.56-8.91-5.39-.98-.56-1.9-1.17-2.88-1.74l3.52-6.36c.5-.85.98-1.74 1.42-2.6 1.22.74 2.43 1.47 3.65 2.24 3.12 1.86 6.2 3.72 9.32 5.63 3.72 2.26 7.45 4.5 11.22 6.76l8.46 5.1c-1.7 2.96-3.4 5.92-5.06 8.88Zm11.34-9.32c-.77-.44-1.54-.93-2.26-1.38 0 0-.05 0-.05-.04a1.5 1.5 0 0 0-.52-.48 2.88 2.88 0 0 0-.53-.2c-2.71-1.67-5.47-3.29-8.18-4.95-3.73-2.27-7.46-4.5-11.22-6.76-3.25-1.95-6.49-3.93-9.73-5.88-1.54-.93-3.08-1.9-4.65-2.8a986 986 0 0 0 4.5-8.18l4.16 2.44c4.66 2.67 9.32 5.34 13.94 8.06 5.63 3.24 11.26 6.48 16.85 9.72.9.49 1.74 1.01 2.64 1.5-1.63 3-3.29 6-4.95 8.95Zm-192.58 4.06c-.69-1.3-1.3-2.72-2.07-3.98-.52-.85-1.42-1.46-2.14-2.14l-5.23-4.75c-.77-.68-1.5-1.53-2.43-2.02-4.66-2.27-9.68-4.01-14.5-6.04l-28.89-11.99c-9.11-3.76-18.23-7.53-27.38-11.26-1.62-.65-3.2-1.3-4.82-1.94l-1.79-.73c-.28-.13-.52-.2-.8-.33-.05-.04-.09-.04-.13-.04l-.04-.04c-2.67-1.5-5.22-3.16-7.9-4.66a194.07 194.07 0 0 0-15.6-7.9c-5.06-2.22-10.4-4.41-15.96-5.18-2.47-.37-4.9 0-7.37.2-5.83.49-11.63 1.01-17.46 1.54-7.94.73-15.88 1.54-23.78 2.43-4.25.49-8.5.97-12.76 1.5l-5.8.73c-1 .12-2.14.08-2.99.69-4.7 3.24-9.07 7.13-13.53 10.7a984.06 984.06 0 0 0-23.66 19.36 204.53 204.53 0 0 0-9.07 8.06c-.98.89-1.9 1.82-2.8 2.83a13.35 13.35 0 0 0-1.17 1.5c-.08.08-.08.12-.08.12l-.09.09c-.16.2-.36.36-.52.56-.04.04-.08.04-.08.08 0 0 0 .04-.04.04-1.18 1.14-2.43 2.23-3.49 3.45-.69.8-.8 2.06-1.1 3.12-1.09 3.93-2.38 7.9-3.31 11.9-.4 1.83-.17 3.9-.2 5.76l-.29 13.61c-.08 4.5-.2 9-.28 13.5-.04 1.33-.04 2.66-.08 4v.77c0 .04-.05.04-.05.08-.36.85-.72 1.74-1.05 2.63h2.68l.24-.64c.24-.65.53-1.3.6-1.95.33-3.08.13-6.32.2-9.4l.37-16.32c.08-3.65.25-7.33.25-10.98 0-.16 0-.32.04-.37.12-.52.28-1.05.44-1.57l2.07-7.42.97-3.48c.08-.25.49-1.22.53-1.66.4-.33.73-.73 1.1-1.1.48-.48.96-.97 1.5-1.45 1.85 1.45 3.72 2.91 5.62 4.37.2.16.4.28.57.44v7.9c0 2.27-.16 4.62.16 6.85l.85 5.23c.2 1.3.37 2.59.6 3.85 0 .16 0 .28.05.44l.12 1.95.37 5.7c.08 1.47.2 2.93.28 4.42.04.53.12.98.49 1.34l1.82 1.82.53.53c1.09 1.1 2.83-.6 1.7-1.7l-2.11-2.1c-.16-2.4-.28-4.79-.45-7.14-.12-2.06-.16-4.17-.48-6.2l-1.46-8.99c0-.08-.04-.16-.04-.24.08-.29 0-.65 0-.93v-4.38c0-2.43.08-4.9.04-7.37 2.71.44 5.43.93 8.18 1.38 3.57.56 7.17.97 10.74 1.41.52.08 1.1.13 1.62.2.52.09.89.13 1.38-.28.69-.65 1.33-1.33 2.02-2.02 1.1-1.1-.6-2.84-1.7-1.7l-1.62 1.61a159.6 159.6 0 0 1-4.33-.52l-2.03-.24h-.08c-.37-.04-.77-.13-1.14-.17-3.03-.44-6.07-.89-9.07-1.41-1.58-.25-3.12-.53-4.7-.77-2.06-1.62-4.13-3.2-6.2-4.83.4-.48.65-.93 1.1-1.45a41.64 41.64 0 0 1 3.28-3.28c7.74-7.26 16.08-13.9 24.3-20.58a1717.06 1717.06 0 0 1 21.07-16.73 1135.9 1135.9 0 0 1 42.13-4.7c8.06-.77 16.12-1.7 24.23-2.11 3.24-.16 6.68 1.1 9.72 2.1 5.06 1.75 9.92 3.98 14.7 6.4 3.97 2.03 7.9 4.14 11.75 6.4 1.66.98 3.32 2.24 5.1 2.97 14.43 5.95 28.9 11.78 43.27 17.74l23.7 9.84 7.86 3.28 2.35.98c.2.08.6.32.9.44.4.45.96.85 1.4 1.26 1.47 1.33 2.92 2.63 4.38 3.97.9.8 1.9 1.58 2.72 2.43-.12-.12.16.32.24.48.28.57.57 1.1.9 1.67 1.81 3.48 3.64 6.92 5.42 10.4.69 1.3 1.3 2.6 2.03 3.85.04.05.08.13.08.17-.08.48-.2 1.78-.25 1.82-.2 1.46-.36 2.96-.56 4.42-.2 1.53 2.22 1.53 2.43 0l.73-5.68c.12-1.09-.2-1.66-.7-2.59a1249.6 1249.6 0 0 1-6.27-11.87ZM121.37 19.73c3.04 4.05 6.04 8.14 9.08 12.2a70.5 70.5 0 0 0 3.4 4.37 87.65 87.65 0 0 0 6.08 6.2c3.72 3.52 7.49 7.05 11.22 10.57 1.41 1.34 2.87 2.67 4.3 4.05.11.12.23.24.36.32.52.5 1.3.53 1.98.61 1.99.2 4.01-.24 5.88-.93 1-.36 2.1-.77 3.07-1.34l1.38 1.38.73 6.32c.08.65.49 1.22 1.22 1.22.6 0 1.3-.57 1.21-1.22l-.49-4.1c-.08-.76-.2-1.57-.28-2.34 0-.16-.04-.28-.04-.45-.04-.4-.2-.68-.44-.93a8.42 8.42 0 0 0 4.13-1.9c.6-.53 1.25-1.01 1.86-1.54 2.72-2.23 5.39-4.46 8.1-6.69l2.19-1.82c.49-.4.45-1.3 0-1.7-.49-.49-1.22-.4-1.7 0l-5.6 4.62-6.47 5.35a6.5 6.5 0 0 1-2.47 1.25c-.65.16-1.3.16-1.99.16.12-.73.16-1.5.12-2.22a25.74 25.74 0 0 0-.6-4.62l.03-.04c2.92-2.8 5.84-5.55 8.8-8.35l14.17-13.45c1.18-1.13 2.35-2.27 3.53-3.36a5.39 5.39 0 0 1 3.8-1.5 6 6 0 0 1 3.2 1.18l13.9 9.31c2.35 1.58 4.7 3.16 7.05 4.7.49.33 1.01.7 1.5 1.02.28.16.6.2.97.24h3.85c.4 0 .9-.24 1.05-.6 2.4-5.11 4.74-10.22 7.13-15.28l.98-2.15c.2-.44.24-1.1-.2-1.46-4.22-3.52-8.43-7-12.65-10.53l-.16-.12a1.5 1.5 0 0 0-.6-.49c-1.42-1.17-2.8-2.39-4.18-3.6L217.67.2h-3.65l4.38 3.9c.89.76 1.74 1.57 2.63 2.3l.6.49a472.23 472.23 0 0 0-4.57 4.37c-2.96 2.84-5.96 5.63-8.91 8.47-.61.6-1.26 1.17-1.87 1.78-1.38-.93-2.75-1.86-4.13-2.75a7.88 7.88 0 0 0-9.72.89c-1.1 1.05-2.19 2.1-3.28 3.12-4.46 4.25-8.96 8.5-13.41 12.76-2.96 2.8-5.96 5.55-8.88 8.38a162.9 162.9 0 0 0-3.36-4.09c-.97-1.17-1.94-2.39-2.91-3.56 1.33-1.3 2.67-2.64 4-3.93 3.65-3.6 7.3-7.17 10.98-10.78 4.38-4.33 8.8-8.63 13.17-12.96 2.88-2.8 5.71-5.6 8.59-8.39h-3.49c-1.74 1.75-3.52 3.45-5.26 5.19-4.38 4.33-8.8 8.63-13.17 12.96-3.8 3.77-7.61 7.5-11.46 11.26-1.62 1.58-3.28 3.16-4.9 4.78-1.22-1.5-2.43-3-3.69-4.5-3.57-4.37-7.13-8.7-10.7-13.04-.2-.24-.4-.48-.6-.77.2-.04.4-.16.6-.32l4.22-4.21 10.17-10.17 1.13-1.14h-3.44l-8.63 8.63c-1.7 1.7-3.49 3.4-5.15 5.15l-.08.08a.94.94 0 0 0-.24.36c-3-3.68-6.04-7.37-9.03-11.02-.86-1.05-1.75-2.1-2.6-3.16h-3.12c.25.29.45.57.7.85 3.68 4.5 7.32 8.96 11.01 13.45 3.77 4.58 7.54 9.2 11.3 13.78 3.12 3.77 6.2 7.57 9.32 11.34 1.58 1.95 3.16 3.85 4.74 5.8.32 1.17.53 2.34.73 3.52.12.77.24 1.94.2 2.92 0 .24-.04.48-.04.72v.17c0 .12-.04.2-.04.32-.04.2-.12.4-.16.6v.05c-.93.53-1.74.85-2.71 1.17-1.79.61-3.73 1.06-5.51.65-3.57-3.36-7.13-6.68-10.66-10.04l-5.47-5.1c-.93-.9-1.86-1.75-2.75-2.68a70.47 70.47 0 0 1-3.32-3.6c-.25-.3-.49-.54-.7-.82.13.12.09.08.05.08l-.12-.16c-3.33-4.5-6.69-8.95-10-13.45-2-2.63-3.94-5.3-5.76-8.02-2.35-3.48-4.5-7.09-6.6-10.74-.13-.24-.29-.48-.41-.72h-2.8c.41.68.81 1.41 1.22 2.1a155.4 155.4 0 0 0 11.26 17.26Zm92.12-1.62c2.96-2.84 5.96-5.63 8.91-8.47.41-.36.78-.73 1.18-1.13 1.05.89 2.1 1.74 3.16 2.63 2.8 2.31 5.55 4.62 8.34 6.93L228.4 32.4c-.24.53-.49 1.01-.69 1.54-.97 0-1.94 0-2.96-.04-3.6-2.4-7.16-4.82-10.77-7.21l-5.6-3.77c1.71-1.62 3.41-3.24 5.11-4.82ZM43.39 5.51c.89.69 1.74 1.42 2.63 2.03.04.04.08.08.12.08.53.4 1.38.08 1.66-.45.37-.6.08-1.25-.44-1.66a802.66 802.66 0 0 1-6.97-5.3h-3.97L38 1.4a218.2 218.2 0 0 0 5.39 4.1Zm558.76 84.55c3.4 2.7 6.44 6 9.03 9.47 2.11 2.84 4.02 5.96 5.03 9.4.44 1.54.69 3.08.77 4.66l.73 11.14c.32 5.23.68 10.41 1 15.64.21 3.04.37 6.08.62 9.07v.17c.04.76 1.25.76 1.21 0l-.48-7.66c-.33-5.19-.7-10.37-1.02-15.56-.28-4.05-.52-8.14-.8-12.2-.09-1.13-.13-2.26-.33-3.4-.65-3.52-2.31-6.84-4.25-9.84a52.43 52.43 0 0 0-10.46-11.54.69.69 0 0 1-.2-.17c-.6-.52-1.46.33-.85.82Zm-284.18 81.42a188.2 188.2 0 0 1-2.27-3.77c-.4-.64-1.46-.04-1.06.61 1.67 2.72 3.33 5.43 4.95 8.14l.56.94c-1.13 2.75-2.3 5.5-3.44 8.3-.12.24-.2.53-.32.77h-10.21l-5.47-8.22c-.28-.4-.53-.81-.81-1.22-.45-.65-1.5-.04-1.05.6 1.86 2.8 3.72 5.6 5.59 8.35.28.45.56.9.85 1.3.28.4.64.37 1.05.37h10.45c.29 0 .49-.2.57-.45l3.64-8.71c.13-.32.37-.73.45-1.1.04-.4-.36-.84-.57-1.17a149.65 149.65 0 0 1-2.91-4.74Z" fill="#242222"/>
  <path d="M736.47 260.11h.49c24.87 0 53.88-1.21 62.22-4.57l5.19-6.97c-1.14-.9-2.27-1.78-3.36-2.67-2.92-2.31-5.84-4.62-8.8-6.93-3.36-2.68-6.72-5.3-10.12-7.98-2.8-2.2-5.6-4.42-8.39-6.6l-3.48-2.76c-.61-.49.24-1.34.85-.85l.04.04a1656.38 1656.38 0 0 0 13.04 10.29c3.37 2.67 6.73 5.3 10.13 7.98l8.39 6.6c.8.65 1.62 1.26 2.39 1.9l12.31-16.6 4.13-13.86-10.69-12.2a6.14 6.14 0 0 1-9-7.7l-3.56-2.7-.85.97c-5.63-4.74-11.79-9.32-17.62-12.6l-23.5 27.95 5.67 4.46-27.54 37.27-1.18 3.52-7.9-2.55 7.94 5.51c.9.69 2.03 1.05 3.2 1.05Z" fill="#5A5854"/>
  <path d="M455 316.32c0-1.22.2-2.27.57-3.08a5.4 5.4 0 0 1 2.67-2.75c.82-.34 1.7-.5 2.6-.49 1.78 0 3.2.57 4.25 1.66 1.05 1.1 1.58 2.63 1.58 4.58 0 1.94-.53 3.48-1.58 4.58a5.64 5.64 0 0 1-4.26 1.66c-1.78 0-3.2-.53-4.25-1.62a6.38 6.38 0 0 1-1.58-4.54zm2.51-.08c0 1.38.33 2.39.93 3.12.6.68 1.48 1.07 2.4 1.05.97 0 1.78-.36 2.38-1.05.61-.7.93-1.74.93-3.16 0-1.38-.28-2.4-.89-3.08a3.07 3.07 0 0 0-2.43-1.01c-1 0-1.82.32-2.43 1-.56.7-.89 1.75-.89 3.13zm18.84 1.58 2.35.73a5.2 5.2 0 0 1-1.82 2.91 5.1 5.1 0 0 1-3.2.98 5.14 5.14 0 0 1-3.93-1.62 6.37 6.37 0 0 1-1.54-4.5c0-1.99.52-3.56 1.54-4.66a5.4 5.4 0 0 1 4.09-1.66c1.46 0 2.67.45 3.6 1.3a4.3 4.3 0 0 1 1.22 2.22l-2.4.57a2.82 2.82 0 0 0-.88-1.5 2.54 2.54 0 0 0-1.66-.52c-.9 0-1.62.32-2.2.97-.56.65-.84 1.66-.84 3.12 0 1.54.28 2.59.8 3.24.53.64 1.32 1 2.15.97.65 0 1.22-.2 1.67-.6.52-.41.85-1.06 1.05-1.95zm8.71-1.5c0-1.22.2-2.27.57-3.08a5.75 5.75 0 0 1 2.67-2.75c.82-.34 1.7-.5 2.6-.49 1.78 0 3.2.57 4.25 1.66 1.05 1.1 1.58 2.63 1.58 4.58 0 1.94-.53 3.48-1.58 4.58a5.64 5.64 0 0 1-4.26 1.66c-1.78 0-3.2-.53-4.25-1.62a6.38 6.38 0 0 1-1.58-4.54zm2.51-.08c0 1.38.32 2.39.93 3.12.6.68 1.48 1.07 2.4 1.05.96 0 1.78-.36 2.38-1.05.61-.7.93-1.74.93-3.16 0-1.38-.28-2.4-.89-3.08a3.07 3.07 0 0 0-2.43-1.01 3.1 3.1 0 0 0-2.43 1c-.57.7-.89 1.75-.89 3.13zm11.06-2.72h2.15v1.3c.28-.44.65-.81 1.13-1.05a3.45 3.45 0 0 1 4.17.77c.73.77 1.06 1.9 1.06 3.32a5.1 5.1 0 0 1-1.06 3.4 3.36 3.36 0 0 1-2.59 1.22c-.48 0-.93-.08-1.3-.29a5 5 0 0 1-1.25-.97v4.42h-2.3v-12.12zm2.27 4.22c0 .97.2 1.7.57 2.19.4.48.85.68 1.41.68.53 0 .98-.2 1.34-.65.37-.44.53-1.13.53-2.1 0-.93-.2-1.58-.57-2.03a1.67 1.67 0 0 0-1.38-.64c-.56 0-1 .2-1.41.64a3.3 3.3 0 0 0-.5 1.9zm12.11-4.22v1.83h-1.58v3.52c0 .73 0 1.14.04 1.26.04.12.08.2.2.28.13.08.25.12.41.12.2 0 .53-.08.93-.2l.2 1.78a4.3 4.3 0 0 1-1.82.37c-.4 0-.8-.08-1.13-.2a1.7 1.7 0 0 1-.73-.53 1.8 1.8 0 0 1-.32-.9 12.3 12.3 0 0 1-.09-1.61v-3.85h-1.05v-1.82h1.05v-1.75l2.31-1.33v3.07h1.58zm1.66-1.17v-2.15h2.31v2.15h-2.3zm0 9.92v-8.7h2.31v8.7h-2.3zm4.53-8.75h2.16v1.18a3.4 3.4 0 0 1 2.71-1.38 2.73 2.73 0 0 1 2.47 1.42c.37-.45.81-.81 1.26-1.05.44-.25.93-.37 1.42-.37.64 0 1.17.12 1.62.4.44.25.76.65 1 1.14.17.37.25.97.25 1.82v5.6h-2.3v-4.99c0-.85-.09-1.42-.25-1.66-.2-.32-.53-.49-.97-.49-.33 0-.61.09-.94.29-.28.2-.48.48-.6.85-.12.36-.2.97-.2 1.82v4.17h-2.31v-4.78c0-.85-.04-1.37-.13-1.66-.08-.24-.2-.44-.36-.56-.16-.13-.4-.17-.69-.17a1.61 1.61 0 0 0-1.58 1.1c-.12.36-.2.97-.2 1.78v4.3h-2.31v-8.76h-.04zm16.94 2.68-2.1-.37c.18-.74.6-1.4 1.21-1.86a4.4 4.4 0 0 1 2.55-.6c1.02 0 1.79.11 2.31.36.49.24.85.56 1.06.93.2.36.32 1.05.32 2.06l-.04 2.72c0 .77.04 1.33.12 1.7.08.36.2.77.4 1.18h-2.26c-.04-.17-.12-.37-.2-.7a1.6 1.6 0 0 1-.09-.28 3.66 3.66 0 0 1-2.67 1.14 2.9 2.9 0 0 1-2.1-.73 2.39 2.39 0 0 1-.77-1.87c0-.48.12-.93.36-1.33s.57-.7.97-.9a8.4 8.4 0 0 1 1.82-.52c1.1-.2 1.83-.4 2.23-.57v-.24c0-.45-.12-.77-.32-.93-.2-.16-.65-.29-1.26-.29-.4 0-.73.08-.97.25-.28.2-.49.5-.57.85zm3.08 1.86-1.42.37c-.64.12-1.05.28-1.25.4a.98.98 0 0 0-.45.81c0 .32.13.6.37.85s.56.37.93.37c.4 0 .81-.13 1.17-.4.29-.21.45-.45.57-.78.04-.2.08-.57.08-1.13zM352.68 193.8v-11.26h2.27v9.32h5.67v1.9h-7.94zm9.65-11.34h2.27v6.16a16 16 0 0 0 .08 1.9c.08.45.32.85.68 1.14.37.28.9.4 1.5.4.65 0 1.14-.12 1.46-.4.33-.29.53-.61.6-.98.09-.4.09-1 .09-1.94v-6.28h2.27v5.95c0 1.38-.08 2.31-.2 2.88a3.1 3.1 0 0 1-.7 1.42c-.32.36-.76.69-1.33.93-.57.24-1.3.33-2.19.33-1.09 0-1.9-.13-2.47-.37a3.37 3.37 0 0 1-1.98-2.23c-.2-.94-.27-1.9-.25-2.87v-6.04zm11.5 11.34v-11.34h2.23l4.66 7.57v-7.57h2.1v11.34h-2.3l-4.58-7.37v7.37zm11.1-11.99 1.06-2.3h2.43l-2.11 2.3zm.25 12v-11.35h2.26v11.34h-2.26zm4.52-.01v-11.34h2.28v5.02l4.62-5.02h3.07l-4.25 4.42 4.5 6.92H397l-3.12-5.3-1.86 1.9v3.44h-2.31v-.04zm18.77 0-4.05-11.34h2.47l2.87 8.39 2.8-8.39h2.43l-4.05 11.34zm7.66 0v-11.34h2.26v11.34zm4.41 0v-11.34h2.27v11.34zm4.46 0v-11.34h2.26v11.34zm194.16 215.96-7.09-5.02 1.62-2.3a9.8 9.8 0 0 1 1.3-1.63c.4-.32.85-.52 1.41-.52.6-.02 1.2.18 1.67.56.44.33.72.65.93 1.02.2.36.28.73.28 1.09 0 .36-.08.69-.2.97-.16.4-.49.9-.97 1.54l-.65.93 2.67 1.9zm-4.86-5.58 2.02 1.41.57-.77c.4-.56.65-.97.69-1.21a1 1 0 0 0-.04-.7c-.08-.2-.24-.4-.45-.56a1.2 1.2 0 0 0-.8-.24c-.29 0-.53.16-.74.36-.16.16-.4.49-.76 1.02l-.5.69zm10.45-2.31-.97 1.37-5.19-3.6.9-1.26.72.53c-.2-.45-.28-.81-.28-1.06 0-.24.08-.48.24-.68.2-.33.53-.57.9-.73l.89 1.25c-.28.1-.52.26-.7.49-.11.2-.2.4-.15.6 0 .2.12.45.36.74.2.28.77.73 1.66 1.33l1.62 1.01zm-4.09-6.61-1.26-.89.93-1.38 1.26.9zm5.87 4.05-5.18-3.56.93-1.38 5.18 3.57zm-1.46-9.03.85-1.3.78.53a2.5 2.5 0 0 1-.2-1.1c0-.36.15-.76.4-1.13.4-.6 1.01-.97 1.74-1.05.77-.12 1.58.12 2.43.69.9.6 1.42 1.25 1.62 2.02.2.77.08 1.42-.32 2.03-.2.28-.45.52-.7.69-.33.19-.7.3-1.09.32l2.64 1.78-.94 1.38-7.2-4.86zm3.45.32c.6.4 1.1.57 1.54.53.44-.04.77-.24 1.01-.57.2-.32.28-.69.16-1.05-.12-.4-.44-.77-1.05-1.18-.57-.36-1.01-.52-1.46-.48-.45.04-.73.24-.93.57-.25.32-.28.69-.16 1.09.08.4.4.77.89 1.1zm6.8-4.33-.93 1.38-5.26-3.49.85-1.3.73.5c-.2-.45-.33-.82-.33-1.06 0-.24.08-.49.24-.73.2-.32.49-.57.86-.73l.93 1.22c-.27.08-.5.25-.65.48-.12.2-.2.4-.16.61 0 .2.16.45.36.69.24.24.81.69 1.7 1.3zm-1.25-6.04-1.05 1.14c-.4-.49-.65-.98-.65-1.46-.04-.53.2-1.1.65-1.78.4-.61.77-1.06 1.13-1.26.37-.2.69-.32.97-.28.29.04.77.24 1.38.6l1.62 1.06c.45.28.81.48 1.05.6.25.09.53.17.9.2l-.9 1.39c-.16-.05-.32-.1-.48-.13-.08-.04-.17-.04-.2-.04.08.4.08.77.03 1.1a2 2 0 0 1-.4.97c-.36.53-.77.9-1.3 1.01-.48.12-.97.04-1.41-.24a1.8 1.8 0 0 1-.65-.73c-.16-.28-.2-.6-.16-.93.04-.32.16-.77.4-1.34.28-.73.49-1.25.53-1.58l-.12-.08c-.29-.16-.49-.24-.7-.16-.2.04-.4.28-.64.65-.14.2-.23.44-.24.69 0 .2.04.36.24.6zm2.35-1.13c-.04.2-.16.57-.32.97-.17.45-.25.73-.25.93 0 .29.12.45.33.61.2.12.4.16.64.12.25-.04.45-.2.57-.4.16-.25.24-.53.2-.9a.99.99 0 0 0-.24-.64c-.19-.2-.4-.36-.65-.49zm3.44-8.1-.6 1.54c-.33-.13-.58-.17-.82-.09-.24.09-.44.25-.6.53-.2.37-.29.69-.17 1.06.12.36.45.72 1.01 1.09.65.4 1.14.57 1.54.52.4-.03.7-.24.94-.6.16-.29.24-.53.2-.81-.04-.29-.25-.57-.57-.85l1.1-1.26c.52.53.85 1.13.93 1.74.08.61-.13 1.26-.53 1.95a2.98 2.98 0 0 1-1.9 1.42 3.25 3.25 0 0 1-2.48-.61 3.42 3.42 0 0 1-1.62-1.99c-.2-.77-.04-1.54.45-2.35.4-.65.9-1.1 1.38-1.3.48-.2 1.1-.2 1.74 0zm-2.14-4.62 2.7 1.66a2.48 2.48 0 0 1 .94-2.92c.28-.2.57-.28.81-.32.24-.04.53 0 .81.12.24.08.65.28 1.14.57l3.16 1.9-.86 1.42-2.83-1.74a5.55 5.55 0 0 0-1.13-.57.78.78 0 0 0-.53.08c-.16.08-.33.24-.45.45-.3.45-.26 1.04.08 1.46.2.24.49.48.94.76l2.7 1.67-.84 1.41-7.41-4.53.76-1.42zm5.14-5.39-1.14-1.62.93-1.62.7 2.3-.5.94zm2.1 1.7-1 1.18a2.3 2.3 0 0 1-.74-1.46c-.04-.49.16-1.1.57-1.83.36-.64.73-1.09 1.05-1.3.33-.23.65-.31.97-.31.33 0 .77.2 1.42.56l1.66 1.02c.49.28.85.44 1.1.56.24.12.56.16.89.16l-.85 1.42a1.4 1.4 0 0 1-.49-.12c-.08-.04-.16-.04-.2-.04.08.4.12.77.08 1.1-.04.36-.16.68-.37 1-.32.57-.72.94-1.21 1.06-.49.16-.97.08-1.42-.2-.32-.17-.52-.4-.69-.7-.16-.28-.2-.6-.2-.92 0-.33.12-.77.33-1.34.28-.73.4-1.3.44-1.62l-.16-.08c-.28-.16-.53-.2-.73-.12-.2.08-.4.28-.65.69-.16.24-.2.48-.2.68.08.17.2.4.4.61zm2.27-1.21c-.04.2-.16.56-.28 1-.16.45-.2.78-.2.94.04.28.12.45.32.57.2.12.4.16.65.08a1 1 0 0 0 .56-.45c.17-.24.2-.56.17-.89a1.06 1.06 0 0 0-.29-.6 2.4 2.4 0 0 0-.68-.5zm5.02-2.68-.8 1.46-5.51-3.08.76-1.33.77.44c-.2-.32-.33-.68-.36-1.05 0-.25.04-.49.16-.73.2-.32.45-.6.81-.81l1.01 1.17c-.28.17-.48.33-.6.57-.12.2-.16.4-.12.6.04.21.16.45.4.7.24.24.85.64 1.78 1.17l1.7.9zm4.22-7.78-.77 1.46-2.84-1.5c-.38-.22-.79-.4-1.21-.52-.2-.04-.4 0-.57.08a.88.88 0 0 0-.4.44c-.28.5-.21 1.11.16 1.54.2.2.6.45 1.21.81l2.52 1.34-.77 1.46-5.55-2.96.73-1.38.8.45a2.53 2.53 0 0 1 .05-2.35c.16-.32.4-.6.64-.81.43-.36 1-.48 1.54-.32.25.08.61.2 1.02.44zm-5.75-4.69-1.42-.61.65-1.54 1.41.6zm6.6 2.75-5.8-2.43.65-1.54 5.8 2.43zm-372.05-90.42 4.95-5.27-1.87-1.78 1.01-1.05 5.03 4.74-1.01 1.05-1.87-1.78-4.94 5.26zm4.66 4.34-1.21-1.14 4.3-4.62 1.13 1.06-.61.64c.48-.12.85-.16 1.1-.12.23.04.48.17.64.33.29.26.5.6.6.97l-1.37.73c-.08-.33-.2-.57-.4-.73a.8.8 0 0 0-.57-.24c-.2 0-.45.08-.77.24-.29.2-.81.65-1.54 1.46zm2.27 2.14 4.25-4.66 1.22 1.14-4.25 4.66zm4.86-5.3 1.06-1.14 1.21 1.13-1.05 1.14-1.22-1.14zm1.7 8.5 1.06 1.34c-.57.32-1.14.44-1.7.36a2.94 2.94 0 0 1-1.63-.8c-.8-.74-1.17-1.55-1.09-2.44.08-.69.4-1.37 1.01-2.02.7-.77 1.46-1.22 2.27-1.26a2.7 2.7 0 0 1 2.15.73c.69.65 1.05 1.34 1.01 2.19 0 .8-.44 1.7-1.33 2.63l-3.12-2.8c-.33.37-.49.78-.49 1.14 0 .36.16.69.45.93.2.16.4.29.64.29.25 0 .49-.08.77-.29zm1.18-1.17c.32-.37.49-.73.44-1.06a.99.99 0 0 0-.4-.85 1.16 1.16 0 0 0-.93-.32c-.37.04-.7.24-.98.57zm4.09 8.55-1.17-1.02.6-.69c-.44.09-.85.09-1.21 0a2.9 2.9 0 0 1-.98-.48 2.45 2.45 0 0 1-.8-1.9c0-.78.32-1.59 1-2.36.7-.8 1.42-1.25 2.2-1.33.72-.08 1.41.12 1.98.65.53.44.81 1.09.81 1.86l2.07-2.35 1.25 1.1zm-1.17-5.4a3 3 0 0 0-.78 1.3c-.08.49.05.94.41 1.22.28.24.65.36 1.05.28.4-.08.85-.32 1.26-.85.49-.52.73-1.01.73-1.42 0-.4-.12-.77-.45-1a1.22 1.22 0 0 0-1.05-.3c-.32.05-.77.3-1.17.78zm6.19 3.94-.97-1.18c.45-.32 1-.48 1.54-.44.49.04 1.05.32 1.7.85.57.48.93.89 1.1 1.3.16.36.2.68.16 1-.08.29-.33.74-.81 1.3l-1.3 1.46c-.36.4-.6.73-.73.97-.12.25-.24.53-.32.85l-1.26-1.05.2-.49c.04-.08.08-.16.08-.2-.4.04-.76 0-1.09-.12-.34-.12-.65-.3-.93-.53-.49-.4-.77-.89-.81-1.41-.04-.53.08-.98.44-1.38.25-.29.5-.45.81-.57.33-.08.65-.12.98-.04.32.08.77.29 1.25.57.7.4 1.18.65 1.5.73l.12-.12c.2-.25.29-.49.29-.7 0-.2-.2-.44-.57-.72a1.4 1.4 0 0 0-.65-.33c-.24.05-.48.09-.73.25zm.81 2.47c-.2-.08-.52-.25-.93-.45-.4-.2-.73-.36-.89-.36-.28-.04-.49.04-.65.24-.16.16-.2.4-.2.65a.9.9 0 0 0 .32.6c.25.21.53.33.85.33.25 0 .49-.04.65-.16.12-.08.33-.28.57-.57zm3.12 6.57 5.43-6.81 1.38 1.09-2.43 3 5.19-.81 1.86 1.46-4.66.6-.6 6.32-1.79-1.42.69-4.7-2.03.25-1.66 2.06-1.38-1.05z" fill="#C2B8B8"/>
  <path d="m321.61 290.1 2.68-8.84 1.53 1.14-2.06 6.48 5.55-3.93 1.5 1.1-7.7 5.14-1.5-1.1Zm5.06 3.64 4.7-7.29 2.35 1.54c.9.57 1.46 1.01 1.7 1.26.37.36.53.85.61 1.37.04.57-.12 1.14-.48 1.7-.29.45-.61.77-.98.98-.36.2-.73.32-1.09.32-.37 0-.69-.04-.97-.16a8.5 8.5 0 0 1-1.58-.9l-.98-.6-1.82 2.75-1.46-.97Zm5.4-5.1-1.34 2.06.8.53c.57.37 1.02.6 1.26.65.24.04.49.04.69-.08.2-.08.4-.25.53-.45.16-.28.24-.52.2-.8a1.05 1.05 0 0 0-.37-.7 6 6 0 0 0-1-.73l-.78-.48Zm149.85-98.74-7.38-4.61 1.38-2.24 5.86 1.82-4.2-4.47 1.38-2.24 7.37 4.6-.88 1.38-5.8-3.61 4.88 5.1-.89 1.45-6.72-2.16 5.8 3.61-.8 1.37Zm2.45-10.02c-.46-.3-.84-.7-1.14-1.22a2.56 2.56 0 0 1-.38-1.6c.02-.57.2-1.1.55-1.65.5-.82 1.17-1.3 2.01-1.49a3.3 3.3 0 0 1 2.5.49 3.2 3.2 0 0 1 1.08 4.54c-.3.5-.7.87-1.21 1.18-.52.3-1.04.44-1.6.41a4.74 4.74 0 0 1-1.81-.66Zm.96-1.41c.54.34 1.03.45 1.47.4.45-.06.76-.32 1-.7.22-.36.29-.77.15-1.17-.13-.44-.47-.8-1.01-1.14a2.08 2.08 0 0 0-1.43-.4c-.45.06-.76.31-1 .68a1.4 1.4 0 0 0-.15 1.19c.13.44.43.8.97 1.14Zm5.92-3.53-7.38-4.61.88-1.4 7.38 4.6-.88 1.4Zm4.87-7.79-.8 1.32-.8-.5a2.45 2.45 0 0 1-.12 2.24c-.38.62-.98.96-1.74 1.1-.77.16-1.59-.06-2.5-.63-.9-.58-1.46-1.2-1.65-1.93a2.54 2.54 0 0 1 .3-2.04c.38-.58.94-.96 1.7-1.07l-2.65-1.65.89-1.41 7.37 4.56Zm-5.16 2c.58.34 1.03.53 1.4.52.52-.02.88-.2 1.15-.61.2-.33.22-.7.09-1.1-.14-.4-.48-.75-1.02-1.1-.62-.38-1.11-.57-1.51-.51-.4.05-.72.27-.96.6-.19.33-.25.7-.12 1.1.14.4.47.8.97 1.1Zm3-6.83-1.01 1.13a2.6 2.6 0 0 1-.7-1.48 3.1 3.1 0 0 1 .63-1.8c.38-.63.77-1.05 1.09-1.26.31-.21.68-.3.96-.28.33.03.78.22 1.4.6l1.66 1.04c.45.3.82.5 1.07.57.25.11.53.14.86.21l-.88 1.41a5.22 5.22 0 0 1-.5-.14c-.08-.04-.16-.04-.2-.04.1.4.1.77.04 1.1-.07.37-.18.7-.37.98a2.3 2.3 0 0 1-1.26 1.02 1.8 1.8 0 0 1-1.43-.23c-.29-.2-.54-.43-.67-.71a1.8 1.8 0 0 1-.16-.93c.03-.32.18-.77.36-1.35.3-.74.44-1.27.51-1.6l-.12-.07c-.29-.15-.5-.23-.7-.18-.2.05-.4.3-.66.67-.16.25-.23.5-.22.7 0 .2.1.4.3.64Zm2.31-1.18a5 5 0 0 1-.33.99c-.14.45-.25.73-.25.94.01.28.14.48.35.6.2.1.4.14.65.1a.84.84 0 0 0 .55-.43c.16-.25.23-.54.21-.9 0-.25-.1-.45-.26-.64-.09-.12-.33-.27-.67-.5l-.25-.16Zm5.27-2.66-6.7-1.18.93-1.5 3.35.7 1.1.29c-.17-.24-.3-.36-.38-.44-.13-.15-.25-.27-.34-.43l-2.08-2.72.92-1.45 4 5.45-.8 1.28Zm.84-4.77.68-1.56c.32.1.6.1.85 0 .24-.08.47-.3.7-.62.24-.38.34-.7.34-.95-.01-.2-.1-.32-.26-.43-.13-.08-.2-.08-.33-.07-.12.04-.28.13-.47.34a9.8 9.8 0 0 1-2.05 1.73c-.56.26-1.09.2-1.58-.1a1.7 1.7 0 0 1-.82-1.28c-.06-.56.12-1.22.58-2a3.7 3.7 0 0 1 1.37-1.43 2.1 2.1 0 0 1 1.5-.09l-.6 1.48a1 1 0 0 0-.7.02c-.19.1-.39.3-.58.6-.23.37-.34.65-.33.9 0 .16.05.28.17.35.09.08.2.08.33.03.16-.08.6-.42 1.22-1.05a4.62 4.62 0 0 1 1.62-1.2c.44-.13.89-.07 1.34.2.5.3.8.78.86 1.39.1.65-.11 1.34-.61 2.13-.46.75-.97 1.2-1.53 1.47s-1.13.33-1.7.14Zm5.42-5.25-7.38-4.61.88-1.4 3.9 2.45-.83-2.85 1.07-1.74.8 3.05 4.62.16-.96 1.54-3.25-.17.29 1.08 1.7 1.08-.85 1.4Zm-1.49-10.98-1.07-1.62 1-1.58.65 2.33-.58.87Zm2.05 1.8-1.01 1.13a2.58 2.58 0 0 1-.7-1.48 3.1 3.1 0 0 1 .62-1.8 4.1 4.1 0 0 1 1.1-1.26c.31-.21.67-.3.96-.28.32.03.78.22 1.4.6l1.65 1.04c.46.3.83.5 1.08.57.25.11.53.14.86.21l-.89 1.41-.49-.14c-.08-.04-.16-.04-.2-.04.1.4.1.77.04 1.1-.07.37-.18.7-.37.98-.35.54-.78.88-1.27 1.02a1.8 1.8 0 0 1-1.42-.23c-.3-.2-.54-.43-.68-.71-.13-.28-.18-.6-.15-.93.03-.32.18-.77.36-1.35.3-.74.44-1.27.51-1.6l-.12-.07c-.3-.16-.5-.23-.7-.18-.2.05-.4.3-.67.67-.15.25-.22.5-.21.7 0 .16.1.4.3.64Zm2.31-1.18a5 5 0 0 1-.33.99c-.14.45-.26.73-.25.94.01.28.14.48.35.6.2.1.4.14.65.1a.84.84 0 0 0 .55-.43c.15-.25.23-.54.21-.9a1 1 0 0 0-.26-.64c-.09-.12-.34-.27-.67-.5l-.25-.16Zm4.12-12.14-.39 1.63a1.21 1.21 0 0 0-.85.07c-.24.13-.4.3-.54.59a1.3 1.3 0 0 0 0 1.1c.17.35.54.62 1.16.89.7.3 1.23.4 1.59.26.4-.09.68-.34.82-.75.12-.3.15-.58.06-.82a1.6 1.6 0 0 0-.68-.74l.88-1.41c.63.46 1.01.98 1.2 1.58.18.6.08 1.25-.26 2a2.85 2.85 0 0 1-1.68 1.67c-.76.27-1.62.22-2.56-.2a3.6 3.6 0 0 1-1.93-1.7c-.3-.73-.3-1.54.08-2.4.3-.7.69-1.2 1.16-1.5a3.59 3.59 0 0 1 1.94-.27Zm3.89-3.5.92-1.41c.47.43.77.94.87 1.47.1.56.04 1.13-.26 1.79-.46.99-1.08 1.62-1.97 1.81-.68.15-1.46.05-2.24-.29a3.5 3.5 0 0 1-1.92-1.71 2.78 2.78 0 0 1 0-2.27 2.9 2.9 0 0 1 1.72-1.68c.8-.28 1.74-.1 2.94.42l-1.65 3.83c.45.19.86.21 1.22.08.36-.14.6-.39.74-.72.11-.25.1-.45.06-.69-.01-.24-.18-.44-.43-.63Zm-1.53-.76a1.52 1.52 0 0 0-1.17-.08c-.32.13-.56.34-.71.63-.15.33-.14.66 0 .98.13.31.42.55.83.74l1.05-2.27Zm2.71-1.51.43-1.64c.32.07.6.02.84-.11s.44-.38.59-.75c.18-.41.21-.74.16-.98a.55.55 0 0 0-.33-.4c-.13-.03-.25-.06-.33-.02-.12.04-.24.17-.43.42a10.5 10.5 0 0 1-1.75 2.05c-.52.34-1.04.36-1.62.13-.5-.22-.83-.58-1.01-1.14-.18-.56-.08-1.2.29-2.07.34-.79.72-1.33 1.16-1.63.43-.3.92-.35 1.49-.29l-.35 1.55c-.25-.03-.49.02-.69.15-.2.13-.35.34-.5.66-.19.42-.26.7-.21.94.05.16.09.24.25.32.13.04.2.03.37-.05.16-.1.5-.5 1.05-1.26a4.84 4.84 0 0 1 1.4-1.42c.4-.22.85-.2 1.34-.01.54.22.88.66 1.1 1.26.23.6.09 1.33-.29 2.2a3.44 3.44 0 0 1-1.28 1.66c-.51.3-1.07.49-1.68.43Zm-.07-11.23 1.23.53-.45 1.03 2.35 1c.45.2.74.3.82.34.08 0 .16 0 .24-.05a.48.48 0 0 0 .2-.2c.08-.13.1-.37.1-.7l1.23.37c0 .4-.1.85-.28 1.3-.12.29-.27.5-.47.7-.2.18-.4.3-.55.35-.16.05-.4.02-.7-.06-.2-.03-.57-.18-1.1-.4l-2.51-1.1-.3.7-1.24-.52.3-.7-1.15-.48-.23-1.94 2.06.86.45-1.03Zm2.71-1.51-.86 1.28a2.2 2.2 0 0 1-.9-1.34c-.1-.48 0-1.14.35-1.88.3-.7.6-1.16.88-1.4.27-.26.6-.43.92-.44.32-.02.81.09 1.47.39l1.77.79c.5.22.9.37 1.15.4.25.08.57.06.9.05l-.64 1.53c-.12 0-.29-.03-.53-.07-.08 0-.16-.03-.2-.03a2.77 2.77 0 0 1-.01 2.11c-.27.58-.62 1-1.1 1.21-.48.22-.96.2-1.46-.03a2 2 0 0 1-.79-.62 1.8 1.8 0 0 1-.31-.92c-.01-.32.05-.81.15-1.38.18-.78.28-1.31.27-1.63l-.17-.08c-.28-.11-.53-.14-.73-.06-.2.1-.35.34-.54.75-.11.3-.14.5-.1.7.13.28.26.47.47.67Zm2.13-1.5c-.03.25-.06.57-.17 1.02-.1.45-.13.78-.09.94.05.24.18.44.43.51.2.08.45.1.65.02a.9.9 0 0 0 .5-.5c.12-.3.15-.58.05-.9a1.1 1.1 0 0 0-.34-.6 6.23 6.23 0 0 0-.7-.38l-.33-.1ZM90.82 88.52l4.95-5.27-1.87-1.78 1.02-1.06 5.02 4.74-1.01 1.06-1.87-1.79-4.94 5.27-1.3-1.17Zm4.66 4.33-1.21-1.13 4.3-4.62 1.13 1.05-.61.65c.48-.12.85-.16 1.1-.12.23.04.48.16.64.32a2 2 0 0 1 .6.97l-1.37.73c-.08-.32-.2-.56-.4-.73a.8.8 0 0 0-.57-.24c-.2 0-.45.08-.77.24-.28.2-.81.65-1.54 1.46l-1.3 1.42Zm2.27 2.11 4.26-4.66 1.21 1.13-4.25 4.66-1.22-1.13Zm4.86-5.27 1.06-1.13 1.21 1.13-1.05 1.14-1.22-1.14Zm1.7 8.51 1.06 1.33a2.6 2.6 0 0 1-1.7.37 2.94 2.94 0 0 1-1.63-.81c-.8-.73-1.17-1.54-1.09-2.43.08-.69.4-1.38 1.01-2.03.7-.77 1.46-1.21 2.27-1.25a2.7 2.7 0 0 1 2.15.73c.69.64 1.05 1.33 1.01 2.18 0 .81-.44 1.7-1.33 2.64l-3.12-2.8c-.33.37-.5.77-.5 1.14 0 .36.17.68.45.93.2.16.41.28.65.28.2-.04.49-.12.77-.28Zm1.18-1.18c.32-.36.48-.73.44-1.05 0-.36-.12-.65-.4-.85a1.16 1.16 0 0 0-.93-.33c-.37.05-.7.25-.98.57l1.87 1.66Zm4.09 8.55-1.17-1.01.6-.69c-.44.08-.85.08-1.21 0a2.73 2.73 0 0 1-.97-.49 2.45 2.45 0 0 1-.81-1.9c0-.77.32-1.58 1-2.35.7-.81 1.43-1.26 2.2-1.34.72-.08 1.41.13 1.98.65.53.45.81 1.1.81 1.87l2.07-2.35 1.25 1.09-5.75 6.52Zm-1.17-5.43a3 3 0 0 0-.77 1.3c-.08.49.04.93.4 1.22.28.24.65.36 1.05.28.41-.08.85-.33 1.26-.85.49-.53.73-1.02.73-1.42 0-.4-.12-.77-.45-1.01a1.22 1.22 0 0 0-1.05-.29c-.36.04-.77.33-1.17.77Zm6.19 3.97-.97-1.17a2.33 2.33 0 0 1 1.54-.45c.49.04 1.05.33 1.7.85.57.49.93.9 1.1 1.3.16.36.2.69.16 1.01-.08.29-.33.73-.81 1.3l-1.3 1.46c-.36.4-.6.73-.73.97a4.1 4.1 0 0 0-.32.85l-1.26-1.05.2-.49a.53.53 0 0 0 .09-.2c-.41.04-.77 0-1.1-.12a3.08 3.08 0 0 1-.93-.53c-.49-.4-.77-.9-.81-1.42-.04-.52.08-.97.45-1.38.24-.28.48-.44.8-.56.33-.08.65-.12.98-.04.32.08.77.28 1.25.56.7.41 1.18.65 1.5.73l.12-.12c.2-.24.29-.48.29-.69 0-.2-.2-.44-.57-.73a1.4 1.4 0 0 0-.65-.32c-.24 0-.48.08-.73.24Zm.81 2.47c-.2-.08-.52-.24-.93-.44-.4-.2-.73-.37-.89-.37a.65.65 0 0 0-.65.25c-.16.16-.2.4-.2.65a.9.9 0 0 0 .32.6c.25.2.53.33.86.33.24 0 .48-.04.64-.16.12-.09.33-.29.57-.57l.28-.29Zm3.12 6.57 5.43-6.8 1.38 1.09-2.43 3 5.19-.82 1.86 1.46-4.66.6-.6 6.33-1.79-1.42.69-4.7-2.03.24-1.66 2.07-1.38-1.05Z" fill="#C2B8B8"/>
  <path d="m127.16 119.91 2.68-8.83 1.53 1.14-2.06 6.48 5.55-3.93 1.5 1.1-7.7 5.14-1.5-1.1Zm5.03 3.69 4.7-7.3 2.34 1.55c.9.56 1.46 1 1.7 1.25.37.37.53.85.61 1.38.04.57-.12 1.13-.48 1.7a2.8 2.8 0 0 1-.97.97 2.33 2.33 0 0 1-2.07.16c-.4-.16-.93-.44-1.58-.89l-.97-.6-1.79 2.75-1.5-.97Zm5.42-5.15-1.33 2.07.8.53c.57.36 1.02.6 1.26.64.25.05.49.05.7-.08.2-.08.4-.24.52-.44.16-.29.24-.53.2-.81a1.04 1.04 0 0 0-.36-.7c-.17-.15-.49-.4-1.02-.72l-.77-.49Zm567.28-96.7-1.42-1.3.77-1.94-2.55-2.35-1.87.98-1.38-1.26 8.4-4.05 1.37 1.26-3.32 8.66Zm-.04-4.7 1.33-3.2-3.03 1.59 1.7 1.62Zm.73 5.35 5.91-6.36 1.22 1.14-5.92 6.36-1.21-1.14Zm6.56 3.37 1 1.33c-.56.29-1.13.4-1.7.33a2.97 2.97 0 0 1-1.57-.81 2.85 2.85 0 0 1-1.05-2.43c.08-.7.44-1.38 1-2.03a3.6 3.6 0 0 1 2.28-1.26c.8-.08 1.5.2 2.1.77a2.92 2.92 0 0 1 1.02 2.2c-.05.8-.5 1.7-1.38 2.62l-3.08-2.83c-.33.36-.49.73-.49 1.13 0 .37.16.7.4.98.21.16.41.28.66.28a2 2 0 0 0 .8-.29Zm1.21-1.18c.33-.36.49-.73.49-1.05 0-.37-.12-.65-.37-.85a1.16 1.16 0 0 0-.93-.33c-.36.04-.69.2-.97.57l1.78 1.66Zm5.19 1.26-4.17 4.45c-.53.61-.98.97-1.26 1.14-.28.16-.6.2-.97.16a1.97 1.97 0 0 1-1.01-.57 3.65 3.65 0 0 1-.37-.4c-.12-.17-.24-.33-.36-.53l1.17-.85c.04.08.08.12.12.16l.12.16c.13.12.25.2.37.2s.24 0 .32-.04c.08-.04.33-.28.7-.64l4.08-4.42 1.26 1.18Zm-.6-1.75 1.04-1.13 1.22 1.13-1.05 1.14-1.22-1.14Zm-.45 4.95c.36-.4.85-.7 1.37-.9.53-.2 1.1-.2 1.66-.08.57.13 1.06.4 1.5.85a3.27 3.27 0 0 1 1.1 2.27 3.2 3.2 0 0 1-.93 2.35 3.29 3.29 0 0 1-2.31 1.1c-.9.04-1.66-.25-2.35-.9-.4-.4-.73-.85-.93-1.41a2.6 2.6 0 0 1-.09-1.66c.17-.57.49-1.1.98-1.62Zm1.17 1.21c-.4.45-.65.9-.65 1.34 0 .44.16.8.45 1.1.32.28.69.4 1.13.36.45-.04.9-.29 1.3-.77.4-.45.65-.9.65-1.34 0-.45-.16-.81-.45-1.1-.32-.28-.69-.4-1.13-.36-.4.08-.85.33-1.3.77Zm3.64 7.7 2.44-6.36 1.3 1.17-1.34 3.16-.49 1.02c.24-.13.4-.25.49-.29.16-.08.32-.2.48-.28l3.08-1.54 1.26 1.17-6.12 2.92-1.1-.97Zm7.62 1.05L729 37.8a2.57 2.57 0 0 1 1.58-.4c.49.07 1.05.36 1.66.92.53.49.9.94 1.05 1.34.17.37.2.73.13 1.01-.08.29-.37.73-.85 1.26l-1.34 1.42c-.37.4-.65.73-.77.97s-.24.49-.37.81L728.88 44c.04-.13.12-.29.2-.5a.67.67 0 0 0 .08-.2 2.57 2.57 0 0 1-1.99-.73 2.17 2.17 0 0 1-.76-1.41 1.88 1.88 0 0 1 1.34-1.9c.32-.09.64-.09.97 0 .32.08.73.32 1.25.6.7.4 1.18.7 1.46.81l.12-.12c.2-.24.33-.44.29-.65-.04-.2-.2-.44-.53-.77-.2-.2-.44-.32-.6-.32-.17 0-.53.08-.78.2Zm.7 2.51a7.1 7.1 0 0 1-.94-.48c-.4-.24-.69-.37-.85-.4a.71.71 0 0 0-.65.2.67.67 0 0 0-.2.6c0 .25.12.45.32.65s.49.33.85.37c.25.04.49 0 .65-.13.12-.08.33-.24.6-.56l.21-.25Zm1.45-4.17 1.82-.73 1.38 1.26-2.39.2-.81-.73Z" fill="#C2B8B8"/>
  <path d="M464.63 299.47c-8.33-11.49-16.4-22.76-21.73-35.66-3.65-8.93-1.96-16.99 4.3-23.96 6.65-7.35 15.14-9.53 24.5-6.59 9.1 2.84 14.65 9.26 16.01 18.68.5 3.27.17 6.97-.92 10.07-4.85 13.89-13.62 25.43-22.16 37.46Z" fill="#D47784"/>
  <path d="M471.97 244.28v20.69h-4.57l-8.66-13.12v13.12h-2.01v-20.7h3.81l9.42 14.16v-14.15h2.01Z" fill="#262521"/>
</svg>
