<svg xmlns="http://www.w3.org/2000/svg" fill="none" viewBox="0 0 162 209">
  <path fill="#fff" fill-opacity=".3" d="M15 81.76c.58.73 2.3 1.26 2.28 1.7-.14 2.52 1.18 3.7 3.25 4.5.25.1.27.67.45.98 1.42 2.24 2.37 5.16 4.38 6.57 5.93 4.17 12.24 7.81 18.49 11.53 4.64 2.76 9.85 3.04 15.07 2.75 2.95-.17 5.89-.67 9.3-1.08-.9 1.43-1.29 2.27-1.87 2.95-3.58 4.13-5.96 10.7-13.64 6.54-1.01-.55-2.59-.04-3.9-.09-13.97-.48-23.9 6.42-30.75 17.83-3.27 5.43-4.64 11.99-7.73 17.56-3.29 5.92-2.03 12.23-2.69 18.3-.7 6.5.36 13.17.53 19.78.06 2.39-.23 4.8-.38 7.2-.2 3.1-.43 6.22-.67 9.61 5.85-3.44 9.4-9.25 14.7-10.97l5.9-3.18c4.62-2.44 9.23-4.9 13.87-7.3 2.12-1.1 4.59-1.7 6.4-3.15 4.12-3.3 7.85-7.08 11.87-10.5 12.98-11.03 18.99-35.7 4.57-49.01-.57-.53-.87-2.23-.47-2.76 2.52-3.29 5.27-6.41 7.9-9.55.45.3.63.36.63.43 0 .53.03 1.05-.04 1.57-.99 8.5.31 16.53 5.58 23.45 5.02 6.61 10.52 12.8 18.53 16.02l14.76 5.96c3.72 1.5 7.41 3.07 11.14 4.54 3.6 1.43 7.24 2.79 11.87 4.57-1.42-3.63-2.88-6.13-3.34-8.8-.95-5.57-1.3-11.25-2.03-16.87-1.1-8.63-2.03-17.22-5.15-25.54-4.65-12.43-12.38-20.7-26.03-22.2-3.15-.35-6.37.04-10.86.12L116.39 67c.07 2.81-.08 4.37.16 5.88 1.92 11.9 7.46 21.48 17.67 28.33 5.77 3.87 11.11 8.35 16.7 12.5 2.27 1.69 4.66 3.23 7.34 5.08.22-5.62.27-10.38.65-15.12.36-4.56.49-9.25 1.75-13.59 2.02-6.9 1.3-13.72.42-20.51-1.61-12.46-12.54-23.22-25.67-22.05-1.05.1-2.14-.37-3.71-.67 10.04-13.47 17.6-27.75 24.32-42.48-1.63-1.21-3-2.7-4.07-4.37a437 437 0 0 1-10.11 23.14c-2.45 5.12-6.06 9.7-9.67 15.32-.31-1.56-.48-1.92-.44-2.25 1.67-13.74-6.69-22.43-15.24-26.37-8.78-4.06-18.35-4.25-27.93-3.04A494.7 494.7 0 0 1 67.29 9c-3.33.28-6.7.07-10.81.08l4.05 5.98c4.75 7 9.45 14.02 14.27 20.96 1.72 2.5 3.47 5.04 5.62 7.16 2 1.97 4.44 3.54 6.84 5.03 5.92 3.65 11.87 7.52 19.26 6.87 4.92-.43 9.79-1.37 14.46-2.05-1.34 5.09-32.52 36.56-37.28 37.04-.04-.65-.2-1.3-.09-1.92 1.89-10.81-6.49-24.73-17.46-28.48-9.08-3.1-18.22-5.14-27.88-3.5-4.45.75-8.9 1.62-13.37 2.06-5 .49-10.03.71-15.05.71-3.1 0-6.22-.6-9.85-.98 5.2 8.3 11.55 15.16 15 23.8z"/>
</svg>