<svg xmlns="http://www.w3.org/2000/svg" fill="none" viewBox="0 0 157 150">
  <path fill="#fff" fill-opacity=".3" d="M74.85 0a14.5 14.5 0 0 0-4.35.52c-.8.24-.35 4.43-.58 6.8-1.34 14.33 5.2 25.18 15.97 33.4 7.33 5.58 15.82 9.6 23.58 14.64 3.82 2.47 6.77 5.9 6.6 11.07.8-.73 1.62-1.36 2.32-2.11.82-.88 1.8-1.73 2.27-2.78 5.89-13.01 4.72-25.33-3.04-37.37-3.51-5.44-8.77-8.55-13.61-12.27C96.67 6.24 88.85 1.4 79.37.34A47.55 47.55 0 0 0 74.85 0zM57.84 42.83a42.8 42.8 0 0 0-13.62 2.09c-8.9 2.87-15.23 8.7-21.4 15.45-7.52 8.2-11.91 19.2-22.82 25 1.14.74 1.82 1.37 2.62 1.67 8.58 3.25 17.37 6 25.72 9.75a58.08 58.08 0 0 0 33.58 4.39c16.53-2.58 28.72-11.36 36.8-26.06.78-1.41 3.27-2.68 4.95-2.66 11.29.1 22.34-1.61 33.17-4.45 6.86-1.8 13.45-4.6 20.17-6.93-.17-.83-.32-1.66-.48-2.51-1.28.15-2.79-.1-3.79.5-15.51 9.28-32.8 10.74-50.23 11.54-.99.05-2.45-.55-2.98-1.35-2.11-3.14-3.71-6.63-5.91-9.7-2.3-3.21-4.48-7.28-7.75-8.88-9.02-4.44-18.28-7.77-28.03-7.85zm59.4 30.9c-7.66 5.6-17.06 7.22-23.16 14.45-1.29 1.53-3.1 2.63-4.7 3.93-5.5 4.5-9.7 9.97-11.4 16.9-1.42 5.74-2.29 11.62-3.22 17.46-1.4 8.9 2.15 16.15 7.61 22.77 6.1-6.6 12.02-12.48 17.29-18.88 4.76-5.8 9.34-11.86 13.04-18.36 3.25-5.72 5.3-12.14 7.64-18.34 2.66-7-.29-13.16-3.1-19.93zm-34.86 75.51-.01.01h.01z"/>
</svg>