<svg xmlns="http://www.w3.org/2000/svg" fill="none" viewBox="0 0 382 372">
  <path fill="#fff" fill-opacity=".3" d="M274.23 47.03c-.67-1.12-1.4-2.2-2.22-3.24-3.52-4.53-8.18-8.03-12.8-11.37-13.87-10-29.44-17.5-43.76-26.82-2.62-1.69-5.28-2.09-7.33.69-1.15 1.56-1.72 3.61-2.21 5.47-.18.64-1.03 3.53-1.5 5.54l-.58-.72c-1.08-1.67-2.06-3.45-3.07-5.17-1.95-3.35-3.88-7.01-6.7-9.7-.53-.52-1.34-.85-2.09-.63-14.05 4.37-29.52 9.47-40.88 19.28-4.13-3.69-9.73-5.26-15.22-5.55-6.93-.36-12.87 1.98-19.06 4.84-14.55 6.74-27.8 15.9-40.82 25.19-6.67 4.76-13.42 9.44-19.73 14.66-6.04 5.01-12.43 10.72-16.45 17.56-3.9 6.58-5.22 14.45-9.7 20.72-2.94 4.12-7.65 6.56-11.04 10.3-8.29 9.22-6.62 21.54-3.76 32.69-7.88 9.09-13.59 19-14.53 31.28-1.22 16.14 11.9 28.11 13.92 43.48.04.26.12.47.23.68-3.83 8.98-6.39 18.53-6.39 28.22a46.7 46.7 0 0 0 4.79 21.02 37.62 37.62 0 0 0 5.8 8.42c1.42 1.54 3.12 2.8 4.6 4.3 2 2.06 2.35 4.1 2.21 6.82-.4 8 .46 14.72 4.97 21.57 4.57 6.93 11.06 12.08 17.71 16.85 6.94 4.98 13.8 9.96 20.5 15.2 4.89 3.81 10.16 9.58 16.49 10.44a45.52 45.52 0 0 0 8.3.34c-.01.5.2 1.38.25 1.75.23 1.96.19 4.2.78 6.1.9 2.81 4.36 3.9 6.74 5.14 13.44 7.1 29.2 11.27 44.29 7.42 8.9-2.26 16.65-6.2 26.01-6.73 8.04-.46 15.57-.92 22.84-4.78.74-.39 1.44-.81 2.17-1.24 14.04 7.06 31.14 6.67 46.45 7.86 13.02 1 25.91-.22 31.83-13.64 3.57-8.13 4.82-16.85 9.01-24.77 4.19-7.9 9.62-15.02 14.62-22.42a63.3 63.3 0 0 0 5.59-10.28c5.61.87 11.3.57 15.99-3 4.36-3.29 6.92-8.35 9.56-12.99 2.97-5.22 6.26-10.48 11.63-13.54 4.42-2.5 9.68-3.78 14.47-5.46 4.72-1.66 9.98-3.1 14.32-5.62 5.91-3.47 9.47-10.29 10.91-16.77 3.86-17.37-5.58-33.02-9.02-49.55-1.79-8.68-2.03-17.57-4-26.22a109.8 109.8 0 0 0-7.58-22.22c-5.18-11.14-12.32-21.68-21.28-30.15a53.87 53.87 0 0 0-10.12-7.8c-1.23-.7-2.5-1.34-3.83-1.8-.5-.18-1-.35-1.52-.46a5.69 5.69 0 0 1-.68-.2c-.1-.28-.34-.72-.48-1.1-.4-1.23-.6-2.53-.82-3.82-.65-3.5-1.15-7-1.85-10.47-1.95-9.58-5.27-19.46-12.3-26.56-8.92-9.05-21.57-10.55-33.66-9.04zm-72.37-25.8c1.31 1.5 3.27 2.78 5.13 1.32 2.45-1.93 2.42-7.32 3.2-10.05.25-.92.8-3.77 1.82-3.95.73-.14 3.51 2.33 4.14 2.74 3.52 2.27 7.1 4.38 10.7 6.5 7.8 4.55 15.67 8.93 23.3 13.76 8.82 5.55 18.04 11.88 22.47 21.65 2.32 5.13 3.73 10.64 6.23 15.7a73.43 73.43 0 0 0 7.3 11.45c10.94 14.5 28.3 28.03 28.54 47.78.18 14.83-7.77 28.77-9.75 43.23a25.99 25.99 0 0 1-1.72-6.91c-1-10.7 1.83-22.15-4.78-31.56-2.2-3.16-5.11-5.7-7.68-8.54-2.79-3.07-4.77-6.64-7.08-10.06-3.49-5.16-8.09-9.87-14.35-10.67.28-1.75.53-3.49.6-5.17.7-13.55-11.29-23.38-21.25-30.54-12.83-9.27-26.69-17.97-43-18.55-7.93-.29-15.87.97-23.67 2.14-7.17 1.09-14.56 2.48-20.9 6.2-9.82 5.78-14.66 15.94-16.08 26.72-6-4.07-12.6-5.75-19.25-5.53.76-6.7 3.44-12.5 6.95-18.63 2.23-3.89 4.4-7.76 6.1-11.9 2.08-4.98 3.7-10.14 6.55-14.79 9.86-16.03 29.38-22.58 46.45-27.91 4.13 4.6 5.97 10.9 10.03 15.56zm99.22 238.2a100.3 100.3 0 0 0-18.4 16.15c-5.4 6.07-9.23 13.1-14.21 19.42-5.43 6.9-13.62 8.1-21.8 9.3a388.47 388.47 0 0 1-30.73 3.26c-3.24.23-8.12 1.31-10.88.25a15.84 15.84 0 0 1-3.05-1.75c1.84-3.31 2.78-7.36 6.08-9.48 3.35-2.12 7.18-3.44 10.57-5.57 7.4-4.69 14.32-10.2 21.37-15.38l22.2-16.28c6.58-4.85 13.98-9.77 17.55-17.43a19.52 19.52 0 0 0 1.9-8.15c6.8-4.12 13.83-7.89 20.44-12.32 5.35-3.6 11.15-7.71 14-13.68 2.22-4.72 2.12-9.85.33-14.68-1.89-5.06-4.96-9.46-7.67-14-.25-5.04.54-10.07 1.78-15.06 11.84 8.57 18.13 22.28 20.44 36.4 2.47 15.1 2.1 34.18-9.89 45.27-5.96 5.5-13.37 9.14-20.03 13.73zM55.66 165.85l.55-.57c.52-.53.68-1.11.62-1.69 3.71-6.96 8.07-13.63 11.77-20.57 5.72-10.7 10.47-21.93 16.98-32.22 6.48-10.24 15.03-19.88 26.4-24.73 10.61-4.53 23.38-3.94 32.6 3.28-.08 1.74-.05 3.47.04 5.22-6.69-4.33-15.38-3.97-22.74-.73-10.4 4.58-16.67 14.96-22.51 24.2-6.7 10.6-14.64 20.19-18.44 32.3-3.64 11.56-4.69 23.74-8.6 35.25-1.86 5.51-4.16 10.93-4.6 16.81-.38 5.48.84 10.97 2.66 16.1a142.45 142.45 0 0 0 16.4 31.88c3.29 4.86 7.1 9.37 12.05 12.6 5.45 3.58 11.75 5.55 17.72 8.12 9.44 4.07 17.17 10.79 25.59 16.5-4.57 1.41-9.1 2.31-14.15 1.85-10-.93-19.45-5.32-28.45-9.4-9.85-4.45-20.05-9.43-27.17-17.83-6.65-7.84-8.9-18.02-11.07-27.8-1.05-4.72-2.09-9.47-3.6-14.1-1.53-4.64-3.71-9-5.7-13.45-4.7-10.55-4.3-21.24-.36-32.01a78.78 78.78 0 0 1 4.01-9zM91.1 96.3c-8.47 9.41-14.26 20.68-19.84 31.94-4.95 10-10.69 19.5-16 29.28-1.7-3.22-3.16-6.54-3.66-10.15-.81-5.8 1.24-11.63.97-17.47-.26-5.52-1.17-10.97-.27-16.46.92-5.52 3.12-10.77 5.91-15.59 10.82-18.72 28.91-31.97 48.33-40.78a154.94 154.94 0 0 1 27.83-9.4 144.5 144.5 0 0 1-6.15 11.75c-3.63 6.44-6.25 12.75-6.84 19.85C109.94 81 98.82 87.76 91.1 96.3Zm190.86 23.33c3.42 5.38 7.92 9.43 11.87 14.36 7.07 8.77 4.16 20.07 5.05 30.4.84 9.62 6.14 16.58 10.8 24.68 2.34 4.04 4.44 8.6 3.62 13.4-1.16 6.91-7.84 11.54-13.27 15.2-6.08 4.07-12.53 7.58-18.82 11.33-1.77-8.26-8.21-15.72-14.5-21.55.18-.67.35-1.34.56-2.03 1.75-5.49 4.82-10.27 7.44-15.37 3.57-6.94 6.45-15.15 3.68-22.87-2.92-8.15-11.48-12.5-16.92-18.77-.3-.35-.6-.74-.9-1.08-2.7-5.8-3.35-12.23-3.39-18.66 0 0 .02-.03.04-.01 5.35-5.16 9.17-13 11.14-20.82 6.53.59 10.35 6.68 13.6 11.8zM96.41 255.47c-7.72-7.68-13.1-18.44-17.66-28.23-4.74-10.1-8.62-20.38-5.3-31.53 1.51-5.05 3.58-9.9 4.93-15.03 1.37-5.14 2.35-10.39 3.41-15.58 2.28-11.04 5.4-21.1 11.73-30.52 3.44-5.1 7-10.13 10.28-15.33 3.29-5.2 6.58-10.45 10.88-14.87 6.6-6.76 18.23-11.75 26.88-6.67a107.5 107.5 0 0 0-10.3 9.7c-5.84 6.12-11.4 12.63-18.23 17.7-6.9 5.14-15.12 8.96-19.73 16.56-4.19 6.91-4 15.02 1.51 21.1a34.5 34.5 0 0 0 6.4 5.3c-1.58 8.9-4.22 17.65-4.44 26.74-.1 4.52.46 9.15 2.36 13.3 2.37 5.22 6.74 9.36 10.74 13.34a77.84 77.84 0 0 1 12.21 15.4c3.18 5.27 6.13 10.7 9.77 15.65a46.95 46.95 0 0 0 25.5 17.56 48.11 48.11 0 0 0 33.79-2.93c.63-.32.98-.79 1.09-1.3a29.1 29.1 0 0 0 8.88 2.83c-4.93 7.5-10.28 15.4-17.88 20.4-8.77 5.79-18.88 5.32-28.22 1.08-10.17-4.65-18.31-12.53-27.78-18.34-9.83-6.1-22.41-7.99-30.82-16.33zm48.62-160.59c.4-.22.85-.4 1.27-.58-.39.24-.75.46-1.11.71a.43.43 0 0 0-.16-.13zm108.62 43.44c-9.02-12.11-18.91-24.9-35.5-22.3-.55.07-.9.32-1.16.64a72.48 72.48 0 0 0-2.79-5.37c-8.29-14.04-25.63-21.72-41.43-23.2a46.6 46.6 0 0 0-7.38-.06c1.85-10.18 13.86-14.4 22.8-17.06 11.18-3.3 23.3-4.15 34.56-.7 11.3 3.45 21.62 11.1 26.87 21.84 4.28 8.74 3.67 18.93 3.47 28.39-.16 5.88-.27 11.96.56 17.82zm-85.4-46.1c15.46-.03 34.05 7.43 42.16 21.16 6.76 11.49 9.06 25.1 15.03 36.96a35.7 35.7 0 0 0-7.2-2.1c-2.4-12-13.4-19.3-23.5-24.79-6.13-3.35-12.5-6.8-19.53-7.73-7.48-.96-14.92 1.24-22.04 3.3a259.2 259.2 0 0 0-21.78 7.15c-6.34 2.43-13.27 5.85-16.79 11.98-3.47 6.07-1.57 12.11-.3 18.46 1.12 5.56 1.07 11.2.97 16.88-3.44-3.57-7.69-6.18-11.8-9.04-6.42-4.47-11.3-10.57-7.51-18.64 3.65-7.8 11.88-11.69 18.55-16.45 6.04-4.3 11.16-9.67 16.2-15.05 10.4-11.11 21.27-22.03 37.53-22.09zm61.24 64.96c.41.6.96.86 1.55.94 4.3 2.81 8.2 6.23 11.7 9.97 2.13 2.27 4.3 4.66 5.66 7.48 1.61 3.34 1.44 7.08 1.01 10.67-1.83 14.76-6.28 30.45-13.46 43.5a45.75 45.75 0 0 1-14.55 15.82c-5.1 3.45-10.92 5.93-16.38 8.8-2.67 1.41-4.85 2.32-7.79 1.28-2.93-1-5.6-2.83-8.2-4.5-2.95-1.93-5.95-4.05-9.2-5.54 3.34-1.39 6.61-3.05 10.16-3.77 8.75-1.81 18.25.1 26.45-4.07a25.9 25.9 0 0 0 14-21.85c.17-4.62-1.12-9.28-2.33-13.8a12 12 0 0 0 .57-1.71c.72-.14 1.47-.26 1.96-.4 1.9-.57 3.85-1.34 5.53-2.38 2.96-1.82 5.04-4.74 4.9-8.3-.16-3.47-2.34-6.32-4.23-9.05-2.83-4.08-5.66-8.26-7.88-12.7a39.1 39.1 0 0 1-2.85-7.54c-.48-1.78-.66-3.7-1.44-5.37a43.4 43.4 0 0 1 4.82 2.52c-.01-.04-.03-.01 0 0zm-41.12 106.45c-18.08 8.34-40.56 2.73-52.6-13.14-6.84-9.01-11.1-19.73-18.89-28.1-7.16-7.71-15.4-13.86-15.78-25.2-.3-8.98 2.31-17.73 4.03-26.5 3.46 2.3 6.78 4.72 9.13 8.2.26.4.62.64 1 .8.1 13.84 3.54 30.64 18.57 35.23.11.04.2.02.28.04 4.19 16.24 12.25 34.66 31.73 33.96 2.21-.08 4.41-.43 6.58-.94 4.52 5.85 9.8 11.65 15.95 15.65zm25.3-115.91c-3.17-.13-6.34.2-9.46 1.18-.16.04-.29.03-.45.07-.72.24-1.44.54-2.13.9-.32.14-.67.27-1 .44l-.06-.03c-8.11-4.42-17.19-4.26-26.07-2.8-8.75 1.42-18.97 2.91-25.9 8.94-3.41 2.95-5.89 6.82-8.2 10.64-2.75 4.52-5.5 9.12-7.38 14.1-3.52 9.3-2.3 19.05-.24 28.54l.08.31c-10.9-4.82-13.31-18.87-13.34-29.69 0-6.1.4-12.21-.11-18.32-.47-5.52-2.93-11.2-2.56-16.7.47-7.35 7.73-11.52 13.77-14.14 6.36-2.75 13.15-4.77 19.79-6.76 6.22-1.86 12.7-4.07 19.21-4.47 6.83-.42 12.95 2.08 18.9 5.18 9.81 5 21.92 11.24 25.14 22.61zm-9.13 10.36c6.28 1.51 12.35 5.23 15.62 10.92a11.57 11.57 0 0 1 1.32 9.11 15.3 15.3 0 0 0-.46 3.54 25.22 25.22 0 0 0-5.75-1.87 33.7 33.7 0 0 0-3.12-8.98c-1.16-2.26-2.67-4.5-4.75-5.96-2.32-1.64-5.49-1.97-8.27-1.84-3.42.19-6.73 1.08-10 2.07a48.6 48.6 0 0 0-9.52 3.74c-5.45 3.04-8.33 7.9-10.05 13.75a23.7 23.7 0 0 0-1.03 6.2c-2.88 2.4-6.36 4.98-6.44 9.05-.07 4.24 1.7 8.93 3.24 12.86 3.3 8.41 9.55 20.07 20.4 17.27 3.16-.82 6.09-2.65 9.18-3.85-.41.9-.8 1.77-1.27 2.64-1.75 3.33-4.17 5-7.78 5.94-5.7 1.5-11.9 1.03-16.77-2.5-9.97-7.27-12.5-22.78-13.54-34.2-.54-6.17-.82-12.72.92-18.75 1.85-6.34 6.38-10.75 12.18-13.64 10.31-5.15 24.55-8.26 35.9-5.5zm-20.88 45.45c.32.64.76.97 1.26 1.2-.6.22-1.18.44-1.65.66-1.18.5-2.87 1.06-4.16.85-1.7-.25-1.79-2.77-1.88-4.18-.24-3.72.6-7.46 1.17-11.1.63-4.1 1.61-7.9 4.5-11 1.95-2.1 4.31-4.2 7.15-4.88 4-.98 6.95 2.05 9.56 4.65.59.6 1.2 1.2 1.8 1.77-6.4 3.98-12.38 9.23-16.23 15.63-1.06 1.69-2.56 4.32-1.52 6.4zm4.02-1.68c-.08.2.01.15 0 0zm1.3-2.69c3.84-6.23 9.85-11.23 16.2-14.91 1.44.68 3.39 1.35 3.93 2.52.44.94-.26 2.04-.74 2.83-.87 1.5-1.79 2.9-2.43 4.5-1.28 3.17-2.12 7.96-5.4 9.75-4.5 2.47-8.38-1.37-12.42-2.67-.05-.03-.09-.02-.14-.05.33-.65.6-1.33 1-1.97zm17.1-20.07c-.03-.01-.05.01-.05.01-.2.01-.4.06-.62.13-1.85-1.5-3.4-3.38-5.18-4.97-3.29-2.86-7.33-4.6-11.7-3.3-3.53 1.05-6.5 3.5-8.91 6.2-3.44 3.82-4.69 8.22-5.45 13.2-.1.74-.24 1.5-.35 2.24-2.42-2.95-.14-9.06 1.03-12 1.2-2.95 2.8-5.38 5.49-7.2 3-1.99 6.48-3.12 9.88-4.16 5.38-1.63 13.04-4.14 16.9 1.4a25 25 0 0 1 3.7 8.53 49.8 49.8 0 0 0-4.75-.08zm-33.02 18.32a24.8 24.8 0 0 0 0 6.4c.67 4.63 3.42 7.38 8.24 6.56 2.56-.44 4.6-1.57 6.79-2.74-.33.48-.61.95-.94 1.43-2.12 3.34-3.28 7.53 0 10.6a8.33 8.33 0 0 0 3.08 1.8l-.6.25c-3.4 1.54-7.37 3.48-10.94 1.35-3.59-2.14-5.9-6.45-7.68-10.09a53.4 53.4 0 0 1-4.39-13.06c-.28-1.42-.47-2.61.34-3.84a12 12 0 0 1 2.37-2.51 7.38 7.38 0 0 0 3.3 3.72c.18.11.3.12.44.13zm19.2 20.08c-6.9-1.65-.02-5.58.39-9.42.16.07.3.16.5.21 3.97 1.26 8.71.73 11.72-2.34 2.26-2.34 3.26-5.38 4.36-8.36-.33 3.17-.36 6.33-.7 9.5-.44 4.01-2.44 7.09-6.05 8.92-2.98 1.53-6.96 2.29-10.22 1.5zm19.32-4.98c2.25-5.26 1.2-11.39 2.28-16.95.65-3.35 3.05-7.47 2.92-11.09 3.88 1.17 7.12 3.44 8.15 7.81.58 2.55.38 5.5-.6 7.94-1.1 2.75-3.07 5.23-4.8 7.59a76.5 76.5 0 0 1-5.88 7.23c-1.77 1.87-3.83 3.99-6.52 4.08-.45.03-.92.02-1.4-.03a14.4 14.4 0 0 0 5.85-6.58zm17.84-19.56a13.48 13.48 0 0 0-3.41-7.67c-.03-.19-.02-.31-.08-.49-1.19-3.22.03-5.45.38-8.64.35-3.24-.75-6.43-2.33-9.22-3.18-5.6-8.62-9.6-14.57-11.87a32.65 32.65 0 0 0-5.22-1.51c.06-.04.13-.05.19-.09.44-.17.92-.29 1.37-.42.06.07.18.15.62.25 2.5.6 5.17 1.1 7.71 1.37 1.25.11 2.52 0 3.77.23 2.28.36 2.79 1.58 3.45 3.6 1.82 5.56 3.3 10.54 6.37 15.65 2.55 4.25 6.08 8.17 8.26 12.63 2.56 5.24-2.06 7.63-6.4 9.01.02-.93 0-1.89-.11-2.83zm-62.45 51.56c-13.63 1.05-22.34-10.01-26.28-21.82a136.6 136.6 0 0 1-4.28-17.03c-1.18-6.06-1.97-12.38-.66-18.5 1.46-6.67 5.18-12.65 8.71-18.4 3.9-6.38 8.23-11.35 15.56-13.65 6.01-1.9 12.48-3.16 18.73-3.9 5.67-.67 11.46-.54 16.76 1.53-9.26.02-18.87 2.63-26.78 6.03-6.5 2.81-12.21 7.24-15.16 13.82-3.06 6.82-3 14.72-2.44 22.05.98 13.11 3.82 29.85 14.83 38.52 5.8 4.56 13.32 5.52 20.38 3.83 3.45-.85 6.69-2.13 8.99-4.92 2.22-2.66 3.34-6.07 4.93-9.12 2.04.02 4.06.47 6.09.52 3 .07 5.17-.84 7.5-2.7 2.54-2 4.58-4.59 6.6-7.07 1.5-1.89 3.03-3.83 4.42-5.86 1.12 4.83 1.84 9.55-.15 14.76a21.68 21.68 0 0 1-11.35 11.88c-5.25 2.32-11.4 1.93-16.98 2.3-4.5.3-8.86.86-13 2.74-5.23 2.29-10.65 4.54-16.42 4.99zm13.07 5.87c7.98 4.37 15.1 13.04 24.49 9.08 2.99-1.26 5.64-3.13 8.58-4.52 3.57-1.71 7.08-3.33 10.38-5.55a51.08 51.08 0 0 0 15.29-15.8c4.2-7 7.11-15.12 9.56-22.89a136.2 136.2 0 0 0 5.42-24.35c.93-7.37-.87-13.08-5.63-18.74a70.27 70.27 0 0 0-13.88-12.6c-.56-.37-1.1-.7-1.66-1.04-6.8-10.23-9.38-22.5-14.03-33.79.22.03.44.06.66.03 17.14-2.67 27.3 15.91 35.98 27.23a62.23 62.23 0 0 0 8 8.8c2.93 2.61 6.2 4.94 8.7 8 5.75 7.1 2.96 16.21-.81 23.54-4 7.77-7.91 14.81-9.65 23.47-1.68 8.34-2.43 17.3-7.1 24.66-4.74 7.49-12.57 8.98-20.2 12.11a31.22 31.22 0 0 0-8.3 5c-3.37 2.84-6.22 6.38-10.05 8.68-13.64 8.13-26.52-1.07-35.75-11.32zm82.49-138.94a45.52 45.52 0 0 1-5.2 10.4l.16-5.15c.2-10.68-.32-21.28-6.26-30.56-14.03-21.87-42.44-26.28-65.7-18.86-10.67 3.42-23.27 8.94-24.59 21.3a39.8 39.8 0 0 0-10.87 3.57c-.43.2-.81.45-1.24.66-.3-11.46 3.06-23.8 12.87-30.46 5.62-3.82 12.4-5.27 19.01-6.36 6.59-1.07 13.28-2.1 19.99-2.36 15.12-.57 27.9 5.62 40.1 13.97 9.31 6.36 23.46 15.14 24.74 27.6.56 5.46-1.14 11.22-3.01 16.25zM142.43 292.2c1.48-.48 2.96-1.04 4.43-1.56.9.55 1.85 1.12 2.81 1.64 10.14 5.43 21.84 7.78 32.52 2.4 10.11-5.1 16.9-15.02 22.94-24.25.37-.55.41-1.06.3-1.54 1.44-.04 2.92-.15 4.43-.42a24.13 24.13 0 0 0 9.88-4.2c4.12-2.96 7.23-7.15 11.5-9.9 6.94-4.5 15.7-4.96 22.05-10.55 6.94-6.09 9.32-15.47 10.93-24.18.43-2.44.88-4.9 1.35-7.35 7.55 7.3 15.1 17.16 10.36 27.65-3.32 7.36-10.95 12.09-17.25 16.7-6.64 4.88-13.27 9.74-19.93 14.6-6.64 4.9-13.2 9.96-20.04 14.58a69.75 69.75 0 0 1-9.82 5.56c-2.77 1.29-5.2 2.68-6.94 5.27-1.78 2.6-2.55 5.7-4.33 8.3a19.3 19.3 0 0 1-8.86 6.99c-6.85 2.73-13.81.8-19.9-2.86-6.57-3.95-12.19-9.32-18.83-13.21-2.42-1.47-5-2.56-7.6-3.67zM9.93 191.34c-1.9-3.99-3.77-8.13-4.53-12.54-.96-5.44.11-11.1 1.56-16.37 1.86-6.86 6.63-12.99 11.15-18.34 2.02-2.38 1.64-3.43.87-6.66-1.08-4.44-1.91-9.03-1.74-13.65.2-6.18 2.83-11 7.37-15.1 2.72-2.47 5.83-4.43 8.17-7.3 2.9-3.54 4.63-7.85 6.29-12.08 2.06-5.23 4.1-10.23 7.77-14.6a97.3 97.3 0 0 1 11.89-11.64c8.82-7.37 18.38-13.9 27.85-20.44 9.95-6.89 20.2-13.43 31.14-18.64 5.31-2.52 10.5-4.9 16.5-4.9 4.8 0 10.02 1.07 13.73 4.24a45.1 45.1 0 0 0-5.66 7c-2.5 3.84-4.2 8.08-5.84 12.35C115.5 47.34 95.08 55.8 78.1 69.03a94 94 0 0 0-22.63 24.95 55.34 55.34 0 0 0-6.78 15.57c-1.38 5.73-1.12 11.3-.66 17.1.28 3.38.36 6.7-.06 10.06-.4 3.34-1.07 6.61-.79 9.99.45 5.54 2.98 10.55 5.6 15.34-.2.39-.42.76-.62 1.14a209.54 209.54 0 0 0-27.95 35.46 145.92 145.92 0 0 0-6.3 11.1c-1.74-6.42-5.09-12.4-7.97-18.4zM177.75 358.4c-8.04.52-15.33 1.13-22.97 3.89-7.4 2.67-14.46 4.86-22.43 4.59-7.66-.26-15.22-2.32-22.24-5.33-3.33-1.4-6.33-3.3-9.57-4.86-1.4-.68-1.35-.55-1.6-2.04-.2-1.27-.26-2.56-.4-3.83-.37-3.46-.62-6.1-4.58-5.81a39.5 39.5 0 0 1-7.45-.23c-3.3-.41-5.42-2.52-8-4.49-5.5-4.14-10.82-8.42-16.33-12.53-12.3-9.19-31.19-18.89-32.15-36.38-.18-3.15.6-6.28.27-9.46-.41-4-2.8-6.22-5.62-8.8a35.75 35.75 0 0 1-10.56-18.42c-4.09-17.4 3.09-35.8 11.9-50.6a203.45 203.45 0 0 1 21.02-29c-2.31 6.83-3.53 13.96-2.64 21.22.67 5.46 2.78 10.39 5.08 15.33a90.76 90.76 0 0 1 5.9 16.13c2.53 10.18 3.95 20.86 8.97 30.22 5.45 10.15 15 16.86 25.06 21.98 10.55 5.35 22.08 10.93 33.79 13.1 4.04.74 8.17 1.05 12.26.59 4.08 2.07 8.42 3.52 12.37 5.81 6.66 3.88 12.26 9.26 18.84 13.22 5.69 3.42 12.12 5.6 18.8 4.55a23.96 23.96 0 0 0 14.06-7.77c1.1.67 2.2 1.37 3.3 2 2.7 1.57 5.93.8 8.97.62 9.51-.54 19.02-1.43 28.45-2.62 6.4-.81 13.61-1.3 19.93-3.54-.94 4.9-4.08 9.5-7.42 13.01-5.12 5.33-12.45 11.29-19.8 12.94-5.9 1.34-11.71 1.63-16.81 5.15-5.9 4.05-11.1 8.94-16.83 13.22-6.53 4.88-13.45 7.6-21.57 8.14zm105.93-39.52a83.22 83.22 0 0 0-9.24 21.4c-2.12 7.45-4.55 15.73-12.4 18.93-5.74 2.36-12.35 1.8-18.37 1.31-6.25-.48-12.51-1-18.76-1.5-7.7-.6-15.42-1.55-22.57-4.4a1.86 1.86 0 0 0-.33-.94c4.44-3.32 8.58-7.08 13-10.44 3.6-2.75 6.75-4.72 11.19-5.64 3.78-.78 7.7-1.13 11.34-2.46 3.82-1.4 7.4-4.23 10.68-6.59a49.62 49.62 0 0 0 9.94-9.16c3.59-4.47 6.36-9.8 6.67-15.5.16-.1.33-.16.5-.26 7.49-4.5 11.06-13.24 16.23-19.92a97.37 97.37 0 0 1 20.6-19.77c1.02-.74 2.07-1.42 3.1-2.1 1.45 12.62-1.41 26.5-8.16 37.2-4.33 6.79-9.24 13.06-13.42 19.84zM304.8 59.03c5.91 5.95 8.87 14.09 10.7 22.08 1.33 5.77 1.44 12.25 3.56 17.82.73 1.93 1.71 2.86 3.56 3.38 2.7.72 5 1.98 7.33 3.6 20.15 13.94 32.1 39.79 35.7 63.3 1.28 8.44 1.8 16.88 4.2 25.16 2.27 7.82 5.37 15.4 7.1 23.4 1.71 7.97 1.77 16.94-2.12 24.3-3.06 5.81-7.48 8.05-13.28 10.2-10.47 3.92-22.45 5.93-29.8 15.04-3.85 4.79-6.23 10.5-9.71 15.5-3.94 5.72-9.3 7.66-15.92 6.79a63.83 63.83 0 0 0 3.13-30.3c5.18-3.2 10.4-6.35 14.89-10.48 12.26-11.32 13.47-29.5 11.72-45.13-1.9-16.89-8.97-33.28-23.02-43.43a1.82 1.82 0 0 0-1.08-.35c2.73-9.28 6.46-18.53 7.18-27.84 1.53-19.6-12.08-33.72-23.83-47.6-6.93-8.15-12.27-16.38-15.92-26.5a96.22 96.22 0 0 0-2.75-6.86c10.1-1.07 20.81.34 28.36 7.92z"/>
</svg>