<svg xmlns="http://www.w3.org/2000/svg" fill="none" viewBox="0 0 282 286">
  <path fill="#fff" fill-opacity=".3" d="M43.18 66.22c-.9.4-1.78.85-2.64 1.37-3.75 2.24-6.81 5.42-9.76 8.6-8.82 9.53-15.9 20.57-24.26 30.5-1.51 1.81-2.06 3.78-.16 5.58 1.07 1.01 2.56 1.63 3.92 2.17.46.2 2.57 1.1 4.04 1.65l-.6.36c-1.36.66-2.79 1.24-4.18 1.84-2.7 1.16-5.64 2.27-7.93 4.15-.44.35-.76.93-.66 1.52 1.99 10.99 4.4 23.12 10.74 32.59-3.16 2.77-4.86 6.84-5.6 10.95-.9 5.2.3 9.89 1.9 14.82 3.72 11.58 9.4 22.42 15.2 33.1 2.97 5.46 5.87 10.98 9.22 16.21 3.22 5.02 6.93 10.37 11.71 14.03 4.6 3.54 10.4 5.27 14.72 9.22 2.83 2.6 4.23 6.38 6.74 9.28 6.18 7.1 15.62 6.98 24.28 5.86 6.13 6.78 13.06 12 22.24 13.84 12.05 2.41 22.28-6.37 34.05-6.47.2 0 .37-.04.53-.1 6.42 3.71 13.38 6.52 20.68 7.42 5.46.68 11.11.2 16.29-1.66a28.55 28.55 0 0 0 6.87-3.6c1.3-.93 2.4-2.09 3.68-3.06 1.73-1.32 3.3-1.4 5.33-1.04 6 1.03 11.14 1.02 16.72-1.75 5.64-2.8 10.13-7.22 14.34-11.79a471.7 471.7 0 0 1 13.36-14.04c3.31-3.33 8.15-6.77 9.39-11.46a34.59 34.59 0 0 0 1.02-6.22c.38.05 1.06-.03 1.34-.03 1.5.01 3.18.25 4.67-.02 2.2-.42 3.34-2.92 4.5-4.6 6.6-9.48 11.19-20.97 9.69-32.7-.89-6.9-3.13-13.12-2.67-20.22.4-6.1.75-11.82-1.49-17.66-.22-.6-.48-1.15-.73-1.75 6.62-9.92 7.9-22.85 10.22-34.28 1.96-9.71 2.23-19.54-7.34-25.24-5.79-3.45-12.25-5.2-17.83-9.09-5.56-3.88-10.43-8.64-15.54-13.09a48.14 48.14 0 0 0-7.23-5.16c1.18-4.15 1.48-8.46-.78-12.33-2.08-3.59-5.65-5.99-8.9-8.4-3.67-2.73-7.32-5.7-9.13-10.02-1.49-3.57-1.95-7.64-2.78-11.42-.81-3.7-1.4-7.8-2.91-11.3-2.07-4.78-6.88-8.1-11.63-9.78-12.73-4.51-25.4 1.15-38.17 2.21-6.71.55-13.43-.1-20.14.6a83.37 83.37 0 0 0-17.44 3.65c-8.88 2.87-17.48 7.28-24.7 13.25a40.89 40.89 0 0 0-6.8 6.9 17.4 17.4 0 0 0-1.72 2.72c-.18.36-.35.73-.48 1.1-.07.2-.15.36-.22.5-.21.05-.57.19-.88.25-.96.2-1.95.22-2.94.28-2.7.16-5.4.21-8.07.42-7.4.58-15.15 2.17-21.15 6.81-7.65 5.88-9.95 15.28-9.93 24.53Zm-26.14 52.15c1.25-.85 2.4-2.2 1.47-3.75-1.22-2.02-5.29-2.5-7.28-3.33-.67-.28-2.76-.95-2.8-1.74-.04-.56 2.08-2.43 2.45-2.87 2.03-2.44 3.95-4.94 5.88-7.46 4.16-5.46 8.18-10.99 12.53-16.3 5-6.12 10.62-12.48 18.4-14.91 4.07-1.28 8.36-1.84 12.4-3.25a55.7 55.7 0 0 0 9.3-4.44c11.94-6.9 23.75-18.74 38.66-17.09 11.19 1.24 20.96 8.52 31.67 11.35-1.73.43-3.5.71-5.37.65-8.16-.23-16.52-3.42-24.22.69-2.58 1.36-4.77 3.32-7.15 5-2.57 1.81-5.44 2.98-8.24 4.4-4.2 2.15-8.18 5.18-9.36 9.83-1.3-.38-2.58-.72-3.84-.93-10.15-1.78-18.67 6.34-24.99 13.19-8.17 8.81-16.01 18.44-17.96 30.68-.95 5.95-.74 12.06-.57 18.04.15 5.5.52 11.2 2.73 16.32 3.45 7.94 10.66 12.53 18.66 14.6a24.16 24.16 0 0 0-5.95 13.99c-4.98-1.2-9.1-3.75-13.4-6.97a78.11 78.11 0 0 0-8.4-5.7c-3.56-2.02-7.3-3.71-10.54-6.3-11.17-8.9-14.3-24.23-16.74-37.58 3.84-2.7 8.77-3.5 12.66-6.12Zm188.7-52.73A76.13 76.13 0 0 0 216.2 81c4.07 4.63 9.02 8.16 13.32 12.5 4.7 4.74 4.85 11.02 4.99 17.3.17 7.8.06 15.63-.39 23.45-.13 2.47.25 6.24-.81 8.22-.4.75-1.02 1.47-1.6 2.14-2.33-1.69-5.3-2.77-6.58-5.46-1.3-2.72-1.93-5.73-3.22-8.48-2.85-6-6.37-11.74-9.62-17.53l-10.21-18.23c-3.05-5.4-6.07-11.44-11.51-14.84a14.82 14.82 0 0 0-5.97-2.2c-2.48-5.49-4.66-11.14-7.4-16.53-2.21-4.37-4.77-9.12-9-11.81-3.36-2.12-7.23-2.52-11.04-1.61-3.99.95-7.58 2.86-11.26 4.48a39.49 39.49 0 0 1-11.18-2.73c7.55-8.13 18.46-11.6 29.32-12.04 11.6-.47 25.95 1.58 33.2 11.64 3.59 5 5.65 10.92 8.5 16.37ZM112.5 241.93l-.38-.47a1.53 1.53 0 0 0-1.21-.62c-4.9-3.44-9.53-7.34-14.42-10.77-7.53-5.3-15.56-9.92-22.7-15.78-7.13-5.83-13.6-13.16-16.2-22.19-2.43-8.41-.8-17.98 5.48-24.26 1.31.22 2.62.36 3.94.45-3.88 4.64-4.4 11.23-2.65 17.07 2.5 8.27 9.73 13.95 16.16 19.2 7.36 6.03 13.85 12.9 22.63 16.89 8.37 3.81 17.46 5.73 25.77 9.74 3.98 1.91 7.85 4.15 12.25 5.02 4.08.8 8.34.39 12.37-.51 8.8-1.96 17.53-5.3 25.54-9.4 3.97-2.04 7.72-4.5 10.62-7.92 3.2-3.78 5.26-8.35 7.75-12.6 3.95-6.74 9.72-11.95 14.8-17.76.65 3.57.9 7.07.09 10.83-1.63 7.44-5.8 14.16-9.71 20.57-4.27 7-8.96 14.24-15.95 18.83-6.53 4.28-14.41 5.04-21.99 5.77-3.65.35-7.32.7-10.95 1.4-3.64.73-7.13 1.97-10.67 3.06-8.38 2.57-16.4 1.27-24.15-2.7a59.94 59.94 0 0 1-6.42-3.85Zm-49.14-33.15c6.3 7.26 14.27 12.66 22.24 17.91 7.07 4.66 13.7 9.86 20.58 14.77-2.59.98-5.22 1.77-8 1.82-4.43.07-8.64-2.02-13.06-2.35-4.19-.32-8.38-.13-12.44-1.32a35.5 35.5 0 0 1-11.2-5.9c-13.1-9.88-21.42-24.74-26.26-40.19a117.65 117.65 0 0 1-4.51-21.85c2.87 1.74 5.57 3.73 8.3 5.73 4.5 3.33 9.02 5.88 14.31 6.99.25 8.78 4.31 17.79 10.04 24.4ZM98.6 67.11c4.37-2.08 7.84-5.1 11.92-7.62 7.27-4.51 15.51-1.27 23.38-.99 7.33.26 13.06-3.09 19.6-5.86 3.26-1.39 6.88-2.55 10.43-1.48 5.1 1.51 7.97 6.98 10.22 11.4 2.51 4.96 4.56 10.15 6.8 15.23-6.39.57-12.6 4.74-17.58 8.93-.49-.19-.98-.38-1.47-.6-3.98-1.82-7.3-4.58-10.9-7.03-4.9-3.33-10.82-6.27-16.9-4.89-6.4 1.45-10.48 7.5-15.7 11.02-.3.19-.62.38-.9.57-4.62 1.5-9.53 1.4-14.38.83 0 0-.02-.01 0-.03-3.4-4.51-8.96-8.11-14.66-10.32 1.04-4.87 6-7.19 10.14-9.16Zm85.21 152.4c-6.5 5.1-15.11 8.17-22.9 10.7-8.05 2.64-16.16 4.61-24.26 1.08-3.67-1.61-7.14-3.62-10.87-5.11-3.75-1.5-7.6-2.74-11.43-4.01-8.1-2.74-15.39-6.03-21.9-11.67-3.54-3.06-7-6.2-10.61-9.16-3.61-2.96-7.27-5.93-10.2-9.57-4.49-5.6-7.17-14.83-2.54-20.88a81.6 81.6 0 0 0 6.36 8.66c4.07 4.97 8.46 9.76 11.65 15.38 3.23 5.67 5.35 12.22 10.65 16.4 4.82 3.79 10.95 4.4 16.04.8a26.2 26.2 0 0 0 4.59-4.32c6.56 2.01 12.91 4.81 19.74 5.82 3.4.5 6.94.5 10.24-.55 4.15-1.3 7.68-4.21 11.04-6.86 4-3.15 8.1-5.7 12.75-7.78 4.26-1.9 8.63-3.62 12.7-5.91a35.65 35.65 0 0 0 15.58-17.59 36.53 36.53 0 0 0 .92-25.74c-.18-.5-.5-.81-.87-.94a22.13 22.13 0 0 0 2.95-6.43c5.2 4.4 10.65 9.17 13.72 15.36 3.55 7.15 2.26 14.72-1.8 21.37-4.45 7.23-11.14 12.64-16.39 19.24-5.5 6.84-8.1 16.15-15.16 21.71ZM67.3 168.01c-.13-.33-.22-.67-.32-1 .14.3.27.6.43.9a.24.24 0 0 0-.1.1Zm42.79-77.83c-9.97 5.67-20.52 11.94-20.1 24.68 0 .42.16.72.38.94a55.18 55.18 0 0 0-4.3 1.6c-11.35 4.95-18.74 17.3-21.33 29.08a35.4 35.4 0 0 0-.72 5.56c-7.5-2.34-9.58-11.78-10.75-18.76-1.45-8.73-.97-17.95 2.68-26.11 3.64-8.2 10.35-15.27 18.94-18.24 6.98-2.41 14.6-1 21.71.02 4.42.66 8.99 1.3 13.49 1.23Zm-42.65 60.1c1.41-11.67 8.75-24.98 19.85-29.82 9.28-4.04 19.75-4.51 29.24-7.91a27.13 27.13 0 0 0-2.25 5.23c-9.26.7-15.78 8.3-20.85 15.41-3.1 4.31-6.29 8.8-7.63 14-1.42 5.56-.45 11.37.44 16.93.9 5.72 1.97 11.44 3.37 17.07 1.25 5 3.19 10.54 7.48 13.76 4.25 3.18 8.98 2.3 13.88 1.93 4.3-.32 8.55.23 12.82.84-3.01 2.25-5.38 5.22-7.91 8.04-3.97 4.44-9.01 7.54-14.74 3.95-5.55-3.48-7.71-10.04-10.69-15.5-2.67-4.96-6.25-9.31-9.83-13.61-7.42-8.86-14.64-18.06-13.18-30.32Zm54.62-40.15c.49-.26.74-.65.86-1.08a48.84 48.84 0 0 1 8.6-7.9c1.9-1.4 3.9-2.8 6.15-3.57 2.67-.9 5.47-.43 8.14.22 10.95 2.75 22.36 7.56 31.54 14.18a34.73 34.73 0 0 1 10.57 12.42c2.13 4.17 3.46 8.78 5.11 13.16.82 2.15 1.3 3.87.25 5.99-1.03 2.12-2.65 3.96-4.16 5.76-1.72 2.05-3.6 4.11-5.02 6.42-.74-2.65-1.69-5.26-1.9-8-.56-6.77 1.77-13.75-.62-20.31a19.66 19.66 0 0 0-15.17-12.57c-3.47-.56-7.1-.02-10.61.47a9.1 9.1 0 0 0-1.24-.58c-.04-.56-.06-1.13-.12-1.52a17.73 17.73 0 0 0-1.29-4.38c-1.1-2.4-3.1-4.24-5.8-4.47-2.63-.2-4.97 1.19-7.2 2.36a79.76 79.76 0 0 1-10.31 4.76 29.7 29.7 0 0 1-5.95 1.45c-1.38.2-2.85.15-4.17.59.7-1.18 1.48-2.3 2.34-3.4-.03 0-.01.02 0 0Zm76.42 40.84c4.6 14.4-1.7 30.82-14.77 38.42-7.43 4.32-15.9 6.54-22.92 11.63-6.48 4.69-11.88 10.33-20.46 9.57-6.8-.62-13.14-3.39-19.6-5.5 2.06-2.39 4.19-4.67 7.03-6.11.32-.17.54-.41.7-.68 10.43 1.2 23.41.16 28.27-10.74.03-.08.03-.14.05-.21 12.63-1.65 27.25-6.02 28.53-20.77.14-1.67.08-3.36-.1-5.04 4.82-2.87 9.69-6.31 13.27-10.57Zm-85.01-29.8c-.4 2.38-.43 4.8.02 7.24v.35c.12.56.28 1.13.49 1.69.07.25.14.53.23.8l-.03.03c-4.08 5.7-4.8 12.56-4.51 19.4.25 6.72.43 14.56 4.33 20.33 1.92 2.85 4.6 5.08 7.26 7.18 3.15 2.48 6.37 4.98 9.94 6.85 6.7 3.52 14.15 3.5 21.5 2.83l.24-.03c-4.65 7.77-15.46 8.28-23.61 7.3-4.6-.56-9.17-1.43-13.83-1.6-4.2-.17-8.7 1.16-12.82.37-5.49-1.03-7.96-6.89-9.37-11.68-1.5-5.05-2.39-10.35-3.27-15.54-.82-4.86-1.9-9.94-1.6-14.9.33-5.18 2.77-9.55 5.66-13.75 4.68-6.93 10.5-15.48 19.37-16.86Zm6.97 7.84c1.71-4.59 5.08-8.82 9.67-10.75a8.78 8.78 0 0 1 6.99-.16c.9.33 1.75.57 2.62.67a19.23 19.23 0 0 0-1.94 4.16c-2.43.15-4.9.74-7.06 1.52a12.3 12.3 0 0 0-4.93 3.04c-1.45 1.59-2 3.95-2.15 6.05-.17 2.6.2 5.18.64 7.73.44 2.55.96 5.1 1.93 7.52 1.79 4.4 5.19 7.02 9.43 8.85 1.37.6 2.97 1.12 4.58 1.35 1.54 2.39 3.16 5.25 6.22 5.69 3.2.45 6.9-.46 10-1.25 6.64-1.7 16-5.34 14.9-13.77-.33-2.46-1.44-4.84-2.05-7.28.64.4 1.26.77 1.87 1.2 2.35 1.62 3.38 3.6 3.76 6.42.6 4.43-.33 9.05-3.44 12.4-6.4 6.84-18.32 7.32-27.03 7.04-4.7-.16-9.66-.56-14.04-2.43-4.6-1.98-7.51-5.8-9.15-10.44-2.93-8.25-3.96-19.26-.83-27.56Zm32.31 19.95a2 2 0 0 0 1.03-.84c.1.47.22.92.34 1.3.26.93.53 2.26.25 3.21-.35 1.26-2.25 1.1-3.32 1.03-2.83-.16-5.57-1.15-8.26-1.9-3.03-.86-5.8-1.95-7.87-4.42-1.4-1.66-2.77-3.63-3.02-5.84-.37-3.1 2.2-5.04 4.4-6.77l1.49-1.2c2.4 5.2 5.8 10.2 10.28 13.69 1.17.95 3.02 2.32 4.68 1.74Zm-.9-3.19c.14.08.12 0 0 0Zm-1.9-1.23c-4.34-3.47-7.56-8.46-9.74-13.58.64-1.03 1.34-2.44 2.27-2.74.75-.24 1.5.39 2.06.82 1.04.8 2.02 1.62 3.17 2.25 2.27 1.26 5.8 2.34 6.84 4.97 1.45 3.62-1.8 6.2-3.16 9.11-.03.04-.02.07-.05.1-.46-.3-.94-.57-1.39-.93ZM136.4 129.8c-.02.02 0 .03 0 .03-.01.16 0 .31.04.48-1.3 1.26-2.86 2.26-4.22 3.45-2.47 2.21-4.15 5.1-3.58 8.5.47 2.77 2.04 5.24 3.85 7.3 2.56 2.94 5.76 4.3 9.44 5.32l1.67.48c-2.45 1.55-6.84-.74-8.95-1.9a11.27 11.27 0 0 1-4.92-4.79c-1.22-2.44-1.75-5.17-2.22-7.83-.74-4.2-1.92-10.21 2.62-12.6a19 19 0 0 1 6.77-2c-.23 1.24-.4 2.41-.5 3.56Zm10.75 26.57c1.57.38 3.18.64 4.83.6 3.55-.08 5.87-1.9 5.7-5.6-.1-1.97-.76-3.61-1.44-5.37.33.29.66.54 1 .83 2.3 1.91 5.36 3.17 7.97 1a6.32 6.32 0 0 0 1.65-2.17l.13.47c.85 2.7 1.95 5.88.01 8.38-1.94 2.5-5.4 3.85-8.31 4.85a40.58 40.58 0 0 1-10.25 2.1c-1.1.08-2.01.11-2.87-.61a9.1 9.1 0 0 1-1.67-2.02 5.6 5.6 0 0 0 3.11-2.15c.1-.12.12-.21.14-.3Zm16.9-12.6c-1.87 5.04-4.2-.5-7.05-1.17.06-.11.14-.22.2-.36 1.31-2.87 1.35-6.5-.68-9.05-1.56-1.92-3.75-2.95-5.9-4.06 2.36.55 4.74.86 7.1 1.4a8.2 8.2 0 0 1 6.16 5.4c.87 2.38 1.08 5.45.18 7.83Zm-1.96-15.03c-3.75-2.18-8.47-1.96-12.56-3.29-2.46-.8-5.34-2.98-8.09-3.22 1.25-2.81 3.26-5.05 6.65-5.42 1.97-.2 4.17.23 5.92 1.19 1.97 1.08 3.66 2.8 5.27 4.32 1.72 1.6 3.4 3.3 4.91 5.1 1.24 1.5 2.65 3.25 2.47 5.29-.02.34-.07.7-.15 1.04a10.93 10.93 0 0 0-4.42-5ZM149 113.5c-2.45 0-4.46.7-6.1 1.86-.14 0-.23-.02-.37.02-2.53.6-4.1-.53-6.48-1.1-2.4-.55-4.91-.02-7.16.92-4.52 1.87-8.04 5.6-10.3 9.87a24.92 24.92 0 0 0-1.62 3.8l-.04-.15c-.1-.35-.14-.72-.2-1.07.06-.04.13-.13.25-.45a44.56 44.56 0 0 0 1.74-5.68c.2-.93.25-1.9.53-2.83.48-1.68 1.45-1.95 3.03-2.26 4.36-.86 8.25-1.5 12.38-3.35 3.44-1.53 6.72-3.82 10.29-5.06 4.18-1.44 5.56 2.26 6.2 5.66a16 16 0 0 0-2.15-.18Zm33.08 51.83c-.47 10.37-9.61 15.91-18.87 17.79a102.1 102.1 0 0 1-13.24 1.64c-4.67.34-9.5.35-14-1.2-4.9-1.72-9.05-5.08-13.06-8.27-4.45-3.53-7.8-7.25-8.85-13-.87-4.7-1.23-9.7-1.2-14.47.02-4.34.65-8.69 2.7-12.48-.84 6.97.23 14.46 2.07 20.73 1.52 5.16 4.32 9.88 9.01 12.7 4.86 2.94 10.82 3.63 16.39 3.89 9.97.47 22.85-.12 30.4-7.61 3.98-3.95 5.4-9.53 4.77-15.01-.31-2.68-.98-5.24-2.87-7.23-1.8-1.92-4.26-3.08-6.42-4.56.2-1.53.73-3.02.96-4.54a8.24 8.24 0 0 0-1.34-5.9c-1.28-2.1-3.03-3.88-4.72-5.63a76.94 76.94 0 0 0-4-3.88c3.74-.4 7.36-.5 11.1 1.48 3.78 2 6.66 5.58 7.9 9.66 1.26 4.17.4 8.76.16 13-.19 3.43-.16 6.76.87 10.06 1.24 4.15 2.43 8.44 2.24 12.83Zm5.63-9.3c4.03-5.61 11.23-10.18 9.11-17.62-.67-2.37-1.83-4.54-2.61-6.88-.96-2.85-1.86-5.65-3.22-8.34-2.56-5-6.06-9.51-10.5-12.98-4.88-3.82-10.73-6.76-16.36-9.33a103.6 103.6 0 0 0-17.85-6.34c-5.46-1.38-9.94-.55-14.64 2.52a53.33 53.33 0 0 0-10.79 9.3c-.32.37-.62.75-.93 1.15-8.34 4.17-17.82 4.98-26.76 7.44.04-.16.08-.32.08-.5-.42-13.16 14.52-19.09 23.85-24.6a47.3 47.3 0 0 0 7.37-5.2c2.24-1.97 4.3-4.22 6.84-5.82 5.88-3.67 12.49-.73 17.66 2.8 5.48 3.73 10.43 7.32 16.8 9.44 6.12 2.03 12.8 3.43 17.92 7.62 5.2 4.27 5.6 10.3 7.26 16.35a23.73 23.73 0 0 0 3 6.71c1.83 2.81 4.23 5.29 5.61 8.38 4.87 11.03-3.26 19.89-11.84 25.9ZM90.64 81c2.54 1.3 5.17 2.9 7.35 4.87l-3.86-.59c-8.03-1.14-16.07-1.73-23.61 1.9-17.78 8.54-23.73 29.54-20.29 47.75 1.59 8.36 4.58 18.37 13.77 20.5.16 2.9.7 5.78 1.69 8.53.12.34.26.65.38 1-8.66-.83-17.65-4.51-21.76-12.52-2.36-4.6-2.83-9.84-3.04-14.92-.2-5.06-.35-10.2.08-15.28.96-11.45 6.81-20.5 14.24-28.93 5.64-6.43 13.57-16.27 23.08-16.09 4.17.09 8.35 1.9 11.97 3.78Zm125.1 107.23c-.23-1.16-.5-2.33-.77-3.48.5-.64 1.02-1.3 1.5-1.97 5.03-7.13 7.88-15.74 4.82-24.28-2.9-8.1-9.75-14.13-16.15-19.54a1.4 1.4 0 0 0-1.14-.36c.1-1.1.16-2.22.1-3.38a18.33 18.33 0 0 0-2.25-7.83c-1.86-3.39-4.72-6.12-6.4-9.59-2.74-5.65-2.28-12.28-5.9-17.6-3.96-5.78-10.8-8.45-17.23-10.47-1.8-.55-3.6-1.11-5.4-1.7 6.2-5 14.32-9.79 21.79-5.24 5.24 3.18 8.1 9.36 10.99 14.54l9.16 16.37c3.07 5.46 6.28 10.86 9.13 16.45a53.07 53.07 0 0 1 3.28 7.91c.72 2.21 1.54 4.18 3.33 5.72 1.8 1.59 4.07 2.46 5.86 4.04a14.66 14.66 0 0 1 4.44 7.32c1.42 5.41-.67 10.48-3.99 14.73-3.59 4.59-8.15 8.33-11.7 12.97a44.15 44.15 0 0 0-3.47 5.39Zm-88.26 90.52c-3.18 1.06-6.48 2.09-9.87 2.26-4.19.21-8.35-1.12-12.2-2.7-5-2.04-9.17-6.2-12.78-10.1-1.61-1.74-2.43-1.55-4.94-1.27-3.45.4-6.98.6-10.45.05-4.64-.73-8.03-3.15-10.7-6.95-1.6-2.28-2.8-4.8-4.74-6.84-2.4-2.5-5.49-4.21-8.52-5.85-3.75-2.03-7.33-4.04-10.28-7.2a73.86 73.86 0 0 1-7.68-10.05c-4.74-7.33-8.77-15.13-12.82-22.87-4.28-8.14-8.26-16.47-11.17-25.2-1.4-4.23-2.72-8.37-2.17-12.9.45-3.6 1.74-7.44 4.47-9.94a34.5 34.5 0 0 0 4.75 4.91c2.66 2.24 5.7 3.91 8.77 5.55 1.58 16.22 6.07 32.4 14.46 46.42a71.35 71.35 0 0 0 16.71 19.36 42.01 42.01 0 0 0 11.1 6.55c4.2 1.57 8.42 1.89 12.84 2.08 2.57.1 5.08.35 7.57.97 2.48.62 4.88 1.42 7.45 1.53 4.22.17 8.23-1.28 12.08-2.8.28.18.53.38.8.57a159.03 159.03 0 0 0 24.14 24.34c2.47 2 5.09 3.96 7.78 5.77-5 .72-9.82 2.7-14.6 4.3Zm141.43-111.01c-.36 6.1-.57 11.66.8 17.67 1.33 5.82 2.33 11.35 1.38 17.32-.9 5.76-3.15 11.27-6.07 16.27-1.37 2.38-3.07 4.47-4.54 6.77-.65 1-.55.97-1.7 1-.97.04-1.95-.03-2.92-.04-2.64-.04-4.66-.1-4.8 2.91a31.2 31.2 0 0 1-.86 5.6c-.62 2.44-2.4 3.85-4.13 5.61-3.62 3.76-7.34 7.38-10.95 11.14-8.06 8.43-17.12 21.76-30.4 20.87-2.38-.15-4.67-1.04-7.1-1.08-3.04-.06-4.94 1.54-7.15 3.42a27.14 27.14 0 0 1-14.86 6.25c-13.49 1.48-26.69-5.63-37.03-13.64a154.44 154.44 0 0 1-19.9-18.53c4.93 2.38 10.19 3.96 15.74 3.95 4.18 0 8.09-1.13 12.02-2.4a68.9 68.9 0 0 1 12.7-2.96c7.91-.97 16.09-1.05 23.6-3.96 8.16-3.17 14.1-9.75 18.9-16.85 5-7.46 10.27-15.63 13-24.25a32.23 32.23 0 0 0 1.57-9.2c1.94-2.87 3.44-6.01 5.53-8.77 3.53-4.66 8.11-8.39 11.7-12.98 3.1-3.97 5.34-8.62 5.17-13.75a18.2 18.2 0 0 0-4.56-11.31c.61-.77 1.24-1.54 1.82-2.3 1.43-1.9 1.15-4.4 1.3-6.71.46-7.22.68-14.46.65-21.68-.02-4.9.28-10.38-.82-15.35 3.6 1.17 6.78 3.96 9.12 6.8 3.54 4.35 7.35 10.42 7.92 16.11.46 4.58.14 8.98 2.32 13.16 2.5 4.82 5.7 9.18 8.4 13.9a29.8 29.8 0 0 1 4.15 17.01Zm-19.99-83.49a63.17 63.17 0 0 0 15.27 8.94c5.42 2.3 11.44 4.89 13.13 11.1 1.24 4.55.2 9.47-.71 13.96l-2.87 14c-1.17 5.75-2.6 11.48-5.4 16.6a1.4 1.4 0 0 0-.75.17c-2.09-3.65-4.54-7.12-6.66-10.77-1.74-2.96-2.93-5.52-3.22-8.95-.23-2.92-.13-5.9-.8-8.78-.7-3-2.5-5.95-3.98-8.65a37.7 37.7 0 0 0-5.98-8.34c-3.04-3.12-6.8-5.7-11.06-6.46l-.16-.4c-2.7-6.06-8.95-9.56-13.5-14.08a73.94 73.94 0 0 1-13-17.35c-.46-.83-.87-1.69-1.3-2.53 9.65.08 19.85 3.52 27.28 9.6 4.72 3.88 8.99 8.17 13.71 11.94ZM55.06 44.28c5.02-3.9 11.43-5.38 17.63-6.02 4.46-.46 9.36.05 13.76-1.03 1.51-.37 2.3-1.02 2.87-2.37a17.7 17.7 0 0 1 3.39-5.19c12.37-13.9 32.96-20.52 51-21.05 6.49-.19 12.9.2 19.36-.84 6.1-.98 12.1-2.62 18.3-3.18 6.15-.55 12.92.24 18.1 3.85 4.1 2.84 5.38 6.38 6.47 10.95 1.98 8.25 2.38 17.47 8.57 23.85 3.25 3.34 7.33 5.66 10.79 8.75 3.94 3.5 4.9 7.72 3.63 12.63a48.46 48.46 0 0 0-22.54-5.17c-1.93-4.2-3.82-8.42-6.52-12.19-7.4-10.29-20.98-12.88-32.93-13-12.9-.13-25.9 3.67-34.85 13.32-.24.27-.33.53-.36.78-6.75-2.91-13.37-6.58-20.33-7.98-14.62-2.97-26.52 5.98-38.07 13.55-6.79 4.47-13.48 7.73-21.44 9.54-1.84.42-3.65.89-5.43 1.44.13-7.7 2.18-15.65 8.6-20.64Z"/>
</svg>